<svg width="54" height="54" fill="none" xmlns="http://www.w3.org/2000/svg"><rect width="54" height="54" rx="16" fill="#F6F8FA"/><path d="m28.728 18.444 1.76 3.549c.24.494.88.968 1.42 1.058l3.189.535c2.04.343 2.52 1.835 1.05 3.306l-2.48 2.5c-.42.424-.65 1.24-.52 1.826l.71 3.095c.56 2.45-.73 3.397-2.88 2.117l-2.99-1.785c-.54-.322-1.43-.322-1.98 0l-2.989 1.785c-2.14 1.28-3.44.322-2.88-2.117l.71-3.096c.13-.584-.1-1.4-.52-1.824l-2.48-2.5c-1.459-1.472-.99-2.965 1.05-3.307l3.19-.535c.53-.09 1.17-.564 1.41-1.058l1.76-3.549c.96-1.925 2.52-1.925 3.47 0Z" stroke="#141B34" stroke-width="1.5" stroke-linecap="round" stroke-linejoin="round"/></svg>