<svg width="54" height="54" fill="none" xmlns="http://www.w3.org/2000/svg"><rect width="54" height="54" rx="16" fill="#F6F8FA"/><path d="M22.295 32C18.53 22.25 23.863 17.937 27 17c3.137.938 8.47 5.25 4.705 15-.568-.313-2.305-.938-4.705-.938s-4.137.625-4.705.938Z" stroke="#141B34" stroke-width="1.5" stroke-linecap="round" stroke-linejoin="round"/><path d="M29 24a2 2 0 1 0-4 0 2 2 0 0 0 4 0Z" stroke="#141B34" stroke-width="1.5"/><path d="M32.5 30.558c1.442.133 3.208.524 4.481 1.442 0 0 .523-4.936-3.981-6m-11.5 4.558c-1.442.133-3.208.524-4.481 1.442 0 0-.523-4.936 3.981-6m3.5 8s.417 2.5 2.5 3c2.083-.5 2.5-3 2.5-3" stroke="#141B34" stroke-width="1.5" stroke-linecap="round" stroke-linejoin="round"/></svg>