<svg width="54" height="54" fill="none" xmlns="http://www.w3.org/2000/svg"><rect width="54" height="54" rx="16" fill="#F6F8FA"/><path d="M29.5 27a2.5 2.5 0 1 1-5 0 2.5 2.5 0 0 1 5 0Z" stroke="#141B34" stroke-width="1.5"/><path d="M34 26.142a13.62 13.62 0 0 0-1-.107m-12 1.93a13.195 13.195 0 0 1-1-.106" stroke="#141B34" stroke-width="1.5" stroke-linecap="round" stroke-linejoin="round"/><path d="M27 34.5c-1.332.622-3.083 1-5 1-1.066 0-2.08-.117-3-.327-1.5-.344-2-1.247-2-2.787V21.614c0-.985 1.04-1.661 2-1.441.92.21 1.934.327 3 .327 1.917 0 3.668-.378 5-1 1.332-.622 3.083-1 5-1 1.066 0 2.08.117 3 .327 1.582.363 2 1.293 2 2.787v10.772c0 .985-1.04 1.661-2 1.441-.92-.21-1.934-.327-3-.327-1.917 0-3.668.378-5 1Z" stroke="#141B34" stroke-width="1.5"/></svg>