<svg width="64" height="64" fill="none" xmlns="http://www.w3.org/2000/svg"><rect width="64" height="64" rx="16" fill="#F6F8FA"/><path d="m25.333 27.333 3.923 2.32c2.287 1.351 3.2 1.351 5.488 0l3.922-2.32" stroke="#141B34" stroke-width="2" stroke-linecap="round" stroke-linejoin="round"/><path d="M18.688 33.968c.087 4.087.13 6.13 1.639 7.645 1.508 1.514 3.607 1.566 7.805 1.672 2.587.065 5.15.065 7.737 0 4.198-.106 6.297-.158 7.805-1.672s1.551-3.558 1.639-7.645c.028-1.315.028-2.62 0-3.935-.088-4.088-.131-6.131-1.64-7.645-1.508-1.514-3.606-1.567-7.804-1.672-2.588-.065-5.15-.065-7.737 0-4.198.105-6.297.158-7.805 1.672s-1.552 3.557-1.639 7.645a92.174 92.174 0 0 0 0 3.935Z" stroke="#141B34" stroke-width="2" stroke-linejoin="round"/></svg>