<svg width="64" height="64" fill="none" xmlns="http://www.w3.org/2000/svg"><rect width="64" height="64" rx="16" fill="#F6F8FA"/><path d="M21.037 31.924c-1.264-2.205-1.874-4.004-2.242-5.829-.545-2.698.701-5.334 2.764-7.015.873-.711 1.872-.468 2.388.457l1.164 2.088c.923 1.656 1.384 2.484 1.293 3.361-.092.878-.714 1.593-1.958 3.022l-3.409 3.916Zm0 0c2.559 4.46 6.574 8.478 11.04 11.04m0 0c2.204 1.264 4.004 1.874 5.828 2.242 2.698.544 5.334-.701 7.016-2.765.71-.872.468-1.872-.457-2.387l-2.089-1.165c-1.656-.922-2.483-1.384-3.36-1.292-.878.091-1.593.713-3.023 1.958l-3.915 3.409Z" stroke="#141B34" stroke-width="2" stroke-linejoin="round"/><path d="M34.667 25.11a7.994 7.994 0 0 1 4.224 4.224M35.54 18.667a14.368 14.368 0 0 1 9.795 9.794" stroke="#141B34" stroke-width="2" stroke-linecap="round"/></svg>