<svg width="111" height="28" fill="none" xmlns="http://www.w3.org/2000/svg"><path d="M36.41.5c1.619 0 3.147.33 4.586.991 1.438.66 2.685 1.56 3.742 2.7a12.117 12.117 0 0 1 2.528 3.93 11.85 11.85 0 0 1 .944 4.683c0 1.526-.27 2.985-.809 4.374a12.594 12.594 0 0 1-2.157 3.692 12.305 12.305 0 0 1-3.27 2.734 10.828 10.828 0 0 1-4.012 1.401L39.95 27.5h-9.305l-1.922-2.392H11.8c-1.619 0-3.147-.33-4.585-.992a12.394 12.394 0 0 1-3.776-2.665A13.482 13.482 0 0 1 .91 17.52 12.487 12.487 0 0 1 0 12.803c0-1.64.303-3.201.91-4.682.63-1.504 1.472-2.814 2.529-3.93a12.115 12.115 0 0 1 3.776-2.7A10.854 10.854 0 0 1 11.8.5h24.61Zm-2.19 8.886H13.99c-.944 0-1.742.33-2.393.991-.652.661-.978 1.47-.978 2.427 0 .957.326 1.766.978 2.426.651.661 1.45.991 2.393.991h7.653l-2.798-3.486 9.305.035 2.764 3.451h3.304c.944 0 1.742-.33 2.394-.99.652-.661.978-1.47.978-2.427 0-.957-.326-1.766-.978-2.427-.652-.66-1.45-.99-2.394-.99ZM50.241.842h10.654v23.924H50.24V.842Zm27.855 0 8.698 6.323L95.492.842h15.036l-16.216 11.79L111 24.767H95.964l-9.17-6.665-9.17 6.665H62.587l16.689-12.133L63.059.842h15.037Z" fill="#0C0C0C"/></svg>