<svg xmlns="http://www.w3.org/2000/svg" width="1440" height="778" style="width:100%;height:100%"><g id="_R_G"><g id="_R_G_L_5_G" transform="translate(-240 -151)"><path id="_R_G_L_5_G_S" fill="#fff" d="M0 0h1920v1080H0z"/></g><g id="_R_G_L_4_G"><path id="_R_G_L_4_G_D_0_P_0" fill="#9ca3af" fill-opacity="0" fill-rule="nonzero" d="M-2.5-80.5c-78 1.5-76 81-76 82.5s4 75.5 80.5 76c.93.01 1.84 0 2.75-.01C78.54 76.94 80.02 13.86 81.5 2.5c1.46-11.18-5.6-80.55-77.75-82.96-2.03-.07-4.12-.08-6.25-.04z"/><path id="_R_G_L_4_G_D_1_P_0" stroke="#000" stroke-linecap="round" stroke-linejoin="round" fill="none" stroke-width="73" stroke-opacity="1" d="M-2.5-80.5c-78 1.5-76 81-76 82.5s4 75.5 80.5 76c.93.01 1.84 0 2.75-.01C78.54 76.94 80.02 13.86 81.5 2.5c1.46-11.18-5.6-80.55-77.75-82.96-2.03-.07-4.12-.08-6.25-.04z"/></g><g id="_R_G_L_3_G_N_5_T_0_M"><g id="_R_G_L_3_G_N_5_T_0"><g id="_R_G_L_3_G" transform="translate(58 69.5)"><g id="_R_G_L_3_G_D_0_P_0_G_0_T_0"><path id="_R_G_L_3_G_D_0_P_0" fill="#000" fill-opacity="1" fill-rule="nonzero" d="M52.5 10-43 9.5l107 131 92.5-.5-104-130z"/></g><g id="_R_G_L_3_G_D_1_P_0_G_0_T_0"><path id="_R_G_L_3_G_D_1_P_0" stroke="#000" stroke-linecap="round" stroke-linejoin="round" fill="none" stroke-width="0" stroke-opacity="1" d="M52.5 10-43 9.5l107 131 92.5-.5-104-130z"/></g></g></g></g><g id="_R_G_L_2_G_M"><g id="_R_G_L_2_G"><path id="_R_G_L_2_G_D_0_P_0" fill="#000" fill-opacity="1" fill-rule="nonzero" d="M-194-42.75v65h-27.75v-65H-194z"/><path id="_R_G_L_2_G_D_1_P_0" stroke="#000" stroke-linecap="round" stroke-linejoin="round" fill="none" stroke-width="0" stroke-opacity="1" d="M-194-42.75v65h-27.75v-65H-194z"/><path id="_R_G_L_2_G_D_2_P_0" fill="#000" fill-opacity="1" fill-rule="nonzero" d="M-58.25-42.5h-40.5L-188 22.75h40.75l89-65.25z"/><path id="_R_G_L_2_G_D_3_P_0" stroke="#000" stroke-linecap="round" stroke-linejoin="round" fill="none" stroke-width="0" stroke-opacity="1" d="M-58.25-42.5h-40.5L-188 22.75h40.75l89-65.25z"/><path id="_R_G_L_2_G_D_4_P_0" fill="#000" fill-opacity="1" fill-rule="nonzero" d="m-146.5-42.25-40.25.25 89 64.5H-57l-89.5-64.75z"/><path id="_R_G_L_2_G_D_5_P_0" stroke="#000" stroke-linecap="round" stroke-linejoin="round" fill="none" stroke-width="0" stroke-opacity="1" d="m-146.5-42.25-40.25.25 89 64.5H-57l-89.5-64.75z"/></g></g><g id="_R_G_L_1_G_N_3_T_0_M"><g id="_R_G_L_1_G_N_3_T_0"><g id="_R_G_L_1_G" transform="translate(-720 -389)"><g id="_R_G_L_1_G_L_3_G_M"><g id="_R_G_L_1_G_L_3_G"><path id="_R_G_L_1_G_L_3_G_D_0_P_0" fill="#9ca3af" fill-opacity="0" fill-rule="nonzero" d="M60.75-28.25C46-28.75-20-28-20-28l.25 38.25L62 10.5S77.5 8.25 77.25-9c-.5-12.75-8.5-17.75-16.5-19.25z"/><path id="_R_G_L_1_G_L_3_G_D_1_P_0" stroke="#9ca3af" stroke-linecap="round" stroke-linejoin="round" fill="none" stroke-width="26" stroke-opacity="1" d="M60.75-28.25C46-28.75-20-28-20-28l.25 38.25L62 10.5S77.5 8.25 77.25-9c-.5-12.75-8.5-17.75-16.5-19.25z"/><path id="_R_G_L_1_G_L_3_G_D_2_P_0" fill="#9ca3af" fill-opacity="1" fill-rule="nonzero" d="m254-41-31.75.25 50 63.5h33.5L356.5-40.5h-30.75L289 2.5 254-41z"/><path id="_R_G_L_1_G_L_3_G_D_3_P_0" stroke="#9ca3af" stroke-linecap="round" stroke-linejoin="round" fill="none" stroke-width="0" stroke-opacity="1" d="m254-41-31.75.25 50 63.5h33.5L356.5-40.5h-30.75L289 2.5 254-41z"/><path id="_R_G_L_1_G_L_3_G_D_4_P_0" fill="#9ca3af" fill-opacity="1" fill-rule="nonzero" d="M214.5-41.5V-25h-115v-16.5h115z"/><path id="_R_G_L_1_G_L_3_G_D_5_P_0" stroke="#9ca3af" stroke-linecap="round" stroke-linejoin="round" fill="none" stroke-width="0" stroke-opacity="1" d="M214.5-41.5V-25h-115v-16.5h115z"/><path id="_R_G_L_1_G_L_3_G_D_6_P_0" fill="#9ca3af" fill-opacity="1" fill-rule="nonzero" d="M124-41.5v64H99.5v-64H124z"/><path id="_R_G_L_1_G_L_3_G_D_7_P_0" stroke="#9ca3af" stroke-linecap="round" stroke-linejoin="round" fill="none" stroke-width="0" stroke-opacity="1" d="M124-41.5v64H99.5v-64H124z"/><path id="_R_G_L_1_G_L_3_G_D_8_P_0" fill="#9ca3af" fill-opacity="1" fill-rule="nonzero" d="M214.75-18v15.25H122.5V-18h92.25z"/><path id="_R_G_L_1_G_L_3_G_D_9_P_0" stroke="#9ca3af" stroke-linecap="round" stroke-linejoin="round" fill="none" stroke-width="0" stroke-opacity="1" d="M214.75-18v15.25H122.5V-18h92.25z"/><path id="_R_G_L_1_G_L_3_G_D_10_P_0" fill="#9ca3af" fill-opacity="1" fill-rule="nonzero" d="M215.5 5.87v16.51h-95.25V5.87h95.25z"/><path id="_R_G_L_1_G_L_3_G_D_11_P_0" stroke="#9ca3af" stroke-linecap="round" stroke-linejoin="round" fill="none" stroke-width="0" stroke-opacity="1" d="M215.5 5.87v16.51h-95.25V5.87h95.25z"/><path id="_R_G_L_1_G_L_3_G_D_12_P_0" fill="#9ca3af" fill-opacity="1" fill-rule="nonzero" d="M-15-41v63.75h-17.75V-41H-15z"/><path id="_R_G_L_1_G_L_3_G_D_13_P_0" stroke="#9ca3af" stroke-linecap="round" stroke-linejoin="round" fill="none" stroke-width="0" stroke-opacity="1" d="M-15-41v63.75h-17.75V-41H-15z"/></g></g><g id="_R_G_L_1_G_L_2_G_M"><g id="_R_G_L_1_G_L_2_G"><path id="_R_G_L_1_G_L_2_G_D_0_P_0" fill="#9ca3af" fill-opacity="1" fill-rule="nonzero" d="M85.5-41H-23s-11.5 5-11 17.5 5 15.25 12 17.75h81.25v7h-89V22.5h104s14.5-3.25 15.25-19C89.75-5 82.75-11.75 70-14c-28 .25-74.5.25-74.5.25l.25-5.25 89.5-.5"/><path id="_R_G_L_1_G_L_2_G_D_1_P_0" stroke="#9ca3af" stroke-linecap="round" stroke-linejoin="round" fill="none" stroke-width="0" stroke-opacity="1" d="M85.5-41H-23s-11.5 5-11 17.5 5 15.25 12 17.75h81.25v7h-89V22.5h104s14.5-3.25 15.25-19C89.75-5 82.75-11.75 70-14c-28 .25-74.5.25-74.5.25l.25-5.25 89.5-.5"/><path id="_R_G_L_1_G_L_2_G_D_2_P_0" fill="#9ca3af" fill-opacity="1" fill-rule="nonzero" d="M94.75-41.5v64.25h120.5V6.5l-91.5-.25V-1h91v-15.5H123.5V-24h92v-17.25L94.75-41.5z"/><path id="_R_G_L_1_G_L_2_G_D_3_P_0" stroke="#9ca3af" stroke-linecap="round" stroke-linejoin="round" fill="none" stroke-width="0" stroke-opacity="1" d="M94.75-41.5v64.25h120.5V6.5l-91.5-.25V-1h91v-15.5H123.5V-24h92v-17.25L94.75-41.5z"/><path id="_R_G_L_1_G_L_2_G_D_4_P_0" fill="#9ca3af" fill-opacity="0" fill-rule="nonzero" d="M322.75-30.5s-66-.25-70.5 0-19.5 5.75-18.5 21.25c-1 19.25 17.75 20.5 17.75 20.5s69.75-.25 72.25 0 16.5-5.5 15.5-22-16.5-19.75-16.5-19.75z"/><path id="_R_G_L_1_G_L_2_G_D_5_P_0" stroke="#9ca3af" stroke-linecap="round" stroke-linejoin="round" fill="none" stroke-width="23" stroke-opacity="1" d="M322.75-30.5s-66-.25-70.5 0-19.5 5.75-18.5 21.25c-1 19.25 17.75 20.5 17.75 20.5s69.75-.25 72.25 0 16.5-5.5 15.5-22-16.5-19.75-16.5-19.75z"/></g></g><g id="_R_G_L_1_G_L_1_G_M"><g id="_R_G_L_1_G_L_1_G"><path id="_R_G_L_1_G_L_1_G_D_0_P_0" fill="#9ca3af" fill-opacity="1" fill-rule="nonzero" d="M51-42.5H19L-33.5 22l31 .5 9-9.25h58L71 22h32.5L51-42.5z"/><path id="_R_G_L_1_G_L_1_G_D_1_P_0" stroke="#9ca3af" stroke-linecap="round" stroke-linejoin="round" fill="none" stroke-width="0" stroke-opacity="1" d="M51-42.5H19L-33.5 22l31 .5 9-9.25h58L71 22h32.5L51-42.5z"/><path id="_R_G_L_1_G_L_1_G_D_2_P_0" fill="#9ca3af" fill-opacity="0" fill-rule="nonzero" d="m121.5 6.75.5-38h82.75s12.25 2 12.25 14.5-11.25 13-11.25 13H126.5"/><path id="_R_G_L_1_G_L_1_G_D_3_P_0" stroke="#9ca3af" stroke-linecap="round" stroke-linejoin="round" fill="none" stroke-width="24" stroke-opacity="1" d="m121.5 6.75.5-38h82.75s12.25 2 12.25 14.5-11.25 13-11.25 13H126.5"/><path id="_R_G_L_1_G_L_1_G_D_4_P_0" fill="#9ca3af" fill-opacity="0" fill-rule="nonzero" d="M249 1v-32.25h82.75s12.25 2 12.25 14.5-11.25 13-11.25 13H253.5"/><path id="_R_G_L_1_G_L_1_G_D_5_P_0" stroke="#9ca3af" stroke-linecap="round" stroke-linejoin="round" fill="none" stroke-width="24" stroke-opacity="1" d="M249 1v-32.25h82.75s12.25 2 12.25 14.5-11.25 13-11.25 13H253.5"/><path id="_R_G_L_1_G_L_1_G_D_6_P_0" fill="#fff" fill-opacity="1" fill-rule="nonzero" d="M34.75-26.25 18.75-8l32-.5-16-17.75z"/><path id="_R_G_L_1_G_L_1_G_D_7_P_0" stroke="#9ca3af" stroke-linecap="round" stroke-linejoin="round" fill="none" stroke-width="0" stroke-opacity="1" d="M34.75-26.25 18.75-8l32-.5-16-17.75z"/><path id="_R_G_L_1_G_L_1_G_D_8_P_0" fill="#9ca3af" fill-opacity="1" fill-rule="nonzero" d="M134.25-43.5V22H109.5v-65.5h24.75z"/><path id="_R_G_L_1_G_L_1_G_D_9_P_0" stroke="#9ca3af" stroke-linecap="round" stroke-linejoin="round" fill="none" stroke-width="0" stroke-opacity="1" d="M134.25-43.5V22H109.5v-65.5h24.75z"/><path id="_R_G_L_1_G_L_1_G_D_10_P_0" fill="#9ca3af" fill-opacity="1" fill-rule="nonzero" d="M261-43.5v66h-24.25v-66H261z"/><path id="_R_G_L_1_G_L_1_G_D_11_P_0" stroke="#9ca3af" stroke-linecap="round" stroke-linejoin="round" fill="none" stroke-width="0" stroke-opacity="1" d="M261-43.5v66h-24.25v-66H261z"/><path id="_R_G_L_1_G_L_1_G_D_12_P_0" fill="#9ca3af" fill-opacity="1" fill-rule="nonzero" d="M204.5-15.37V8.25h-70.25v-23.62h70.25z"/><path id="_R_G_L_1_G_L_1_G_D_13_P_0" stroke="#9ca3af" stroke-linecap="round" stroke-linejoin="round" fill="none" stroke-width="0" stroke-opacity="1" d="M204.5-15.37V8.25h-70.25v-23.62h70.25z"/><path id="_R_G_L_1_G_L_1_G_D_14_P_0" fill="#9ca3af" fill-opacity="1" fill-rule="nonzero" d="M203.13-43.5v23.88h-68.88V-43.5h68.88z"/><path id="_R_G_L_1_G_L_1_G_D_15_P_0" stroke="#9ca3af" stroke-linecap="round" stroke-linejoin="round" fill="none" stroke-width="0" stroke-opacity="1" d="M203.13-43.5v23.88h-68.88V-43.5h68.88z"/><path id="_R_G_L_1_G_L_1_G_D_16_P_0" fill="#9ca3af" fill-opacity="1" fill-rule="nonzero" d="M331.13-43.37v23.75h-69.88v-23.75h69.88z"/><path id="_R_G_L_1_G_L_1_G_D_17_P_0" stroke="#9ca3af" stroke-linecap="round" stroke-linejoin="round" fill="none" stroke-width="0" stroke-opacity="1" d="M331.13-43.37v23.75h-69.88v-23.75h69.88z"/><path id="_R_G_L_1_G_L_1_G_D_18_P_0" fill="#9ca3af" fill-opacity="1" fill-rule="nonzero" d="M331.25-15.5V8.38h-70.38V-15.5h70.38z"/><path id="_R_G_L_1_G_L_1_G_D_19_P_0" stroke="#9ca3af" stroke-linecap="round" stroke-linejoin="round" fill="none" stroke-width="0" stroke-opacity="1" d="M331.25-15.5V8.38h-70.38V-15.5h70.38z"/></g></g><g id="_R_G_L_1_G_L_0_G_M"><g id="_R_G_L_1_G_L_0_G"><path id="_R_G_L_1_G_L_0_G_D_0_P_0" fill="#9ca3af" fill-opacity="0" fill-rule="nonzero" d="m50.75-30.37-52.5.12S-20.5-29-20.5-9-1.75 12-1.25 12h32.38"/><path id="_R_G_L_1_G_L_0_G_D_1_P_0" stroke="#9ca3af" stroke-linecap="round" stroke-linejoin="round" fill="none" stroke-width="24" stroke-opacity="1" d="m50.75-30.37-52.5.12S-20.5-29-20.5-9-1.75 12-1.25 12h32.38"/><path id="_R_G_L_1_G_L_0_G_D_2_P_0" fill="#9ca3af" fill-opacity="0" fill-rule="nonzero" d="m107.88-3.25-.38-27.5H189s12 1 12 15.75-12.62 13.63-12.62 13.63l-75.13.12"/><path id="_R_G_L_1_G_L_0_G_D_3_P_0" stroke="#9ca3af" stroke-linecap="round" stroke-linejoin="round" fill="none" stroke-width="24" stroke-opacity="1" d="m107.88-3.25-.38-27.5H189s12 1 12 15.75-12.62 13.63-12.62 13.63l-75.13.12"/><path id="_R_G_L_1_G_L_0_G_D_4_P_0" fill="#9ca3af" fill-opacity="1" fill-rule="nonzero" d="M261-42h-38.75v64.75l29 .5V-13l29.5 35.75h33.5l29-36.75v37l25 .25-.75-64.5h-34.25L297 2.25 261-42z"/><path id="_R_G_L_1_G_L_0_G_D_5_P_0" stroke="#9ca3af" stroke-linecap="round" stroke-linejoin="round" fill="none" stroke-width="0" stroke-opacity="1" d="M261-42h-38.75v64.75l29 .5V-13l29.5 35.75h33.5l29-36.75v37l25 .25-.75-64.5h-34.25L297 2.25 261-42z"/><path id="_R_G_L_1_G_L_0_G_D_6_P_0" fill="#9ca3af" fill-opacity="1" fill-rule="nonzero" d="m193.75 6.5-32.62-.12L178 23h37.25l-21.5-16.5z"/><path id="_R_G_L_1_G_L_0_G_D_7_P_0" stroke="#9ca3af" stroke-linecap="round" stroke-linejoin="round" fill="none" stroke-width="0" stroke-opacity="1" d="m193.75 6.5-32.62-.12L178 23h37.25l-21.5-16.5z"/><path id="_R_G_L_1_G_L_0_G_D_8_P_0" fill="#9ca3af" fill-opacity="1" fill-rule="nonzero" d="M85.66-42.49v24.23H2.34v-24.23h83.32z"/><path id="_R_G_L_1_G_L_0_G_D_9_P_0" stroke="#9ca3af" stroke-linecap="round" stroke-linejoin="round" fill="none" stroke-width="0" stroke-opacity="1" d="M85.66-42.49v24.23H2.34v-24.23h83.32z"/><path id="_R_G_L_1_G_L_0_G_D_10_P_0" fill="#9ca3af" fill-opacity="1" fill-rule="nonzero" d="M85.62 0v23.75H1V0h84.62z"/><path id="_R_G_L_1_G_L_0_G_D_11_P_0" stroke="#9ca3af" stroke-linecap="round" stroke-linejoin="round" fill="none" stroke-width="0" stroke-opacity="1" d="M85.62 0v23.75H1V0h84.62z"/><path id="_R_G_L_1_G_L_0_G_D_12_P_0" fill="#9ca3af" fill-opacity="1" fill-rule="nonzero" d="M118.87-42.57v67.02H95.38v-67.02h23.49z"/><path id="_R_G_L_1_G_L_0_G_D_13_P_0" stroke="#9ca3af" stroke-linecap="round" stroke-linejoin="round" fill="none" stroke-width="0" stroke-opacity="1" d="M118.87-42.57v67.02H95.38v-67.02h23.49z"/></g></g></g></g></g><g id="_R_G_L_0_G_M"><g id="_R_G_L_0_G" transform="translate(720 389)"><path id="_R_G_L_0_G_D_0_P_0" fill="#fff" fill-opacity="1" fill-rule="nonzero" d="M366-165v118H-45v-118h411z"/><path id="_R_G_L_0_G_D_1_P_0" stroke="#9ca3af" stroke-linecap="round" stroke-linejoin="round" fill="none" stroke-width="0" stroke-opacity="1" d="M366-165v118H-45v-118h411z"/><path id="_R_G_L_0_G_D_2_P_0" fill="#fff" fill-opacity="1" fill-rule="nonzero" d="M372 26v165H-44V26h416z"/><path id="_R_G_L_0_G_D_3_P_0" stroke="#9ca3af" stroke-linecap="round" stroke-linejoin="round" fill="none" stroke-width="0" stroke-opacity="1" d="M372 26v165H-44V26h416z"/></g></g></g><script type="application/ecmascript"><![CDATA[
            var animation = document.querySelector('animate');
            animation.addEventListener('endEvent', function() {
                // Посылаем сообщение в родительский документ
                parent.postMessage('animationEnded', '*');
            });
        ]]></script></svg>