<svg width="57" height="52" fill="none" xmlns="http://www.w3.org/2000/svg"><path d="M14.951 47a3.777 3.777 0 0 1 3.778-3.777h21.996a3.778 3.778 0 0 1 3.778 3.778v.221A3.778 3.778 0 0 1 40.725 51H18.73a3.778 3.778 0 0 1-3.778-3.778v-.221Zm9.139-12.226v8.45m11.47-8.45v8.45m13.35-11.265 5.979 6.055a3.543 3.543 0 0 1 0 5.008c-1.53 1.53-3.772 1.53-5.155.146l-8.296-8.244s-15.639-.007-18.929 0c-2.858.007-4.505-1.476-4.505-1.476l-7.446-7.445-8.52-8.521a3.54 3.54 0 0 1 0-5.008c1.53-1.53 3.771-1.53 5.153-.146l8.6 8.52 6.582 6.583h19.252s2.382-.111 4.257 1.64a171.478 171.478 0 0 1 3.029 2.888ZM25.69 21.232h16.2" stroke="#004A81" stroke-width="2" stroke-miterlimit="3.864"/><path d="M33.415 21.33c-.15.052-4.288 5.934-4.288 5.934" stroke="#004A81" stroke-width="2" stroke-miterlimit="3.864"/><path clip-rule="evenodd" d="m16.77 4.939 8.671 8.07s3.815-4.649.15-8.318c-4.532-4.539-8.82.248-8.82.248Z" stroke="#004A81" stroke-width="2" stroke-miterlimit="3.864"/><path d="M25.592 4.54S28.585 1 32.172 1h11.312s5.28.005 5.28 6.38v16.343" stroke="#004A81" stroke-width="2" stroke-miterlimit="3.864"/></svg>