<svg width="59" height="52" fill="none" xmlns="http://www.w3.org/2000/svg"><path d="M15.794 25.046a4.693 4.693 0 1 0 0-9.386 4.693 4.693 0 0 0 0 9.386Zm-8.904 12.7c0-.146.118-.263.262-.263h17.42c.145 0 .264.119.264.263v12.99a.265.265 0 0 1-.265.264H7.152a.263.263 0 0 1-.263-.265V37.746Z" stroke="#004A81" stroke-width="2" stroke-miterlimit="3.864"/><path d="M15.859 45.684a1.444 1.444 0 1 0 0-2.888 1.444 1.444 0 0 0 0 2.888Z" stroke="#004A81" stroke-width="2" stroke-miterlimit="3.864"/><path d="M4.408 48.06s-3.733-.896-3.385-4.668c.35-3.773 2.787-10.939 2.787-10.939s1.295-3.873 3.722-3.822c1.892.039 4.978 0 4.978 0l3.374 4.17 3.5-4.17s3.086.039 4.976 0c2.429-.05 3.722 3.822 3.722 3.822s2.44 7.166 2.787 10.939c.35 3.772-3.385 4.668-3.385 4.668m14.758-37.674a4.693 4.693 0 1 0 0-9.386 4.693 4.693 0 0 0 0 9.386Zm-8.906 12.698c0-.146.119-.265.265-.265H51.02c.146 0 .263.119.263.265v12.988a.264.264 0 0 1-.263.264H33.6a.265.265 0 0 1-.264-.264V23.084Z" stroke="#004A81" stroke-width="2" stroke-miterlimit="3.864"/><path d="M42.308 31.024a1.444 1.444 0 1 0 0-2.888 1.444 1.444 0 0 0 0 2.888Z" stroke="#004A81" stroke-width="2" stroke-miterlimit="3.864"/><path d="M28.223 24.716c.837-3.405 2.034-6.925 2.034-6.925s1.295-3.872 3.722-3.822c1.892.039 4.978 0 4.978 0l3.374 4.17 3.498-4.17s3.086.039 4.978 0c2.429-.049 3.722 3.822 3.722 3.822s2.438 7.168 2.787 10.939c.348 3.771-3.385 4.668-3.385 4.668m-24.68 2.94h26.498" stroke="#004A81" stroke-width="2" stroke-miterlimit="3.864"/></svg>