<svg width="23" height="24" fill="none" xmlns="http://www.w3.org/2000/svg"><path d="M17.3 11.281c.86 0 1.578 0 2.148.077.602.08 1.145.259 1.581.695.437.437.615.98.696 1.581.076.57.076 1.288.076 2.15v.1c0 .86 0 1.578-.076 2.148-.081.602-.259 1.145-.696 1.581-.436.437-.98.615-1.58.696-.57.076-1.289.076-2.15.076h-.1c-.86 0-1.579 0-2.149-.076-.601-.081-1.144-.259-1.58-.696-.437-.436-.615-.98-.696-1.58-.077-.57-.077-1.289-.077-2.15v-.1c0-.86 0-1.579.077-2.149.08-.601.259-1.144.695-1.58.437-.437.98-.615 1.582-.696.57-.077 1.287-.077 2.149-.077h.1Z" fill="#0C0C0C"/><path fill-rule="evenodd" clip-rule="evenodd" d="M20.32 4.288a.958.958 0 0 1-.63 1.2c-2.977.928-5.076 3.565-5.076 6.62v3.965a.958.958 0 1 1-1.917 0v-3.965c0-3.974 2.724-7.297 6.424-8.45a.958.958 0 0 1 1.2.63Z" fill="#0C0C0C"/><path d="M5.8 11.281c.86 0 1.578 0 2.148.077.602.08 1.145.259 1.582.695.436.437.614.98.695 1.581.077.57.076 1.288.076 2.15v.1c0 .86 0 1.578-.076 2.148-.081.602-.259 1.145-.695 1.581-.437.437-.98.615-1.582.696-.57.076-1.288.076-2.149.076h-.1c-.86 0-1.579 0-2.149-.076-.601-.081-1.144-.259-1.58-.696-.437-.436-.615-.98-.696-1.58-.077-.57-.077-1.289-.077-2.15v-.1c0-.86 0-1.579.077-2.149.08-.601.259-1.144.695-1.58.437-.437.98-.615 1.581-.696.57-.077 1.288-.077 2.15-.077h.1Z" fill="#0C0C0C"/><path fill-rule="evenodd" clip-rule="evenodd" d="M8.82 4.288a.958.958 0 0 1-.63 1.2c-2.977.928-5.076 3.565-5.076 6.62v3.965a.958.958 0 1 1-1.917 0v-3.965c0-3.974 2.723-7.297 6.423-8.45a.958.958 0 0 1 1.2.63Z" fill="#0C0C0C"/></svg>