<svg width="91" height="74" fill="none" xmlns="http://www.w3.org/2000/svg"><path d="M90.81 41.433c-.12.05-.302.12-.532.2-.452.169-1.084.388-1.797.597-.36.11-.742.21-1.134.299-.19.05-.391.09-.592.14l-.602.119c-.803.15-1.585.239-2.268.259a4.56 4.56 0 0 0-1.555.319 5.593 5.593 0 0 0-1.355.757c-.823.628-1.455 1.434-1.776 2.281a3.864 3.864 0 0 1-.924 1.395c.382-.877.733-1.773 1.054-2.68.362-1.016.672-2.042.954-3.098.21-.807.39-1.624.552-2.45 0 0 0-.01.02-.02.1-.11.21-.22.33-.32.121-.1.262-.189.402-.269a1.68 1.68 0 0 1 1.034-.169s.2-.03.522-.1c.31-.07.732-.169 1.164-.298.22-.07.441-.14.652-.22.21-.08.411-.169.592-.269.361-.189.652-.408.753-.637.1-.23.21-.429.32-.608.111-.19.232-.369.352-.568.12-.199.24-.418.361-.677.06-.13.12-.28.181-.439.06-.159.11-.328.17-.528a3.73 3.73 0 0 1 .251-.607c.11-.22.241-.439.392-.668.14-.229.3-.468.471-.707.161-.24.342-.478.512-.707.09-.12.17-.23.261-.34.08-.109.17-.218.251-.328.16-.21.331-.418.472-.578.29-.338.522-.597.662-.717 0 0-.21.17-.582.438-.18.13-.401.29-.642.459-.251.169-.532.358-.823.558-.592.378-1.275.767-1.967 1.095l-.512.24c-.17.07-.351.139-.522.209-.34.13-.672.239-.983.328a4.132 4.132 0 0 0-1.335.657 5.234 5.234 0 0 0-1.023 1.027c-.572.767-.934 1.664-1.034 2.53-.04.429-.17.807-.331 1.146-.07.15-.16.29-.241.419 0-.02 0-.04.01-.06.371-2.142.552-4.314.482-6.446 0-.13 0-.269-.01-.398 0-.13-.01-.27-.02-.399 0-.13-.02-.269-.02-.398l-.03-.399-.03-.398c0-.04 0-.08-.01-.12.01-.03.02-.06.04-.09a2.45 2.45 0 0 1 .501-.717c.231-.209.522-.368.893-.408l.12-.06c.081-.04.191-.09.322-.16.27-.139.622-.338.983-.567.362-.23.723-.498 1.004-.767.27-.27.471-.538.502-.777.06-.469.16-.847.27-1.296.03-.11.05-.229.07-.358.02-.12.04-.26.051-.399.02-.14.03-.288.04-.448 0-.16.02-.339 0-.528 0-.19.01-.398.05-.618.02-.11.04-.219.06-.338.02-.12.05-.24.08-.359.061-.239.131-.488.212-.747.04-.12.08-.25.12-.369a16.128 16.128 0 0 1 .381-1.076c.08-.229.16-.438.241-.627.15-.379.291-.678.382-.817 0 0-.141.209-.402.548-.13.17-.28.368-.452.578-.18.219-.37.448-.592.697a18.421 18.421 0 0 1-1.465 1.474c-.532.479-1.094.897-1.615 1.216a3.471 3.471 0 0 0-1.014.946 4.51 4.51 0 0 0-.592 1.206c-.07.209-.12.428-.16.647-.04.22-.07.438-.08.658v.648c.01.208.04.418.08.627.02.1.03.2.04.299 0 .1.01.199.01.289 0 .189-.01.368-.03.538-.03.189-.08.368-.131.528-.02-.14-.03-.28-.05-.419a37.155 37.155 0 0 0-.542-3.048 33.118 33.118 0 0 0-.823-2.89l-.24-.687c-.091-.229-.171-.448-.262-.677-.08-.23-.18-.449-.27-.668 0-.06 0-.12.01-.189.04-.259.11-.538.25-.787.15-.249.362-.468.693-.608 0 0 .14-.12.34-.319.202-.199.462-.468.723-.776a6.07 6.07 0 0 0 .693-.957c.17-.309.27-.608.23-.827-.02-.11-.03-.219-.05-.319-.01-.11-.03-.209-.04-.308l-.06-.638c-.03-.22-.06-.458-.11-.727-.03-.13-.06-.27-.09-.419-.04-.15-.09-.309-.141-.468-.21-.667-.251-1.674-.22-2.6.01-.458.04-.897.08-1.255.03-.359.08-.638.13-.787 0 0-.08.219-.22.568-.141.348-.362.836-.623 1.374-.13.27-.281.548-.442.827-.16.28-.33.568-.511.837s-.362.538-.552.787c-.191.25-.392.488-.583.687a2.849 2.849 0 0 0-.642 1.096c-.06.2-.11.399-.13.608-.03.21-.03.408-.02.628 0 .209.03.418.07.627.02.11.04.21.06.31.02.099.05.198.08.298.12.398.271.787.462 1.136a3.169 3.169 0 0 1 .341 1.016c.03.219.04.418.03.608-.01-.03-.03-.06-.04-.08-.05-.11-.1-.22-.14-.319-.05-.11-.09-.21-.15-.319-.101-.209-.201-.418-.302-.617-.1-.21-.21-.409-.31-.608-.051-.1-.101-.2-.162-.299-.05-.1-.11-.2-.16-.289-.05-.1-.11-.19-.16-.289-.03-.05-.05-.1-.08-.15-.031-.05-.061-.089-.081-.139-.11-.189-.22-.378-.331-.558-.11-.189-.221-.368-.332-.548-.05-.09-.11-.179-.16-.268-.06-.09-.11-.18-.17-.26-.563-.876-1.215-1.653-1.837-2.38a.14.14 0 0 0-.02-.06 2.71 2.71 0 0 1-.16-.628c-.03-.249-.04-.518.03-.777s.22-.508.491-.707c0 0 .1-.14.23-.359.141-.22.322-.528.483-.857.34-.657.622-1.424.461-1.803-.32-.737-.441-1.425-1.033-2.52-.15-.28-.271-.628-.382-1.007-.1-.378-.18-.787-.24-1.175-.111-.777-.141-1.494-.07-1.763 0 0-.051.199-.141.528-.09.328-.231.787-.412 1.305-.351 1.026-.863 2.281-1.455 3.168-.23.348-.351.727-.381 1.105a3 3 0 0 0 .14 1.146c.231.757.703 1.475 1.204 2.032.13.14.231.29.332.429.09.15.17.289.23.438.12.29.201.568.241.807.01.08.02.14.02.22l-.602-.718c-.2-.259-2.258-2.52-3.733-4.134-.25-.439-.451-.967-.451-1.574 0-1.654-.693-3.736-2.64-4.175-2.458-.548-5.85-2.43-5.85-2.43.562.318 2.318 2.251 2.72 3.516.4 1.265.842 1.873 1.153 2.68.311.797 3.382 1.674 3.382 1.674.502-.01.944.19 1.325.468.532.787 2.137 3.108 2.569 3.626.26.31.522.628.793.967.24.299.481.617.732.946-.09-.03-.18-.07-.27-.11a2.76 2.76 0 0 1-.332-.179c-.12-.06-.23-.14-.351-.229a3.07 3.07 0 0 1-.341-.289 3.723 3.723 0 0 1-.321-.359c-.05-.07-.1-.139-.161-.199-.06-.07-.12-.13-.18-.199a4.593 4.593 0 0 0-.402-.369 3.55 3.55 0 0 0-.452-.328c-.16-.1-.32-.19-.491-.26-.673-.298-1.435-.378-2.168-.05-.933.42-2.178.748-3.181.987-.502.12-.953.21-1.275.279-.32.06-.511.1-.511.1.26-.04.923 0 1.625.14a8.96 8.96 0 0 1 1.054.258c.331.11.622.23.853.369.441.279.803.458 1.134.617.331.15.622.28.913.449.15.09.402.1.713.07.31-.03.672-.1 1.013-.17.683-.16 1.305-.349 1.305-.349.25-.169.522-.239.783-.239.26 0 .511.08.722.17.22.09.401.209.532.308.13.1.2.16.2.16l.02-.02c.472.648.954 1.325 1.426 2.062.05.08.11.17.16.26.06.079.11.168.16.258.111.17.212.349.322.528.1.18.21.359.311.548.03.05.05.09.08.14.03.05.05.09.08.14.05.099.101.188.151.278.05.1.1.19.16.279.051.1.101.19.151.289.1.19.201.388.301.588.1.199.191.398.291.597.05.1.09.2.14.31.051.109.091.208.141.308.04.1.09.21.14.309.041.11.091.21.131.319-.03-.02-.06-.04-.1-.07-.1-.08-.2-.16-.301-.26-.1-.089-.21-.198-.301-.318-.1-.11-.19-.239-.281-.378-.09-.14-.17-.28-.241-.439-.03-.08-.07-.16-.12-.239-.04-.08-.09-.16-.14-.239-.101-.16-.212-.309-.322-.468-.12-.15-.25-.29-.391-.419a1.82 1.82 0 0 0-.221-.189c-.07-.06-.15-.12-.231-.17a2.885 2.885 0 0 0-1.054-.438 2.58 2.58 0 0 0-1.194.06c-.532.15-1.134.27-1.736.379-.602.1-1.214.189-1.756.269-.271.03-.522.07-.753.1-.23.03-.431.06-.602.079-.341.04-.542.06-.542.06.271-.03.933.06 1.616.249.09.02.17.05.26.08.091.02.171.06.252.08.17.059.33.119.491.188.311.14.582.3.783.469.19.16.361.309.532.428l.24.18c.081.06.151.11.232.159.3.2.562.378.813.598.13.11.39.169.722.199a9.8 9.8 0 0 0 1.094.02c.753-.02 1.445-.07 1.445-.07.311-.12.612-.13.883-.07.07.02.13.03.2.06.061.02.121.05.181.08.12.06.231.13.332.209.19.15.35.309.461.438 0 .02.01.03.02.05.08.22.16.439.251.658.08.219.15.438.231.667.301.907.562 1.833.793 2.79.22.956.391 1.942.532 2.948l.09.758c0 .05 0 .11.02.159a3.7 3.7 0 0 1-.421-.707c-.03-.08-.06-.15-.09-.23-.03-.08-.061-.159-.081-.239a2.72 2.72 0 0 1-.11-.528 2.77 2.77 0 0 0-.12-.558 6.63 6.63 0 0 0-.191-.567 3.313 3.313 0 0 0-.282-.538 3.29 3.29 0 0 0-.35-.488 3.319 3.319 0 0 0-.432-.409c-.08-.06-.16-.12-.251-.17-.09-.05-.17-.099-.271-.139a2.674 2.674 0 0 0-1.245-.239h-.923c-.32 0-.652-.03-.973-.04a249.345 249.345 0 0 1-1.877-.12c-1.134-.079-2.007-.149-2.007-.149.14.01.382.07.653.16.27.1.592.229.923.398.16.08.32.18.471.27.15.099.311.198.452.298.14.11.26.22.371.319l.16.16c.02.03.051.05.071.079.02.03.04.06.06.08.14.209.281.398.422.567.13.17.25.32.371.459.251.279.462.528.652.817.05.07.14.14.251.209.11.06.261.13.422.19.32.119.732.228 1.124.318.391.09.772.17 1.053.23.281.059.462.089.462.089.361-.04.672.03.923.17.261.139.472.338.623.547.09.12.16.23.22.349v.02l.03.388c0 .13.01.26.02.379 0 .13.02.259.02.388 0 .13 0 .26.01.389.06 2.052-.11 4.154-.471 6.236l-.09.448-.06-.179c-.04-.15-.07-.309-.101-.478l-.03-.259c0-.09-.01-.18-.01-.269v-.279c0-.1.02-.19.03-.289.03-.2.05-.408.05-.608 0-.209 0-.418-.03-.637-.03-.21-.07-.419-.12-.628a3.757 3.757 0 0 0-.221-.597c-.09-.19-.2-.37-.321-.539a3.127 3.127 0 0 0-.432-.458 2.925 2.925 0 0 0-1.214-.578 23.565 23.565 0 0 1-1.937-.528c-.331-.1-.662-.209-.983-.308-.322-.1-.623-.2-.914-.3-.29-.089-.561-.179-.802-.248-.12-.04-.241-.07-.342-.11-.11-.03-.21-.07-.3-.1-.362-.12-.583-.199-.583-.199.07.03.16.07.271.13.05.03.11.06.17.1.061.04.121.07.192.119.13.08.26.17.4.279.071.05.141.1.212.16l.21.179c.07.06.14.13.211.189.07.06.14.13.2.2.131.139.252.278.372.417.11.14.21.29.291.429.04.07.08.14.11.21.03.069.06.139.08.198.041.13.091.25.131.359.04.11.08.22.13.329.04.1.091.199.131.299.04.1.08.189.12.279.04.09.08.179.121.259.04.09.07.169.11.249.07.169.141.328.191.508.05.179.271.378.582.588.301.209.683.428 1.054.627a37.392 37.392 0 0 0 1.455.737c.381.06.672.21.903.429.221.209.371.478.472.727.03.07.04.14.06.21a42.89 42.89 0 0 1-.462 2.032 41.865 41.865 0 0 1-.923 3.008 41.04 41.04 0 0 1-1.154 2.919v-.05c0-.17 0-.339.02-.518.02-.18.04-.368.09-.558.05-.189.1-.388.181-.587.321-.797.482-1.774.301-2.65a2.75 2.75 0 0 0-.19-.638c-.09-.2-.191-.398-.322-.578a2.892 2.892 0 0 0-1.093-.896 18.481 18.481 0 0 1-1.847-1.036c-.622-.38-1.234-.778-1.776-1.126a698.375 698.375 0 0 0-1.887-1.216c.13.09.331.27.542.518.11.12.22.26.331.419a9.122 9.122 0 0 1 .642 1.016c.1.18.191.368.261.548.07.18.14.358.181.528.04.17.07.329.08.478l.03.419c.01.129.03.258.05.378.03.24.07.458.111.668.07.408.15.777.17 1.175.01.2.191.458.442.747.13.15.281.3.442.448.16.15.32.3.492.449.33.289.672.558.913.757.13.1.23.18.3.24.071.059.111.089.111.089a1.669 1.669 0 0 1 1.044 1.066c.05.15.08.289.1.438v.06a35.792 35.792 0 0 1-4.185 6.984c-.04.06-.08.109-.13.159.03-.13.06-.25.11-.379a4.252 4.252 0 0 1 .572-1.106c.532-.747.924-1.713.954-2.66.01-.468-.06-.936-.251-1.364a2.928 2.928 0 0 0-.923-1.146c-.271-.21-.552-.438-.833-.687-.281-.24-.562-.508-.843-.767-.281-.26-.552-.529-.813-.788-.261-.259-.522-.508-.763-.747l-1.666-1.654c.06.06.13.15.201.26.07.11.15.239.24.398a7.432 7.432 0 0 1 .482 1.066c.08.2.141.399.201.608.06.209.11.418.14.617.02.1.03.2.05.3.011.099.021.188.021.278 0 .18 0 .359-.02.508-.03.15-.04.3-.06.439-.01.14-.03.269-.04.388-.01.13-.02.25-.02.359 0 .12-.01.229-.02.338 0 .11 0 .22-.01.32 0 .109-.01.198-.02.308 0 .1-.01.2-.02.299-.01.1-.03.2-.04.299-.021.1 0 .229.06.368.05.14.13.31.23.479.1.169.22.358.341.548a27.304 27.304 0 0 0 1.154 1.554c.201.259.342.428.342.428.36.23.572.528.682.837.11.289.12.598.09.877-.943 1.145-1.916 2.181-2.9 3.058a20.07 20.07 0 0 1-3.241 2.371l.16-.19c.261-.298.572-.587.964-.866a5.105 5.105 0 0 0 1.073-1.006 4.26 4.26 0 0 0 .713-1.305c.04-.12.07-.23.09-.349.02-.12.04-.239.05-.358 0-.12.01-.24.01-.36 0-.119-.02-.238-.04-.358a2.939 2.939 0 0 0-.21-.697 3.734 3.734 0 0 0-.422-.678 22.84 22.84 0 0 1-.672-.886c-.221-.31-.452-.638-.673-.967-.22-.318-.431-.647-.642-.966-.21-.309-.411-.618-.602-.907a97.84 97.84 0 0 0-.532-.796c-.16-.24-.31-.459-.431-.638l-.382-.568c.09.14.211.399.321.727.05.16.11.339.15.538.011.05.021.1.041.15 0 .05.02.1.03.15a6.73 6.73 0 0 1 .14.936c.02.209.02.418.02.617 0 .2-.02.389-.05.558-.01.09-.03.17-.05.25-.02.069-.05.149-.07.208-.03.07-.05.13-.08.2-.03.06-.05.12-.07.179-.04.12-.08.24-.12.349-.071.219-.131.428-.181.617-.03.1-.05.19-.08.28-.03.089-.05.179-.081.268-.01.04-.03.09-.04.13l-.02.07-.03.06c-.03.079-.07.169-.11.248-.02.04-.03.1-.04.16v.199c.01.15.05.329.09.528.09.389.23.857.37 1.305.141.458.282.887.382 1.206.11.318.17.527.17.527.252.36.352.718.332 1.066 0 .09-.01.17-.03.26l-.06.239c-.03.08-.06.159-.09.229 0 .01-.01.02-.02.03a14.53 14.53 0 0 1-1.526.687c-.12.04-.241.09-.362.13-.12.04-.23.08-.35.11-.111.029-.221.069-.332.099-.873.229-1.565.319-2.037.358-.06 0-.11 0-.17.01h-.371c-.121 0-1.767-.13-1.767-.13s-3.081-.149-3.864-.517c-.411-.19-.923-.17-1.244.13-.291.268-.07.756.1 1.514.361 1.613 1.726 2.55 1.516 3.945 0 0 1.043-1.544.26-2.85 0 0 .12-1.364 2.82-1.095 0 0 .382.02.823.05-.602.697-1.174 2.101.412 4.472 2.248 3.378 2.127 4.992 2.087 5.23.06-.368.673-4.413-.722-5.797-1.837-1.824-1.084-3.089-.191-3.846h.22c.06 0 .121 0 .191-.01.532-.04 1.315-.14 2.278-.398.12-.03.241-.07.372-.11.12-.04.25-.07.381-.12.13-.04.26-.09.401-.139.13-.05.271-.11.412-.16.421-.169.863-.378 1.304-.607.291.02.603.08.894.18.35.139.682.358.913.737 0 0 .18.139.481.348.302.2.723.468 1.185.707.23.12.471.24.722.34.251.099.492.189.733.248.471.12.923.16 1.224.04a5.5 5.5 0 0 1 .432-.15c.14-.04.26-.069.391-.099.25-.06.502-.1.763-.15.13-.03.27-.06.411-.099.07-.02.15-.04.22-.07.081-.02.151-.05.242-.08.16-.06.34-.129.532-.219.19-.09.391-.199.612-.328.22-.13.481-.24.772-.34.301-.099.623-.188.964-.268.351-.08.702-.15 1.074-.22.37-.059.742-.129 1.114-.178 1.475-.22 2.87-.37 3.291-.39 0 0-.08 0-.23-.009-.151 0-.372-.02-.643-.04-.27-.02-.602-.06-.953-.1-.362-.04-.763-.09-1.174-.159a24.1 24.1 0 0 1-2.62-.548 13.885 13.885 0 0 1-2.368-.837 5.847 5.847 0 0 0-1.716-.478 6.867 6.867 0 0 0-.903-.06c-.15 0-.301 0-.452.01-.15 0-.3.02-.441.03-.07 0-.15.02-.221.03-.07 0-.15.02-.22.03-.151.02-.292.05-.432.08s-.281.06-.422.1c-.14.04-.27.079-.401.129-.13.04-.261.09-.392.14-.13.05-.25.109-.371.169a7.85 7.85 0 0 0-.682.398c-.1.07-.211.15-.322.21-.11.06-.22.119-.33.169-.211.1-.432.18-.643.229a.75.75 0 0 1-.16.04c-.04 0-.09.02-.131.03a20.514 20.514 0 0 0 3.372-2.481 27.717 27.717 0 0 0 3.12-3.307c.121-.04.242-.09.382-.11.17-.04.352-.06.532-.06.361 0 .743.08 1.094.329 0 0 .05.02.15.04.09.03.231.06.402.11.341.079.803.189 1.304.258.492.08 1.024.13 1.476.11.11 0 .23-.01.33-.02.101-.01.201-.03.292-.05.18-.05.331-.11.451-.2.11-.089.221-.168.322-.228.1-.07.21-.13.31-.19.101-.06.201-.11.312-.169.1-.05.21-.11.31-.17a6.218 6.218 0 0 0 1.536-1.165c.311-.319.793-.617 1.345-.906.281-.14.572-.28.883-.419.301-.14.622-.269.933-.388.312-.12.613-.24.914-.349.29-.11.572-.2.823-.299.501-.17.893-.299 1.093-.339l-.22.03c-.141.02-.342.05-.603.08-.25.03-.552.07-.893.11-.34.04-.712.07-1.104.09-.401.03-.813.05-1.234.06h-1.285c-.21 0-.421-.02-.632-.03-.21-.02-.411-.03-.622-.05-.401-.04-.783-.09-1.134-.16a4.025 4.025 0 0 0-.843-.08c-.28 0-.562.01-.843.05a6.34 6.34 0 0 0-1.605.448c-1.014.439-1.887 1.086-2.439 1.883-.14.2-.291.379-.442.538-.16.16-.32.3-.491.419-.09.07-.18.12-.271.169a37.899 37.899 0 0 0 3.221-4.991c.422-.777.813-1.594 1.194-2.421.251-.17.532-.319.853-.399.17-.04.351-.06.532-.06.18 0 .371.05.562.12 0 0 .863.05 1.817-.02.481-.03.973-.1 1.394-.209.422-.11.763-.259.924-.468.08-.1.16-.19.24-.279.08-.09.161-.17.241-.24.16-.149.332-.298.502-.457.17-.16.351-.34.552-.568.19-.23.391-.498.612-.857.11-.18.251-.359.422-.548.18-.18.371-.369.592-.558.11-.09.22-.19.341-.279.11-.09.23-.189.361-.279.241-.189.502-.368.753-.548.25-.179.502-.348.742-.508.241-.16.462-.309.673-.438.21-.13.391-.25.552-.339.15-.09.28-.16.361-.209l-.19.08.04-.07ZM36.669 62.564c-.783.358-3.864.518-3.864.518s-1.645.13-1.766.13h-.371c-.05 0-.11 0-.17-.01-.472-.03-1.175-.12-2.038-.36-.11-.03-.22-.07-.331-.099-.11-.03-.23-.07-.351-.11-.12-.04-.241-.08-.362-.13l-.37-.148c-.372-.15-.764-.34-1.155-.538 0-.01-.01-.02-.02-.03-.04-.08-.07-.15-.09-.23-.03-.08-.05-.159-.06-.239-.02-.08-.02-.169-.03-.259-.01-.348.08-.707.33-1.066 0 0 .07-.209.171-.528.1-.318.24-.747.381-1.205a19.2 19.2 0 0 0 .372-1.305c.05-.2.08-.379.09-.528v-.2c0-.06-.02-.109-.04-.159-.04-.09-.07-.17-.1-.249l-.02-.06-.02-.07s-.03-.089-.04-.129c-.03-.09-.05-.18-.081-.269-.03-.09-.05-.19-.08-.279a6.992 6.992 0 0 0-.19-.617c-.041-.11-.071-.23-.121-.35-.02-.059-.05-.119-.07-.178-.02-.06-.05-.13-.08-.2-.031-.07-.051-.14-.071-.209-.02-.08-.04-.16-.05-.249-.03-.18-.05-.359-.05-.558 0-.2 0-.398.02-.618.02-.209.04-.418.08-.627l.06-.309.03-.15.03-.149c.05-.2.1-.378.15-.538.111-.328.222-.588.322-.727 0 0-.14.22-.381.568-.12.18-.261.398-.432.637-.16.24-.341.518-.532.797-.19.29-.391.598-.602.907-.21.319-.431.648-.642.966-.22.33-.442.658-.672.967-.221.309-.452.607-.673.886-.18.22-.321.439-.421.678-.11.229-.171.458-.211.697-.02.12-.03.24-.04.359 0 .12 0 .239.01.358.01.12.03.24.05.359.02.12.06.23.09.349.15.468.402.906.713 1.305.31.388.682.747 1.073 1.006.382.269.703.568.964.867.05.06.1.13.16.189a20.522 20.522 0 0 1-3.24-2.371c-.984-.877-1.958-1.913-2.901-3.059-.02-.288-.01-.587.09-.876.11-.319.331-.608.683-.837 0 0 .14-.17.34-.428.212-.26.482-.608.753-.987.141-.189.271-.378.402-.567.13-.19.24-.38.341-.548.1-.18.18-.34.23-.479a.88.88 0 0 0 .061-.368c-.02-.1-.03-.2-.04-.3-.01-.099-.02-.198-.02-.298 0-.1-.01-.2-.02-.309 0-.1 0-.209-.01-.319 0-.11 0-.219-.02-.338 0-.11-.01-.24-.02-.359-.01-.13-.03-.259-.04-.389-.02-.139-.03-.278-.06-.438-.03-.15-.03-.319-.02-.508a3.057 3.057 0 0 1 .07-.578c.04-.199.08-.408.14-.617.06-.21.12-.409.2-.608a7.675 7.675 0 0 1 .482-1.066c.08-.15.16-.279.241-.399.08-.11.14-.199.2-.259 0 0-.722.728-1.665 1.654-.24.24-.492.488-.763.747-.27.26-.541.518-.813.787-.28.26-.561.518-.842.767-.281.25-.562.479-.833.688a2.928 2.928 0 0 0-.924 1.145c-.19.429-.26.897-.25 1.365.03.947.431 1.913.953 2.66.13.19.24.369.341.558.1.19.17.369.23.548.051.13.081.26.111.379l-.13-.16a35.792 35.792 0 0 1-4.185-6.983v-.06c.02-.15.05-.289.1-.438.05-.15.12-.29.211-.429.18-.269.442-.498.833-.637 0 0 .04-.03.11-.09s.171-.14.302-.24c.25-.198.582-.467.913-.756.17-.15.33-.3.492-.449.16-.149.31-.298.441-.448.261-.289.432-.548.442-.747.02-.398.1-.767.17-1.176.04-.209.08-.428.11-.667.02-.12.03-.25.05-.379l.03-.418c.01-.15.041-.309.081-.478.05-.17.11-.349.18-.528.071-.18.161-.369.262-.548a8.807 8.807 0 0 1 .642-1.016c.11-.15.23-.29.331-.419.21-.249.412-.428.542-.518 0 0-.823.528-1.887 1.216-.541.348-1.154.747-1.776 1.125a23.56 23.56 0 0 1-1.846 1.036c-.462.23-.833.529-1.094.897-.13.18-.241.379-.331.578-.09.21-.15.418-.191.638-.17.886-.02 1.852.301 2.65.08.199.14.398.18.587.05.19.08.379.091.558.02.18.02.359.02.518v.05a39.3 39.3 0 0 1-1.154-2.919 38.668 38.668 0 0 1-.923-3.009 29.656 29.656 0 0 1-.462-2.032l.06-.21c.1-.258.251-.517.472-.726.22-.21.522-.369.903-.429 0 0 .18-.08.452-.219.27-.13.632-.319 1.003-.518.372-.2.753-.418 1.054-.628.301-.209.522-.418.582-.587.05-.18.12-.34.19-.508.04-.08.071-.17.111-.25.04-.08.08-.169.12-.258.04-.09.08-.18.12-.28.041-.1.091-.189.131-.298.04-.11.09-.21.13-.33.041-.119.091-.238.131-.358a2.09 2.09 0 0 1 .19-.408c.081-.14.182-.28.292-.429.11-.14.24-.278.371-.418.06-.07.13-.13.201-.2.07-.059.14-.129.21-.189l.212-.179c.07-.06.14-.11.21-.16.14-.109.281-.199.402-.278.07-.04.13-.08.19-.12.06-.04.12-.07.17-.1a3.12 3.12 0 0 1 .272-.129s-.22.07-.582.2c-.09.03-.19.06-.301.099-.11.03-.221.07-.341.11-.241.08-.522.159-.803.249-.291.09-.592.189-.914.298-.32.1-.652.21-.983.31a21.09 21.09 0 0 1-1.937.527c-.481.11-.883.31-1.214.578-.17.14-.311.29-.431.458-.131.17-.241.35-.322.538-.09.19-.17.399-.22.598a6.9 6.9 0 0 0-.12.628 6.79 6.79 0 0 0-.03.637c0 .21.02.409.05.608l.03.289c0 .1.01.19 0 .279 0 .09 0 .18-.01.269 0 .09-.01.17-.03.259a3.33 3.33 0 0 1-.101.478l-.06.18-.09-.449a31.148 31.148 0 0 1-.472-6.236c0-.13 0-.26.01-.389 0-.13.01-.259.02-.388 0-.13.02-.25.02-.379l.03-.388v-.02c.06-.11.13-.23.22-.35.151-.208.362-.407.623-.547.26-.14.562-.21.923-.17 0 0 .18-.03.462-.089.28-.06.652-.14 1.053-.23.392-.099.793-.198 1.124-.318.161-.06.312-.12.422-.19.12-.059.21-.129.25-.208.191-.29.402-.538.653-.817.12-.14.24-.29.371-.459.14-.169.271-.348.422-.567.02-.02.04-.05.06-.08a.5.5 0 0 1 .07-.08c.05-.06.1-.11.16-.16.111-.109.242-.218.372-.318.14-.1.291-.21.442-.299.16-.1.31-.19.471-.269a8.19 8.19 0 0 1 .924-.398c.28-.1.512-.15.652-.16 0 0-.873.06-2.007.15l-.913.06c-.311.02-.643.05-.964.06-.32.02-.652.03-.973.039h-.923c-.462-.02-.873.07-1.245.24-.09.039-.18.089-.27.139-.091.05-.171.11-.242.169-.16.12-.3.259-.441.408-.14.15-.251.32-.351.489-.1.169-.201.358-.281.538a6.63 6.63 0 0 0-.191.567 6.3 6.3 0 0 0-.12.558c-.02.19-.06.359-.11.528-.02.08-.051.16-.081.24-.03.08-.06.149-.09.229-.12.268-.271.508-.412.707 0-.05 0-.1.02-.16l.09-.757a29.968 29.968 0 0 1 1.325-5.738c.08-.23.16-.448.231-.668.08-.219.17-.438.25-.657 0-.02.01-.03.021-.05.1-.13.26-.289.462-.438.1-.07.21-.15.33-.21.061-.03.121-.06.181-.079.06-.02.13-.04.201-.06.271-.06.562-.06.883.07 0 0 .693.06 1.445.07.382.01.773 0 1.094-.02.331-.03.592-.09.713-.2.25-.219.511-.398.813-.597.07-.05.15-.1.23-.16l.241-.179c.17-.12.341-.269.532-.428.19-.17.462-.32.783-.469.16-.07.32-.13.491-.189.09-.03.171-.06.251-.08.09-.03.171-.05.261-.08.683-.188 1.345-.278 1.616-.248 0 0-.2-.02-.542-.06-.17-.02-.371-.05-.602-.08-.23-.03-.482-.07-.753-.1a35.63 35.63 0 0 1-1.756-.268 16.76 16.76 0 0 1-1.736-.379 2.574 2.574 0 0 0-1.194-.06c-.381.07-.733.23-1.054.439-.08.06-.16.11-.23.169-.07.06-.151.12-.222.19a3.769 3.769 0 0 0-.712.886c-.05.08-.1.16-.14.239l-.12.24a2.601 2.601 0 0 1-.242.437c-.09.14-.18.26-.28.379-.101.11-.201.22-.302.319-.1.09-.2.18-.3.259a.364.364 0 0 1-.101.07c.04-.11.09-.21.13-.32.04-.109.09-.208.14-.308.05-.11.091-.21.141-.309.05-.1.09-.21.14-.309.101-.199.191-.398.292-.598.1-.199.2-.388.3-.587.051-.1.101-.19.151-.29.05-.089.1-.188.16-.278.051-.09.101-.19.152-.279.03-.05.05-.09.08-.14.03-.05.05-.09.08-.139.11-.19.21-.369.321-.548.11-.18.22-.359.321-.528.05-.09.1-.18.16-.259.051-.09.111-.17.161-.259.472-.737.954-1.425 1.425-2.062l.02.02s.07-.07.201-.16c.13-.1.311-.209.532-.309.22-.1.462-.169.723-.169.26 0 .532.06.782.24 0 0 .623.189 1.305.348.341.08.702.15 1.014.17.31.03.571.02.712-.07.291-.17.582-.3.913-.449.321-.16.693-.338 1.134-.617.221-.14.522-.27.853-.369.331-.11.693-.19 1.044-.259.702-.13 1.375-.19 1.626-.14 0 0-.191-.03-.512-.1a27.96 27.96 0 0 1-1.275-.278c-1.013-.24-2.258-.568-3.18-.986-.733-.33-1.496-.25-2.168.05a3.923 3.923 0 0 0-.944.587c-.14.12-.27.24-.401.369-.06.06-.12.13-.18.2-.061.059-.111.129-.161.198a3.494 3.494 0 0 1-.662.648c-.121.08-.232.16-.352.23-.12.069-.23.129-.331.178-.1.04-.19.08-.271.11.25-.329.492-.648.732-.947.271-.338.542-.667.793-.966.432-.518 2.027-2.84 2.57-3.626.37-.279.822-.478 1.324-.468 0 0 3.07-.877 3.382-1.674.31-.797.753-1.415 1.154-2.68.401-1.265 2.158-3.198 2.72-3.517 0 0-3.382 1.883-5.851 2.431-1.947.439-2.64 2.52-2.64 4.174 0 .608-.2 1.146-.451 1.575-1.475 1.613-3.532 3.885-3.733 4.134-.18.229-.392.478-.602.717 0-.07.01-.14.02-.219.04-.25.12-.518.24-.807.06-.15.141-.289.231-.438.09-.14.201-.29.322-.429.501-.568.973-1.275 1.204-2.032a3 3 0 0 0 .14-1.146 2.36 2.36 0 0 0-.381-1.105c-.592-.887-1.104-2.142-1.455-3.168a60.8 60.8 0 0 1-.412-1.306c-.09-.328-.14-.528-.14-.528.07.27.04.977-.07 1.764-.06.388-.14.797-.241 1.175-.1.379-.23.728-.371 1.007-.592 1.095-.713 1.783-1.034 2.52-.16.379.12 1.136.462 1.803.17.329.35.638.481.857.14.22.231.359.231.359.271.199.412.448.492.707.07.259.06.528.03.777s-.1.468-.16.628c0 .03-.02.04-.02.06-.623.727-1.275 1.504-1.837 2.38-.06.09-.11.18-.17.26-.061.089-.111.179-.171.268-.11.18-.221.359-.332.548-.11.19-.22.369-.32.558-.03.05-.05.09-.081.14-.03.05-.05.1-.08.15-.05.099-.1.188-.16.288-.051.1-.111.2-.161.289-.05.1-.1.2-.16.299-.101.199-.212.398-.312.607-.1.21-.2.419-.301.618-.05.11-.1.21-.14.319-.05.11-.1.21-.141.319a.2.2 0 0 1-.04.08c0-.19 0-.39.03-.608.01-.08.03-.16.05-.25.02-.08.04-.169.07-.248.06-.17.13-.35.221-.519.19-.348.341-.737.462-1.135.03-.1.06-.2.08-.299.02-.11.04-.21.06-.309.04-.21.06-.418.07-.628 0-.209 0-.418-.02-.627-.02-.21-.07-.409-.13-.608a2.73 2.73 0 0 0-.642-1.096 7.894 7.894 0 0 1-.582-.687 15.47 15.47 0 0 1-.552-.787 11.947 11.947 0 0 1-.502-.837c-.16-.279-.301-.558-.442-.827a23.695 23.695 0 0 1-.622-1.375c-.14-.348-.22-.567-.22-.567.05.149.1.428.13.787.04.358.07.797.08 1.255.03.926 0 1.923-.22 2.6-.05.17-.101.319-.141.468-.04.15-.07.29-.09.419a7.6 7.6 0 0 0-.11.727c-.02.229-.041.438-.061.637-.01.1-.02.21-.04.31-.01.099-.03.209-.05.318-.04.22.06.518.23.827.181.319.432.648.693.956.26.31.522.578.722.777.201.19.342.32.342.32.33.139.552.358.692.607.15.249.21.528.25.787 0 .07 0 .12.011.19-.09.218-.19.438-.271.667-.09.229-.17.448-.26.677l-.242.688a37.078 37.078 0 0 0-.823 2.889c-.22.996-.401 2.012-.542 3.048-.02.14-.03.279-.05.418a3.7 3.7 0 0 1-.13-.527 3.11 3.11 0 0 1-.03-.538c0-.09 0-.19.01-.29 0-.099.02-.199.04-.298.04-.2.07-.409.08-.628v-.647c-.01-.22-.04-.439-.08-.658a4.7 4.7 0 0 0-.16-.648 4.496 4.496 0 0 0-.593-1.205 3.468 3.468 0 0 0-1.014-.947 11.234 11.234 0 0 1-1.615-1.215 16.897 16.897 0 0 1-1.465-1.474c-.22-.25-.412-.478-.592-.698-.18-.219-.331-.418-.452-.577l-.401-.548c.09.14.22.438.381.817.08.189.16.398.24.627.091.23.172.469.262.708.04.12.08.249.12.368.04.12.08.25.12.369.081.249.151.508.211.747.03.12.06.239.08.359.03.12.05.229.06.338.031.22.051.429.051.618v.528c0 .16.02.309.04.448.02.14.03.27.05.399.02.12.05.239.07.358.101.449.201.817.272 1.296.03.229.22.508.501.777s.643.528 1.004.767c.361.229.712.428.983.567.13.07.241.13.322.16l.12.06c.381.04.672.199.893.408.23.21.391.468.502.717.02.03.02.06.04.09 0 .04 0 .08-.01.12 0 .13-.02.259-.03.398l-.03.399c0 .13-.02.259-.02.398 0 .13-.02.27-.02.399 0 .13 0 .269-.01.398a32.54 32.54 0 0 0 .481 6.446c0 .02 0 .04.01.06-.08-.13-.17-.27-.24-.419a3.565 3.565 0 0 1-.332-1.146c-.1-.856-.461-1.753-1.033-2.53a4.743 4.743 0 0 0-1.024-1.026c-.2-.15-.411-.28-.632-.389a3.3 3.3 0 0 0-.703-.269c-.31-.09-.642-.199-.983-.328l-.512-.21-.512-.239a18.309 18.309 0 0 1-2.79-1.653c-.25-.17-.461-.32-.642-.459a55.934 55.934 0 0 1-.582-.438c.13.12.371.378.663.717.14.17.3.369.471.578.08.1.17.21.251.329.08.11.17.229.261.338.17.23.351.469.512.708.17.239.33.468.471.707.14.23.281.458.392.668.11.219.19.418.25.607.06.19.111.369.171.528.06.16.12.3.18.439.121.259.242.478.362.677.12.2.241.379.351.568.11.19.221.379.322.608.1.229.38.448.752.637.18.1.382.19.592.27.211.079.432.149.653.218.431.13.853.23 1.164.3.31.069.521.099.521.099.392-.06.743.02 1.034.17.15.069.281.169.402.268a3.355 3.355 0 0 1 .35.339c.161.817.342 1.644.553 2.45.27 1.047.592 2.083.953 3.099.321.916.672 1.803 1.054 2.68a3.905 3.905 0 0 1-.923-1.395c-.322-.857-.954-1.664-1.777-2.281a5.502 5.502 0 0 0-1.365-.757 4.56 4.56 0 0 0-1.555-.32c-.692-.01-1.475-.109-2.268-.258l-.602-.12c-.2-.04-.391-.09-.592-.14a51.786 51.786 0 0 1-1.134-.298 24.777 24.777 0 0 1-1.796-.598c-.231-.08-.402-.15-.532-.2L0 41.275c.08.04.21.11.361.21.15.09.341.209.552.338.21.13.432.28.673.438a35.733 35.733 0 0 1 1.495 1.056c.12.09.24.19.361.28.12.1.23.189.341.278.221.19.422.379.592.558.171.19.322.369.422.548.22.349.421.628.612.857.19.23.371.398.552.568.17.16.341.299.502.458l.24.24c.08.089.161.178.241.278.161.2.502.359.924.468.421.11.913.17 1.395.21.953.07 1.816.02 1.816.02.19-.08.381-.12.562-.12.18 0 .361.01.532.06.32.08.602.229.853.398.371.827.773 1.634 1.194 2.421a35.938 35.938 0 0 0 3.221 4.991c-.09-.06-.18-.11-.27-.17a4.586 4.586 0 0 1-.492-.418 3.966 3.966 0 0 1-.442-.538c-.552-.797-1.425-1.444-2.438-1.883a6.727 6.727 0 0 0-1.606-.448 4.8 4.8 0 0 0-.843-.05c-.281 0-.562.03-.843.08-.351.07-.733.12-1.134.16-.2.02-.411.04-.622.05l-.632.03c-.422.01-.863.01-1.285 0-.431 0-.843-.03-1.234-.06-.392-.02-.773-.06-1.104-.09-.341-.03-.642-.07-.893-.11-.251-.03-.452-.06-.602-.08l-.221-.03c.19.05.592.17 1.094.34.25.089.531.189.823.298.29.11.592.23.913.349.31.12.622.249.933.388.311.13.602.27.883.419.562.289 1.034.588 1.345.906.622.638 1.104.937 1.535 1.166.11.06.211.11.311.17.1.06.201.109.311.169.1.06.201.12.311.189.1.07.211.15.322.23.11.089.26.148.451.198.09.02.19.04.291.05.1.01.221.02.331.02.462.02.984-.03 1.476-.11.491-.08.963-.179 1.304-.259.17-.04.311-.08.402-.11.1-.029.15-.039.15-.039a1.778 1.778 0 0 1 1.094-.329c.18 0 .361.02.532.06.13.03.25.07.381.11a29.314 29.314 0 0 0 3.121 3.307 21.397 21.397 0 0 0 3.372 2.48c-.04 0-.09-.02-.13-.03-.05-.01-.1-.029-.161-.039a4.14 4.14 0 0 1-.642-.23 3.05 3.05 0 0 1-.321-.169 3.028 3.028 0 0 1-.322-.209 3.82 3.82 0 0 0-.682-.398c-.12-.06-.24-.12-.371-.17a5.39 5.39 0 0 0-.392-.139c-.13-.05-.26-.09-.401-.13-.14-.04-.281-.07-.422-.1-.14-.029-.28-.059-.431-.079l-.22-.03c-.071 0-.141-.02-.222-.03-.15-.02-.29-.03-.441-.03-.15 0-.301-.01-.452-.01-.3 0-.602.02-.903.06-.592.07-1.174.23-1.706.479-.672.318-1.495.607-2.368.836a23.62 23.62 0 0 1-2.62.548c-.41.06-.812.12-1.174.16-.36.04-.682.07-.953.1-.27.02-.492.04-.642.04-.15 0-.231.01-.231.01.432.019 1.816.169 3.292.388l1.114.179c.37.07.732.14 1.073.22.351.079.663.169.964.268.3.1.552.22.772.339.221.13.422.239.613.329a6.581 6.581 0 0 0 .772.299c.08.02.15.05.221.07.14.039.281.069.412.099.26.06.511.1.762.15.13.03.251.059.392.099.14.04.28.09.431.15.301.119.753.089 1.224-.04a5.8 5.8 0 0 0 .733-.25c.24-.1.492-.219.723-.338.461-.24.883-.508 1.184-.708.3-.199.481-.348.481-.348.231-.369.562-.598.914-.737.29-.11.592-.16.893-.18.451.23.893.438 1.304.608.14.06.271.11.412.16.14.049.27.099.401.139.13.05.261.08.381.12.131.04.251.079.372.109.963.259 1.746.359 2.278.398.07 0 .13 0 .19.01h.221c.893.757 1.646 2.023-.19 3.846-1.395 1.385-.783 5.43-.723 5.798-.03-.24-.16-1.853 2.087-5.23 1.586-2.371 1.014-3.776.412-4.474.441-.02.823-.05.823-.05 2.7-.268 2.82 1.097 2.82 1.097-.783 1.295.26 2.849.26 2.849-.21-1.395 1.145-2.331 1.516-3.945.17-.757.381-1.246.1-1.515-.33-.308-.833-.328-1.244-.13l.02.07Z" fill="#EFB967"/></svg>