<svg width="39" height="74" fill="none" xmlns="http://www.w3.org/2000/svg"><path d="M38.81 41.433c-.121.05-.302.12-.533.2-.451.169-1.083.388-1.796.597-.361.11-.742.21-1.134.3-.19.049-.391.089-.592.139l-.602.12c-.803.148-1.586.238-2.268.258a4.56 4.56 0 0 0-1.556.319 5.64 5.64 0 0 0-1.354.757c-.823.628-1.455 1.435-1.777 2.281a3.863 3.863 0 0 1-.923 1.395 41.25 41.25 0 0 0 1.054-2.68 39.71 39.71 0 0 0 .953-3.098c.211-.807.392-1.624.552-2.45 0 0 0-.01.02-.02a2.71 2.71 0 0 1 .732-.588 1.68 1.68 0 0 1 1.035-.17s.2-.03.521-.1c.311-.07.733-.169 1.164-.298.221-.07.442-.14.653-.22.21-.08.411-.169.592-.268.361-.19.652-.409.752-.638.1-.23.211-.428.322-.608.11-.189.23-.368.35-.568.121-.199.242-.418.362-.677.06-.13.12-.279.18-.438.06-.16.111-.33.171-.528.06-.19.14-.399.251-.608.11-.22.241-.438.392-.667.14-.23.3-.469.471-.708.16-.239.341-.478.512-.707.09-.12.17-.23.261-.339.08-.11.17-.22.25-.329.161-.209.332-.418.472-.577.292-.34.522-.598.663-.718 0 0-.21.17-.582.439-.18.13-.402.288-.642.458-.251.17-.532.358-.823.558-.592.378-1.275.767-1.967 1.096l-.512.239c-.17.07-.351.14-.522.209-.341.13-.672.239-.983.329-.251.07-.482.159-.703.269-.22.11-.431.239-.632.388a5.24 5.24 0 0 0-1.024 1.026c-.572.767-.933 1.664-1.033 2.53-.04.43-.17.808-.331 1.146-.07.15-.161.29-.241.419 0-.02 0-.04.01-.06.371-2.142.552-4.314.481-6.446 0-.13 0-.269-.01-.398 0-.13-.01-.27-.02-.399 0-.13-.02-.269-.02-.398l-.03-.399-.03-.398c0-.04 0-.08-.01-.12.01-.03.02-.06.04-.09.12-.248.281-.507.502-.717a1.55 1.55 0 0 1 .893-.408l.12-.06c.08-.04.191-.09.322-.16.27-.139.622-.338.983-.567a6.7 6.7 0 0 0 1.004-.767c.27-.27.471-.538.501-.777.06-.468.16-.847.271-1.295.03-.11.05-.23.07-.359.02-.12.04-.259.05-.398.02-.14.03-.29.04-.449 0-.16.02-.338 0-.528 0-.189.01-.398.051-.617.02-.11.04-.22.06-.34.02-.119.05-.238.08-.358.06-.239.131-.488.211-.747l.12-.369c.04-.129.081-.249.121-.368.08-.25.17-.488.261-.708.08-.229.16-.438.24-.627.151-.379.292-.678.382-.817 0 0-.14.21-.401.548-.13.17-.281.369-.452.578-.18.219-.371.448-.592.697a18.436 18.436 0 0 1-1.465 1.474c-.532.479-1.094.897-1.616 1.216a3.47 3.47 0 0 0-1.013.946 4.48 4.48 0 0 0-.592 1.206c-.07.209-.12.428-.16.647-.041.22-.071.439-.081.658v.647c.01.21.04.419.08.628.02.1.03.2.04.299 0 .1.01.2.01.289 0 .19-.01.368-.03.538a3.7 3.7 0 0 1-.13.528c-.02-.14-.03-.28-.05-.419a37.16 37.16 0 0 0-.542-3.048 33.118 33.118 0 0 0-.823-2.89l-.241-.687c-.09-.229-.17-.448-.261-.677-.08-.23-.18-.448-.271-.668 0-.06 0-.119.01-.189.04-.259.11-.538.25-.787.152-.249.362-.468.693-.607 0 0 .14-.12.342-.32.2-.198.461-.468.722-.776.261-.3.512-.638.692-.957.171-.309.271-.607.231-.827-.02-.11-.03-.219-.05-.318-.01-.11-.03-.21-.04-.31l-.06-.637c-.03-.219-.06-.458-.11-.727-.03-.13-.06-.27-.09-.418a13.26 13.26 0 0 0-.141-.469c-.211-.667-.251-1.673-.221-2.6.01-.458.04-.896.08-1.255.03-.359.08-.638.13-.787 0 0-.08.219-.22.568-.14.348-.362.837-.622 1.374-.13.27-.281.548-.442.827-.16.28-.331.568-.512.837-.18.27-.361.538-.552.787-.19.25-.391.488-.582.688a2.85 2.85 0 0 0-.642 1.095c-.06.2-.11.399-.13.608-.03.21-.03.409-.02.628 0 .209.03.418.07.627.02.11.04.21.06.31.02.099.05.198.08.298.12.399.271.787.462 1.136a3.215 3.215 0 0 1 .341 1.016c.03.22.04.418.03.608-.01-.03-.03-.06-.04-.08-.05-.11-.1-.22-.14-.319-.05-.11-.09-.209-.151-.319-.1-.209-.2-.418-.301-.617-.1-.21-.21-.409-.311-.608-.05-.1-.1-.2-.16-.299-.05-.1-.111-.2-.161-.289-.05-.1-.11-.189-.16-.289-.03-.05-.051-.1-.081-.15-.03-.049-.06-.089-.08-.139a23.44 23.44 0 0 0-.332-.557c-.11-.19-.22-.369-.33-.548-.05-.09-.111-.18-.161-.27-.06-.089-.11-.179-.17-.258-.563-.877-1.215-1.654-1.837-2.381 0-.02-.01-.04-.02-.06a2.71 2.71 0 0 1-.161-.628c-.03-.249-.04-.518.03-.777s.22-.508.492-.707c0 0 .1-.14.23-.359.141-.219.322-.528.482-.857.341-.657.622-1.424.462-1.803-.321-.737-.442-1.424-1.034-2.52-.15-.28-.27-.628-.381-1.006-.1-.379-.18-.787-.24-1.176-.111-.777-.141-1.494-.071-1.763 0 0-.05.199-.14.528-.09.329-.231.787-.412 1.305-.351 1.026-.863 2.281-1.455 3.168a2.319 2.319 0 0 0-.381 1.106 3 3 0 0 0 .14 1.145c.23.757.703 1.475 1.204 2.033.13.14.231.288.331.428.09.15.171.289.231.438.12.29.2.568.241.807.01.08.02.14.02.22l-.602-.718c-.2-.259-2.258-2.52-3.733-4.134-.251-.439-.452-.967-.452-1.574 0-1.654-.692-3.736-2.639-4.174C12.095 1.943 8.704.06 8.704.06c.561.319 2.318 2.251 2.719 3.516.401 1.266.843 1.873 1.154 2.68.311.797 3.382 1.674 3.382 1.674.502-.01.943.19 1.325.468.532.787 2.137 3.108 2.569 3.627.26.308.521.627.792.966.241.299.482.617.733.946-.09-.03-.18-.07-.27-.11a2.626 2.626 0 0 1-.332-.179c-.12-.06-.23-.14-.351-.229-.12-.09-.231-.18-.341-.289a3.73 3.73 0 0 1-.322-.358c-.05-.07-.1-.14-.16-.2-.06-.07-.12-.13-.18-.199-.121-.13-.262-.249-.402-.368a3.72 3.72 0 0 0-.452-.33 3.31 3.31 0 0 0-.492-.258c-.672-.3-1.435-.379-2.167-.05-.934.418-2.178.747-3.181.986-.502.12-.954.21-1.275.28-.321.059-.512.099-.512.099.261-.04.924 0 1.626.14.361.069.713.149 1.054.258.33.11.622.23.853.369.441.279.803.458 1.134.618.33.149.622.278.913.448.15.09.401.1.712.07.311-.03.673-.1 1.014-.17.682-.16 1.305-.348 1.305-.348.25-.17.521-.24.782-.24s.512.08.723.17c.22.09.401.209.532.309.13.1.2.16.2.16l.02-.02c.472.647.954 1.324 1.425 2.061.05.08.11.17.161.26.06.079.11.169.16.258.111.17.211.35.322.528.1.18.21.359.31.548.031.05.051.09.081.14.03.05.05.09.08.14.05.099.1.188.151.278.05.1.1.19.16.28.05.099.1.188.151.288.1.19.2.389.301.588.1.2.19.398.291.598.05.1.09.199.14.308.05.11.091.21.141.31.04.099.09.208.14.308.04.11.091.21.131.319-.03-.02-.06-.04-.1-.07-.1-.08-.201-.16-.301-.259-.1-.09-.211-.2-.301-.319-.1-.11-.191-.239-.281-.378-.09-.14-.171-.28-.241-.439a1.34 1.34 0 0 0-.12-.239c-.04-.08-.09-.16-.141-.239-.1-.16-.21-.309-.321-.468a3.79 3.79 0 0 0-.392-.419c-.07-.07-.14-.129-.22-.189-.07-.06-.15-.12-.231-.17a2.886 2.886 0 0 0-1.054-.437 2.58 2.58 0 0 0-1.194.06 19.85 19.85 0 0 1-1.736.378c-.602.1-1.215.19-1.756.269-.271.03-.522.07-.753.1-.23.03-.432.06-.602.08-.341.04-.542.059-.542.059.27-.03.933.06 1.616.249.09.02.17.05.26.08.09.02.171.06.251.08.171.06.332.119.492.189.311.14.582.299.783.468.19.16.361.309.532.428l.24.18c.08.06.151.11.231.159.302.2.562.379.813.598.13.11.392.17.723.199.331.03.722.03 1.094.02a36.21 36.21 0 0 0 1.445-.07c.31-.12.612-.13.883-.07.07.02.13.03.2.06a1.86 1.86 0 0 1 .512.29c.191.149.352.308.462.438 0 .02.01.03.02.05.08.218.16.438.25.657.081.219.151.438.232.667.3.907.562 1.833.793 2.79.22.956.39 1.942.531 2.949l.09.757c0 .05 0 .11.02.16-.15-.2-.3-.44-.42-.708-.03-.08-.06-.15-.091-.23a2.219 2.219 0 0 1-.08-.238 2.73 2.73 0 0 1-.11-.528 2.77 2.77 0 0 0-.121-.558c-.05-.19-.12-.379-.19-.568a3.393 3.393 0 0 0-.282-.538c-.1-.17-.22-.339-.351-.488a3.324 3.324 0 0 0-.431-.409c-.08-.06-.161-.12-.251-.17-.09-.049-.171-.099-.271-.139a2.674 2.674 0 0 0-1.245-.239h-.923c-.321 0-.652-.03-.973-.04l-.964-.06-.913-.06c-1.134-.079-2.007-.148-2.007-.148.14.01.381.07.652.159.271.1.592.229.923.398.161.08.322.18.472.27.15.099.311.199.452.298.14.11.26.22.371.319l.16.16c.02.03.05.05.07.08.02.029.041.059.061.079.14.209.281.398.422.568.13.169.25.319.37.458.252.279.462.528.653.817.05.07.14.14.251.21.11.059.26.129.422.188.32.12.732.23 1.123.32.392.089.773.168 1.054.228s.462.09.462.09c.361-.04.672.03.923.17.261.139.472.338.622.547.09.12.16.23.221.349v.02l.03.388c0 .13.01.26.02.379 0 .13.02.259.02.388 0 .13 0 .26.01.389.06 2.052-.11 4.154-.471 6.236l-.09.449-.06-.18a5.415 5.415 0 0 1-.101-.478l-.03-.259c0-.09-.01-.18-.01-.269v-.279c0-.1.02-.19.03-.289.03-.199.05-.408.05-.607 0-.21 0-.419-.03-.638a6.94 6.94 0 0 0-.12-.628 3.857 3.857 0 0 0-.221-.597 3.512 3.512 0 0 0-.322-.538 3.123 3.123 0 0 0-.431-.459 2.925 2.925 0 0 0-1.214-.577c-.613-.13-1.285-.33-1.937-.528-.331-.1-.662-.21-.984-.31-.32-.099-.622-.198-.913-.298-.29-.09-.562-.18-.803-.25-.12-.039-.24-.069-.34-.109-.111-.03-.212-.07-.302-.1-.361-.119-.582-.199-.582-.199.07.03.16.07.271.13.05.03.11.06.17.1.06.04.121.07.191.12.13.079.261.168.402.278.07.05.14.1.21.16l.211.179c.07.06.14.13.21.189.071.06.141.13.202.2.13.139.25.278.37.418a3.581 3.581 0 0 1 .402.637c.03.07.06.14.08.2.04.129.09.249.131.358.04.11.08.22.13.329.04.1.09.2.131.299.04.1.08.19.12.279.04.09.08.18.12.259.041.09.071.17.111.249.07.17.14.329.19.508.051.18.272.379.583.588.301.209.682.428 1.054.627a37.355 37.355 0 0 0 1.455.737c.381.06.672.21.903.429.22.21.371.478.472.727.03.07.04.14.06.21-.14.687-.291 1.364-.462 2.032a41.916 41.916 0 0 1-.923 3.008 41.059 41.059 0 0 1-1.154 2.92v-.05c0-.17 0-.34.02-.519s.04-.368.09-.557c.05-.19.1-.389.18-.588.322-.797.483-1.774.302-2.65a2.75 2.75 0 0 0-.19-.638 3.275 3.275 0 0 0-.322-.578 2.892 2.892 0 0 0-1.094-.896 18.481 18.481 0 0 1-1.846-1.036c-.622-.379-1.235-.777-1.776-1.126-1.064-.688-1.887-1.215-1.887-1.215.13.09.331.268.542.518.11.12.22.259.331.418.11.15.22.319.331.488.11.17.21.349.311.528.1.18.191.369.261.548.07.18.14.359.18.528.041.17.071.329.081.478l.03.419c.01.13.03.259.05.378.03.24.07.459.11.668.071.408.151.777.171 1.175.01.2.191.459.442.747.13.15.28.3.441.449.161.15.322.299.492.448.331.289.673.558.913.757.13.1.231.18.302.24.07.059.11.089.11.089a1.668 1.668 0 0 1 1.044 1.066c.05.15.08.289.1.438v.06a35.806 35.806 0 0 1-4.185 6.984c-.04.06-.08.11-.13.159.03-.13.06-.25.11-.379a4.252 4.252 0 0 1 .572-1.105c.532-.748.923-1.714.954-2.66.01-.469-.06-.937-.251-1.365a2.929 2.929 0 0 0-.924-1.146c-.27-.21-.552-.438-.833-.687-.28-.24-.562-.508-.843-.767-.28-.26-.552-.528-.812-.787-.261-.26-.522-.508-.763-.748l-1.666-1.653c.06.06.13.15.2.259.071.11.151.239.242.398a7.432 7.432 0 0 1 .482 1.066c.08.2.14.399.2.608.06.21.11.418.14.618.02.1.03.199.05.298.01.1.02.19.02.28 0 .179 0 .358-.02.508-.03.149-.04.298-.06.438-.01.14-.03.269-.04.388-.01.13-.02.25-.02.359 0 .12-.01.23-.02.339 0 .11 0 .219-.01.319 0 .11-.01.199-.02.308 0 .1-.01.2-.02.3-.01.099-.03.198-.04.298-.02.1 0 .23.06.369.05.14.13.308.23.478.101.17.222.358.342.548a27.385 27.385 0 0 0 1.154 1.554c.2.259.341.428.341.428.362.23.572.528.683.837.11.289.12.598.09.877-.943 1.145-1.917 2.181-2.9 3.058a20.08 20.08 0 0 1-3.242 2.371 5.494 5.494 0 0 1 1.124-1.056 5.1 5.1 0 0 0 1.074-1.006 4.27 4.27 0 0 0 .713-1.305c.04-.12.07-.23.09-.349.02-.12.04-.239.05-.358 0-.12.01-.24.01-.359 0-.12-.02-.24-.04-.359a2.939 2.939 0 0 0-.21-.697 3.805 3.805 0 0 0-.422-.677c-.22-.28-.452-.578-.672-.887a40.64 40.64 0 0 1-.673-.966c-.22-.32-.431-.648-.642-.967-.21-.309-.412-.617-.602-.906-.19-.29-.372-.558-.532-.797-.16-.24-.311-.459-.432-.638l-.381-.568c.09.14.21.399.321.727.05.16.11.34.15.538.01.05.02.1.04.15 0 .05.02.1.03.15a6.696 6.696 0 0 1 .14.937c.021.208.021.417.021.617 0 .199-.02.388-.05.557-.01.09-.03.17-.05.25-.02.07-.05.149-.07.209-.03.07-.05.13-.08.199-.03.06-.05.12-.07.18-.04.119-.08.238-.121.348-.07.219-.13.428-.18.618-.03.1-.05.189-.081.279-.03.09-.05.179-.08.268-.01.04-.03.09-.04.13l-.02.07-.03.06c-.03.08-.07.169-.111.248-.02.04-.03.1-.04.16v.2c.01.149.05.328.09.527.09.389.231.857.372 1.305.14.459.28.887.38 1.206.111.319.171.528.171.528.251.358.352.717.332 1.066 0 .09-.01.169-.03.259l-.06.239c-.03.08-.06.16-.091.229 0 .01-.01.02-.02.03a14.507 14.507 0 0 1-1.525.687c-.12.04-.241.09-.362.13-.12.04-.23.08-.35.11-.111.03-.222.069-.332.099-.873.229-1.566.319-2.037.359-.06 0-.11 0-.17.01H7.96c-.12 0-1.766-.13-1.766-.13s-3.081-.15-3.864-.518c-.411-.19-.923-.17-1.244.13-.291.268-.07.757.1 1.514.361 1.614 1.726 2.55 1.515 3.945 0 0 1.044-1.544.261-2.85 0 0 .12-1.364 2.82-1.095 0 0 .382.02.823.05-.602.697-1.174 2.102.412 4.473 2.247 3.377 2.127 4.99 2.087 5.23.06-.369.672-4.414-.723-5.798-1.836-1.823-1.083-3.089-.19-3.846h.22c.06 0 .12 0 .191-.01.532-.04 1.315-.14 2.278-.398.12-.03.24-.07.371-.11.12-.04.251-.07.382-.12.13-.04.26-.089.401-.139.13-.05.271-.11.412-.16.421-.169.863-.378 1.304-.607.291.02.602.08.893.18.352.139.683.358.913.737 0 0 .181.14.482.348.301.2.723.469 1.184.708.231.12.472.239.723.338.25.1.492.19.732.25.472.119.924.159 1.225.04.15-.06.3-.11.431-.15.14-.04.261-.07.392-.1.25-.06.502-.1.762-.15.13-.03.271-.059.412-.099.07-.02.15-.04.22-.07.08-.02.151-.05.241-.08a6.56 6.56 0 0 0 .532-.218c.191-.09.392-.2.613-.33.22-.129.481-.238.772-.338.301-.1.622-.19.964-.269.35-.08.702-.15 1.073-.219.372-.06.743-.13 1.114-.18 1.476-.218 2.87-.368 3.292-.388 0 0-.08 0-.231-.01-.15 0-.371-.02-.642-.04s-.602-.06-.954-.1a20.54 20.54 0 0 1-1.174-.159 24.11 24.11 0 0 1-2.619-.548 13.89 13.89 0 0 1-2.368-.837 5.848 5.848 0 0 0-1.716-.478 6.883 6.883 0 0 0-.903-.06c-.151 0-.302 0-.452.01-.15 0-.301.02-.442.03-.07 0-.15.02-.22.03-.07 0-.15.02-.221.03-.15.02-.291.05-.432.08-.14.03-.28.06-.421.1-.14.04-.271.08-.401.129-.131.04-.261.09-.392.14-.13.05-.25.11-.371.169-.241.12-.462.259-.683.398-.1.07-.21.15-.32.21a4.95 4.95 0 0 1-.332.169c-.21.1-.431.18-.642.229a.75.75 0 0 1-.16.04c-.04 0-.091.02-.131.03a20.518 20.518 0 0 0 3.372-2.48 27.724 27.724 0 0 0 3.12-3.308c.121-.04.241-.09.382-.11.17-.04.351-.06.532-.06.361 0 .742.08 1.094.33 0 0 .05.019.15.039.09.03.231.06.402.11.34.08.803.189 1.304.258.492.08 1.024.13 1.475.11.11 0 .231-.01.332-.02.1-.01.2-.03.29-.05.181-.05.332-.11.452-.199.11-.09.221-.17.321-.229.1-.07.211-.13.311-.19s.201-.109.312-.169c.1-.05.21-.11.31-.169.432-.24.914-.538 1.536-1.166.311-.318.793-.617 1.345-.906.28-.14.572-.28.883-.419.3-.139.622-.269.933-.388.311-.12.612-.24.913-.349.291-.11.572-.199.823-.299.502-.169.893-.298 1.094-.338l-.22.03c-.141.02-.342.05-.603.08-.25.03-.552.069-.893.109-.341.04-.712.07-1.104.09-.401.03-.813.05-1.234.06H30.84c-.21 0-.421-.02-.632-.03-.21-.02-.411-.03-.622-.05-.401-.04-.783-.09-1.134-.16a4.032 4.032 0 0 0-.843-.08c-.281 0-.562.01-.843.05a6.32 6.32 0 0 0-1.606.449c-1.013.438-1.886 1.085-2.438 1.882-.14.2-.291.379-.442.538-.16.16-.32.3-.491.419-.09.07-.181.12-.271.17a37.878 37.878 0 0 0 3.22-4.992c.422-.777.814-1.594 1.195-2.42.25-.17.532-.32.853-.4.17-.04.351-.06.532-.06.18 0 .371.05.562.12 0 0 .863.05 1.816-.02.482-.03.974-.1 1.395-.209.422-.11.763-.259.923-.468.08-.1.161-.19.241-.279.08-.09.16-.17.241-.239.16-.15.331-.299.502-.458.17-.16.351-.339.552-.568.19-.23.391-.498.612-.857.11-.18.25-.358.421-.548.181-.179.372-.368.592-.558.11-.09.221-.189.342-.279.11-.09.23-.189.361-.279.24-.189.502-.368.753-.547.25-.18.501-.35.742-.508.241-.16.462-.31.673-.439.21-.13.391-.249.552-.338.15-.09.28-.16.36-.21l-.19.08.04-.07Z" fill="#EFB967"/></svg>