<svg width="50" height="50" fill="none" xmlns="http://www.w3.org/2000/svg"><rect width="50" height="50" rx="12" fill="#fff"/><path fill-rule="evenodd" clip-rule="evenodd" d="M15.95 23.853c5.346-2.328 8.91-3.863 10.693-4.605 5.091-2.118 6.15-2.486 6.839-2.498.151-.003.49.035.71.213.186.15.237.354.261.497.025.142.055.467.03.721-.275 2.9-1.469 9.935-2.076 13.182-.257 1.374-.763 1.834-1.253 1.88-1.065.097-1.873-.704-2.905-1.38-1.613-1.058-2.525-1.716-4.091-2.749-1.81-1.192-.637-1.848.395-2.92.27-.28 4.96-4.547 5.052-4.934.01-.048.021-.229-.086-.324s-.265-.063-.38-.037c-.161.037-2.739 1.74-7.733 5.112-.731.502-1.394.747-1.988.734-.655-.014-1.914-.37-2.85-.674-1.148-.373-2.06-.57-1.981-1.205.041-.33.496-.668 1.364-1.013Z" fill="#0C0C0C"/></svg>