<svg width="50" height="50" fill="none" xmlns="http://www.w3.org/2000/svg"><rect width="50" height="50" rx="12" fill="#F6F8FA"/><path fill-rule="evenodd" clip-rule="evenodd" d="M15.951 23.853c5.345-2.328 8.909-3.863 10.692-4.605 5.091-2.118 6.15-2.486 6.839-2.498.152-.003.49.035.71.213.186.15.237.354.261.497.025.142.055.467.031.721-.276 2.9-1.47 9.935-2.077 13.182-.257 1.374-.763 1.834-1.253 1.88-1.065.097-1.873-.704-2.904-1.38-1.614-1.058-2.526-1.716-4.092-2.749-1.81-1.192-.637-1.848.395-2.92.27-.28 4.961-4.547 5.052-4.934.011-.048.022-.229-.085-.324-.108-.095-.266-.063-.38-.037-.162.037-2.74 1.74-7.733 5.112-.732.502-1.395.747-1.989.734-.654-.014-1.914-.37-2.85-.674-1.148-.373-2.06-.57-1.98-1.205.04-.33.495-.668 1.363-1.013Z" fill="#0C0C0C"/></svg>