<svg width="39" height="74" fill="none" xmlns="http://www.w3.org/2000/svg"><path d="M36.669 62.564c-.783.358-3.864.518-3.864.518s-1.645.13-1.766.13h-.371c-.05 0-.11 0-.17-.01-.472-.03-1.175-.12-2.038-.36-.11-.03-.22-.07-.331-.099-.11-.03-.23-.07-.351-.11-.12-.04-.241-.08-.362-.13l-.37-.148c-.372-.15-.764-.34-1.155-.538 0-.01-.01-.02-.02-.03-.04-.08-.07-.15-.09-.23-.03-.08-.05-.159-.06-.239-.02-.08-.02-.169-.03-.259-.01-.348.08-.707.33-1.066 0 0 .07-.209.171-.528.1-.318.24-.747.381-1.205a19.2 19.2 0 0 0 .372-1.305c.05-.2.08-.379.09-.528v-.2c0-.06-.02-.109-.04-.159-.04-.09-.07-.17-.1-.249l-.02-.06-.02-.07s-.03-.089-.04-.129c-.03-.09-.05-.18-.081-.269-.03-.09-.05-.19-.08-.279a6.992 6.992 0 0 0-.19-.617c-.041-.11-.071-.23-.121-.35-.02-.059-.05-.119-.07-.178-.02-.06-.05-.13-.08-.2-.031-.07-.051-.14-.071-.209-.02-.08-.04-.16-.05-.249-.03-.18-.05-.359-.05-.558 0-.2 0-.398.02-.618.02-.209.04-.418.08-.627l.06-.309.03-.15.03-.149c.05-.2.1-.378.15-.538.111-.328.222-.588.322-.727 0 0-.14.22-.381.568-.12.18-.261.398-.432.637-.16.24-.341.518-.532.797-.19.29-.391.598-.602.907-.21.319-.431.648-.642.966-.22.33-.442.658-.672.967-.221.309-.452.607-.673.886-.18.22-.321.439-.421.678-.11.229-.171.458-.211.697-.02.12-.03.24-.04.359 0 .12 0 .239.01.358.01.12.03.24.05.359.02.12.06.23.09.349.15.468.402.906.713 1.305.31.388.682.747 1.073 1.006.382.269.703.568.964.867.05.06.1.13.16.189a20.522 20.522 0 0 1-3.24-2.371c-.984-.877-1.958-1.913-2.901-3.059-.02-.288-.01-.587.09-.876.11-.319.331-.608.683-.837 0 0 .14-.17.34-.428.212-.26.482-.608.753-.987.141-.189.271-.378.402-.567.13-.19.24-.38.341-.548.1-.18.18-.34.23-.479a.88.88 0 0 0 .061-.368c-.02-.1-.03-.2-.04-.3-.01-.099-.02-.198-.02-.298 0-.1-.01-.2-.02-.309 0-.1 0-.209-.01-.319 0-.11 0-.219-.02-.338 0-.11-.01-.24-.02-.359-.01-.13-.03-.259-.04-.389-.02-.139-.03-.278-.06-.438-.03-.15-.03-.319-.02-.508a3.057 3.057 0 0 1 .07-.578c.04-.199.08-.408.14-.617.06-.21.12-.409.2-.608a7.675 7.675 0 0 1 .482-1.066c.08-.15.16-.279.241-.399.08-.11.14-.199.2-.259 0 0-.722.728-1.665 1.654-.24.24-.492.488-.763.747-.27.26-.541.518-.813.787-.28.26-.561.518-.842.767-.281.25-.562.479-.833.688a2.928 2.928 0 0 0-.924 1.145c-.19.429-.26.897-.25 1.365.03.947.431 1.913.953 2.66.13.19.24.369.341.558.1.19.17.369.23.548.051.13.081.26.111.379l-.13-.16a35.792 35.792 0 0 1-4.185-6.983v-.06c.02-.15.05-.289.1-.438.05-.15.12-.29.211-.429.18-.269.442-.498.833-.637 0 0 .04-.03.11-.09s.171-.14.302-.24c.25-.198.582-.467.913-.756.17-.15.33-.3.492-.449.16-.149.31-.298.441-.448.261-.289.432-.548.442-.747.02-.398.1-.767.17-1.176.04-.209.08-.428.11-.667.02-.12.03-.25.05-.379l.03-.418c.01-.15.041-.309.081-.478.05-.17.11-.349.18-.528.071-.18.161-.369.262-.548a8.807 8.807 0 0 1 .642-1.016c.11-.15.23-.29.331-.419.21-.249.412-.428.542-.518 0 0-.823.528-1.887 1.216-.541.348-1.154.747-1.776 1.125a23.56 23.56 0 0 1-1.846 1.036c-.462.23-.833.529-1.094.897-.13.18-.241.379-.331.578-.09.21-.15.418-.191.638-.17.886-.02 1.852.301 2.65.08.199.14.398.18.587.05.19.08.379.091.558.02.18.02.359.02.518v.05a39.3 39.3 0 0 1-1.154-2.919 38.668 38.668 0 0 1-.923-3.009 29.656 29.656 0 0 1-.462-2.032l.06-.21c.1-.258.251-.517.472-.726.22-.21.522-.369.903-.429 0 0 .18-.08.452-.219.27-.13.632-.319 1.003-.518.372-.2.753-.418 1.054-.628.301-.209.522-.418.582-.587.05-.18.12-.34.19-.508.04-.08.071-.17.111-.25.04-.08.08-.169.12-.258.04-.09.08-.18.12-.28.041-.1.091-.189.131-.298.04-.11.09-.21.13-.33.041-.119.091-.238.131-.358a2.09 2.09 0 0 1 .19-.408c.081-.14.182-.28.292-.429.11-.14.24-.278.371-.418.06-.07.13-.13.201-.2.07-.059.14-.129.21-.189l.212-.179c.07-.06.14-.11.21-.16.14-.109.281-.199.402-.278.07-.04.13-.08.19-.12.06-.04.12-.07.17-.1a3.12 3.12 0 0 1 .272-.129s-.22.07-.582.2c-.09.03-.19.06-.301.099-.11.03-.221.07-.341.11-.241.08-.522.159-.803.249-.291.09-.592.189-.914.298-.32.1-.652.21-.983.31a21.09 21.09 0 0 1-1.937.527c-.481.11-.883.31-1.214.578-.17.14-.311.29-.431.458-.131.17-.241.35-.322.538-.09.19-.17.399-.22.598a6.9 6.9 0 0 0-.12.628 6.79 6.79 0 0 0-.03.637c0 .21.02.409.05.608l.03.289c0 .1.01.19 0 .279 0 .09 0 .18-.01.269 0 .09-.01.17-.03.259a3.33 3.33 0 0 1-.101.478l-.06.18-.09-.449a31.148 31.148 0 0 1-.472-6.236c0-.13 0-.26.01-.389 0-.13.01-.259.02-.388 0-.13.02-.25.02-.379l.03-.388v-.02c.06-.11.13-.23.22-.35.151-.208.362-.407.623-.547.26-.14.562-.21.923-.17 0 0 .18-.03.462-.089.28-.06.652-.14 1.053-.23.392-.099.793-.198 1.124-.318.161-.06.312-.12.422-.19.12-.059.21-.129.25-.208.191-.29.402-.538.653-.817.12-.14.24-.29.371-.459.14-.169.271-.348.422-.567.02-.02.04-.05.06-.08a.5.5 0 0 1 .07-.08c.05-.06.1-.11.16-.16.111-.109.242-.218.372-.318.14-.1.291-.21.442-.299.16-.1.31-.19.471-.269a8.19 8.19 0 0 1 .924-.398c.28-.1.512-.15.652-.16 0 0-.873.06-2.007.15l-.913.06c-.311.02-.643.05-.964.06-.32.02-.652.03-.973.039h-.923c-.462-.02-.873.07-1.245.24-.09.039-.18.089-.27.139-.091.05-.171.11-.242.169-.16.12-.3.259-.441.408-.14.15-.251.32-.351.489-.1.169-.201.358-.281.538a6.63 6.63 0 0 0-.191.567 6.3 6.3 0 0 0-.12.558c-.02.19-.06.359-.11.528-.02.08-.051.16-.081.24-.03.08-.06.149-.09.229-.12.268-.271.508-.412.707 0-.05 0-.1.02-.16l.09-.757a29.968 29.968 0 0 1 1.325-5.738c.08-.23.16-.448.231-.668.08-.219.17-.438.25-.657 0-.02.01-.03.021-.05.1-.13.26-.289.462-.438.1-.07.21-.15.33-.21.061-.03.121-.06.181-.079.06-.02.13-.04.201-.06.271-.06.562-.06.883.07 0 0 .693.06 1.445.07.382.01.773 0 1.094-.02.331-.03.592-.09.713-.2.25-.219.511-.398.813-.597.07-.05.15-.1.23-.16l.241-.179c.17-.12.341-.269.532-.428.19-.17.462-.32.783-.469.16-.07.32-.13.491-.189.09-.03.171-.06.251-.08.09-.03.171-.05.261-.08.683-.188 1.345-.278 1.616-.248 0 0-.2-.02-.542-.06-.17-.02-.371-.05-.602-.08-.23-.03-.482-.07-.753-.1a35.63 35.63 0 0 1-1.756-.268 16.76 16.76 0 0 1-1.736-.379 2.574 2.574 0 0 0-1.194-.06c-.381.07-.733.23-1.054.439-.08.06-.16.11-.23.169-.07.06-.151.12-.222.19a3.769 3.769 0 0 0-.712.886c-.05.08-.1.16-.14.239l-.12.24a2.601 2.601 0 0 1-.242.437c-.09.14-.18.26-.28.379-.101.11-.201.22-.302.319-.1.09-.2.18-.3.259a.364.364 0 0 1-.101.07c.04-.11.09-.21.13-.32.04-.109.09-.208.14-.308.05-.11.091-.21.141-.309.05-.1.09-.21.14-.309.101-.199.191-.398.292-.598.1-.199.2-.388.3-.587.051-.1.101-.19.151-.29.05-.089.1-.188.16-.278.051-.09.101-.19.152-.279.03-.05.05-.09.08-.14.03-.05.05-.09.08-.139.11-.19.21-.369.321-.548.11-.18.22-.359.321-.528.05-.09.1-.18.16-.259.051-.09.111-.17.161-.259.472-.737.954-1.425 1.425-2.062l.02.02s.07-.07.201-.16c.13-.1.311-.209.532-.309.22-.1.462-.169.723-.169.26 0 .532.06.782.24 0 0 .623.189 1.305.348.341.08.702.15 1.014.17.31.03.571.02.712-.07.291-.17.582-.3.913-.449.321-.16.693-.338 1.134-.617.221-.14.522-.27.853-.369.331-.11.693-.19 1.044-.259.702-.13 1.375-.19 1.626-.14 0 0-.191-.03-.512-.1a27.96 27.96 0 0 1-1.275-.278c-1.013-.24-2.258-.568-3.18-.986-.733-.33-1.496-.25-2.168.05a3.923 3.923 0 0 0-.944.587c-.14.12-.27.24-.401.369-.06.06-.12.13-.18.2-.061.059-.111.129-.161.198a3.494 3.494 0 0 1-.662.648c-.121.08-.232.16-.352.23-.12.069-.23.129-.331.178-.1.04-.19.08-.271.11.25-.329.492-.648.732-.947.271-.338.542-.667.793-.966.432-.518 2.027-2.84 2.57-3.626.37-.279.822-.478 1.324-.468 0 0 3.07-.877 3.382-1.674.31-.797.753-1.415 1.154-2.68.401-1.265 2.158-3.198 2.72-3.517 0 0-3.382 1.883-5.851 2.431-1.947.439-2.64 2.52-2.64 4.174 0 .608-.2 1.146-.451 1.575-1.475 1.613-3.532 3.885-3.733 4.134-.18.229-.392.478-.602.717 0-.07.01-.14.02-.219.04-.25.12-.518.24-.807.06-.15.141-.289.231-.438.09-.14.201-.29.322-.429.501-.568.973-1.275 1.204-2.032a3 3 0 0 0 .14-1.146 2.36 2.36 0 0 0-.381-1.105c-.592-.887-1.104-2.142-1.455-3.168a60.8 60.8 0 0 1-.412-1.306c-.09-.328-.14-.528-.14-.528.07.27.04.977-.07 1.764-.06.388-.14.797-.241 1.175-.1.379-.23.728-.371 1.007-.592 1.095-.713 1.783-1.034 2.52-.16.379.12 1.136.462 1.803.17.329.35.638.481.857.14.22.231.359.231.359.271.199.412.448.492.707.07.259.06.528.03.777s-.1.468-.16.628c0 .03-.02.04-.02.06-.623.727-1.275 1.504-1.837 2.38-.06.09-.11.18-.17.26-.061.089-.111.179-.171.268-.11.18-.221.359-.332.548-.11.19-.22.369-.32.558-.03.05-.05.09-.081.14-.03.05-.05.1-.08.15-.05.099-.1.188-.16.288-.051.1-.111.2-.161.289-.05.1-.1.2-.16.299-.101.199-.212.398-.312.607-.1.21-.2.419-.301.618-.05.11-.1.21-.14.319-.05.11-.1.21-.141.319a.2.2 0 0 1-.04.08c0-.19 0-.39.03-.608.01-.08.03-.16.05-.25.02-.08.04-.169.07-.248.06-.17.13-.35.221-.519.19-.348.341-.737.462-1.135.03-.1.06-.2.08-.299.02-.11.04-.21.06-.309.04-.21.06-.418.07-.628 0-.209 0-.418-.02-.627-.02-.21-.07-.409-.13-.608a2.73 2.73 0 0 0-.642-1.096 7.894 7.894 0 0 1-.582-.687 15.47 15.47 0 0 1-.552-.787 11.947 11.947 0 0 1-.502-.837c-.16-.279-.301-.558-.442-.827a23.695 23.695 0 0 1-.622-1.375c-.14-.348-.22-.567-.22-.567.05.149.1.428.13.787.04.358.07.797.08 1.255.03.926 0 1.923-.22 2.6-.05.17-.101.319-.141.468-.04.15-.07.29-.09.419a7.6 7.6 0 0 0-.11.727c-.02.229-.041.438-.061.637-.01.1-.02.21-.04.31-.01.099-.03.209-.05.318-.04.22.06.518.23.827.181.319.432.648.693.956.26.31.522.578.722.777.201.19.342.32.342.32.33.139.552.358.692.607.15.249.21.528.25.787 0 .07 0 .12.011.19-.09.218-.19.438-.271.667-.09.229-.17.448-.26.677l-.242.688a37.078 37.078 0 0 0-.823 2.889c-.22.996-.401 2.012-.542 3.048-.02.14-.03.279-.05.418a3.7 3.7 0 0 1-.13-.527 3.11 3.11 0 0 1-.03-.538c0-.09 0-.19.01-.29 0-.099.02-.199.04-.298.04-.2.07-.409.08-.628v-.647c-.01-.22-.04-.439-.08-.658a4.7 4.7 0 0 0-.16-.648 4.496 4.496 0 0 0-.593-1.205 3.468 3.468 0 0 0-1.014-.947 11.234 11.234 0 0 1-1.615-1.215 16.897 16.897 0 0 1-1.465-1.474c-.22-.25-.412-.478-.592-.698-.18-.219-.331-.418-.452-.577l-.401-.548c.09.14.22.438.381.817.08.189.16.398.24.627.091.23.172.469.262.708.04.12.08.249.12.368.04.12.08.25.12.369.081.249.151.508.211.747.03.12.06.239.08.359.03.12.05.229.06.338.031.22.051.429.051.618v.528c0 .16.02.309.04.448.02.14.03.27.05.399.02.12.05.239.07.358.101.449.201.817.272 1.296.03.229.22.508.501.777s.643.528 1.004.767c.361.229.712.428.983.567.13.07.241.13.322.16l.12.06c.381.04.672.199.893.408.23.21.391.468.502.717.02.03.02.06.04.09 0 .04 0 .08-.01.12 0 .13-.02.259-.03.398l-.03.399c0 .13-.02.259-.02.398 0 .13-.02.27-.02.399 0 .13 0 .269-.01.398a32.54 32.54 0 0 0 .481 6.446c0 .02 0 .04.01.06-.08-.13-.17-.27-.24-.419a3.565 3.565 0 0 1-.332-1.146c-.1-.856-.461-1.753-1.033-2.53a4.743 4.743 0 0 0-1.024-1.026c-.2-.15-.411-.28-.632-.389a3.3 3.3 0 0 0-.703-.269c-.31-.09-.642-.199-.983-.328l-.512-.21-.512-.239a18.309 18.309 0 0 1-2.79-1.653c-.25-.17-.461-.32-.642-.459a55.934 55.934 0 0 1-.582-.438c.13.12.371.378.663.717.14.17.3.369.471.578.08.1.17.21.251.329.08.11.17.229.261.338.17.23.351.469.512.708.17.239.33.468.471.707.14.23.281.458.392.668.11.219.19.418.25.607.06.19.111.369.171.528.06.16.12.3.18.439.121.259.242.478.362.677.12.2.241.379.351.568.11.19.221.379.322.608.1.229.38.448.752.637.18.1.382.19.592.27.211.079.432.149.653.218.431.13.853.23 1.164.3.31.069.521.099.521.099.392-.06.743.02 1.034.17.15.069.281.169.402.268a3.355 3.355 0 0 1 .35.339c.161.817.342 1.644.553 2.45.27 1.047.592 2.083.953 3.099.321.916.672 1.803 1.054 2.68a3.905 3.905 0 0 1-.923-1.395c-.322-.857-.954-1.664-1.777-2.281a5.502 5.502 0 0 0-1.365-.757 4.56 4.56 0 0 0-1.555-.32c-.692-.01-1.475-.109-2.268-.258l-.602-.12c-.2-.04-.391-.09-.592-.14a51.786 51.786 0 0 1-1.134-.298 24.777 24.777 0 0 1-1.796-.598c-.231-.08-.402-.15-.532-.2L0 41.275c.08.04.21.11.361.21.15.09.341.209.552.338.21.13.432.28.673.438a35.733 35.733 0 0 1 1.495 1.056c.12.09.24.19.361.28.12.1.23.189.341.278.221.19.422.379.592.558.171.19.322.369.422.548.22.349.421.628.612.857.19.23.371.398.552.568.17.16.341.299.502.458l.24.24c.08.089.161.178.241.278.161.2.502.359.924.468.421.11.913.17 1.395.21.953.07 1.816.02 1.816.02.19-.08.381-.12.562-.12.18 0 .361.01.532.06.32.08.602.229.853.398.371.827.773 1.634 1.194 2.421a35.938 35.938 0 0 0 3.221 4.991c-.09-.06-.18-.11-.27-.17a4.586 4.586 0 0 1-.492-.418 3.966 3.966 0 0 1-.442-.538c-.552-.797-1.425-1.444-2.438-1.883a6.727 6.727 0 0 0-1.606-.448 4.8 4.8 0 0 0-.843-.05c-.281 0-.562.03-.843.08-.351.07-.733.12-1.134.16-.2.02-.411.04-.622.05l-.632.03c-.422.01-.863.01-1.285 0-.431 0-.843-.03-1.234-.06-.392-.02-.773-.06-1.104-.09-.341-.03-.642-.07-.893-.11-.251-.03-.452-.06-.602-.08l-.221-.03c.19.05.592.17 1.094.34.25.089.531.189.823.298.29.11.592.23.913.349.31.12.622.249.933.388.311.13.602.27.883.419.562.289 1.034.588 1.345.906.622.638 1.104.937 1.535 1.166.11.06.211.11.311.17.1.06.201.109.311.169.1.06.201.12.311.189.1.07.211.15.322.23.11.089.26.148.451.198.09.02.19.04.291.05.1.01.221.02.331.02.462.02.984-.03 1.476-.11.491-.08.963-.179 1.304-.259.17-.04.311-.08.402-.11.1-.029.15-.039.15-.039a1.778 1.778 0 0 1 1.094-.329c.18 0 .361.02.532.06.13.03.25.07.381.11a29.314 29.314 0 0 0 3.121 3.307 21.397 21.397 0 0 0 3.372 2.48c-.04 0-.09-.02-.13-.03-.05-.01-.1-.029-.161-.039a4.14 4.14 0 0 1-.642-.23 3.05 3.05 0 0 1-.321-.169 3.028 3.028 0 0 1-.322-.209 3.82 3.82 0 0 0-.682-.398c-.12-.06-.24-.12-.371-.17a5.39 5.39 0 0 0-.392-.139c-.13-.05-.26-.09-.401-.13-.14-.04-.281-.07-.422-.1-.14-.029-.28-.059-.431-.079l-.22-.03c-.071 0-.141-.02-.222-.03-.15-.02-.29-.03-.441-.03-.15 0-.301-.01-.452-.01-.3 0-.602.02-.903.06-.592.07-1.174.23-1.706.479-.672.318-1.495.607-2.368.836a23.62 23.62 0 0 1-2.62.548c-.41.06-.812.12-1.174.16-.36.04-.682.07-.953.1-.27.02-.492.04-.642.04-.15 0-.231.01-.231.01.432.019 1.816.169 3.292.388l1.114.179c.37.07.732.14 1.073.22.351.079.663.169.964.268.3.1.552.22.772.339.221.13.422.239.613.329a6.581 6.581 0 0 0 .772.299c.08.02.15.05.221.07.14.039.281.069.412.099.26.06.511.1.762.15.13.03.251.059.392.099.14.04.28.09.431.15.301.119.753.089 1.224-.04a5.8 5.8 0 0 0 .733-.25c.24-.1.492-.219.723-.338.461-.24.883-.508 1.184-.708.3-.199.481-.348.481-.348.231-.369.562-.598.914-.737.29-.11.592-.16.893-.18.451.23.893.438 1.304.608.14.06.271.11.412.16.14.049.27.099.401.139.13.05.261.08.381.12.131.04.251.079.372.109.963.259 1.746.359 2.278.398.07 0 .13 0 .19.01h.221c.893.757 1.646 2.023-.19 3.846-1.395 1.385-.783 5.43-.723 5.798-.03-.24-.16-1.853 2.087-5.23 1.586-2.371 1.014-3.776.412-4.474.441-.02.823-.05.823-.05 2.7-.268 2.82 1.097 2.82 1.097-.783 1.295.26 2.849.26 2.849-.21-1.395 1.145-2.331 1.516-3.945.17-.757.381-1.246.1-1.515-.33-.308-.833-.328-1.244-.13l.02.07Z" fill="#EFB967"/></svg>