<svg width="24" height="24" fill="none" xmlns="http://www.w3.org/2000/svg"><path d="M2 8s4.477-5 10-5 10 5 10 5" stroke="#9CA3AF" stroke-width="1.5" stroke-linecap="round"/><path d="M21.544 13.045c.304.426.456.64.456.955 0 .316-.152.529-.456.955C20.178 16.871 16.689 21 12 21c-4.69 0-8.178-4.13-9.544-6.045C2.152 14.529 2 14.315 2 14c0-.316.152-.529.456-.955C3.822 11.129 7.311 7 12 7c4.69 0 8.178 4.13 9.544 6.045Z" stroke="#9CA3AF" stroke-width="1.5"/><path d="M15 14a3 3 0 1 0-6 0 3 3 0 0 0 6 0Z" stroke="#9CA3AF" stroke-width="1.5"/></svg>