<svg width="50" height="50" fill="none" xmlns="http://www.w3.org/2000/svg"><rect width="50" height="50" rx="12" fill="#F6F8FA"/><path fill-rule="evenodd" clip-rule="evenodd" d="M30.127 26.824c-.253-.126-1.496-.734-1.727-.818-.231-.084-.4-.125-.57.127-.167.25-.651.817-.799.985-.148.169-.295.189-.547.064-.253-.127-1.068-.392-2.033-1.249-.751-.667-1.259-1.49-1.406-1.743-.147-.251-.016-.388.11-.513.114-.112.253-.294.38-.44.127-.147.168-.252.252-.42.085-.168.043-.315-.02-.44-.064-.127-.569-1.365-.78-1.869-.205-.49-.413-.423-.568-.432a10.941 10.941 0 0 0-.485-.008.928.928 0 0 0-.674.315c-.232.251-.884.86-.884 2.098s.905 2.434 1.032 2.602c.126.168 1.781 2.709 4.317 3.798.604.26 1.074.414 1.44.53.606.191 1.158.164 1.593.1.485-.073 1.495-.61 1.706-1.197.21-.587.21-1.091.147-1.196-.063-.105-.231-.168-.485-.294h.001Zm-4.611 6.267h-.004a8.426 8.426 0 0 1-4.28-1.167l-.306-.18-3.182.83.85-3.088-.2-.316a8.318 8.318 0 0 1-1.286-4.453c.002-4.613 3.773-8.366 8.411-8.366 2.246 0 4.357.872 5.944 2.453a8.282 8.282 0 0 1 2.46 5.92c-.002 4.613-3.773 8.367-8.407 8.367Zm7.154-15.488a10.052 10.052 0 0 0-3.28-2.19 10.09 10.09 0 0 0-3.875-.763c-5.575 0-10.113 4.516-10.115 10.067 0 1.774.465 3.506 1.35 5.032l-1.435 5.217 5.362-1.4a10.145 10.145 0 0 0 4.835 1.225h.004c5.574 0 10.113-4.516 10.114-10.067a9.964 9.964 0 0 0-.763-3.855 10.003 10.003 0 0 0-2.197-3.266Z" fill="#0C0C0C"/></svg>