<svg width="50" height="50" fill="none" xmlns="http://www.w3.org/2000/svg"><rect width="50" height="50" rx="12" fill="#fff"/><path fill-rule="evenodd" clip-rule="evenodd" d="M30.128 26.824c-.254-.126-1.497-.734-1.728-.818-.231-.084-.4-.125-.569.127-.168.25-.652.817-.8.985-.147.169-.294.189-.547.064-.253-.127-1.068-.392-2.033-1.249-.75-.667-1.259-1.49-1.406-1.743-.147-.251-.016-.388.11-.513.115-.112.253-.294.38-.44.127-.147.168-.252.253-.42.085-.168.042-.315-.022-.44-.063-.127-.568-1.365-.779-1.869-.205-.49-.413-.423-.568-.432a10.943 10.943 0 0 0-.485-.008.928.928 0 0 0-.673.315c-.232.251-.885.86-.885 2.098s.905 2.434 1.032 2.602c.127.168 1.782 2.709 4.317 3.798.604.26 1.074.414 1.441.53.606.191 1.157.164 1.592.1.485-.073 1.495-.61 1.706-1.197.21-.587.21-1.091.148-1.196-.063-.105-.232-.168-.485-.294Zm-4.612 6.267h-.003a8.426 8.426 0 0 1-4.28-1.167l-.306-.18-3.183.83.85-3.088-.2-.316a8.318 8.318 0 0 1-1.286-4.453c.002-4.613 3.773-8.366 8.411-8.366 2.246 0 4.357.872 5.944 2.453a8.28 8.28 0 0 1 2.46 5.92c-.002 4.613-3.773 8.367-8.407 8.367Zm7.155-15.488a10.052 10.052 0 0 0-3.28-2.19 10.091 10.091 0 0 0-3.876-.763c-5.574 0-10.113 4.516-10.115 10.067 0 1.774.465 3.506 1.35 5.032l-1.435 5.217 5.362-1.4a10.145 10.145 0 0 0 4.835 1.225h.004c5.574 0 10.113-4.516 10.115-10.067a9.966 9.966 0 0 0-2.96-7.121Z" fill="#0C0C0C"/></svg>