<svg width="54" height="54" viewBox="0 0 54 54" fill="none" xmlns="http://www.w3.org/2000/svg">
<rect width="54" height="54" rx="16" fill="#F6F8FA"/>
<path d="M28.7276 18.4442L30.4874 21.9929C30.7274 22.4869 31.3673 22.9607 31.9073 23.0514L35.0969 23.5857C37.1367 23.9285 37.6167 25.4206 36.1468 26.8925L33.6671 29.3927C33.2471 29.8161 33.0172 30.6327 33.1471 31.2175L33.8571 34.3125C34.417 36.7623 33.1271 37.71 30.9774 36.4296L27.9877 34.6452C27.4478 34.3226 26.5579 34.3226 26.0079 34.6452L23.0183 36.4296C20.8785 37.71 19.5786 36.7522 20.1386 34.3125L20.8485 31.2175C20.9785 30.6327 20.7485 29.8161 20.3286 29.3927L17.8488 26.8925C16.389 25.4206 16.8589 23.9285 18.8987 23.5857L22.0884 23.0514C22.6183 22.9607 23.2582 22.4869 23.4982 21.9929L25.258 18.4442C26.2179 16.5186 27.7777 16.5186 28.7276 18.4442Z" stroke="#141B34" stroke-width="1.5" stroke-linecap="round" stroke-linejoin="round"/>
</svg>
