<svg width="54" height="54" viewBox="0 0 54 54" fill="none" xmlns="http://www.w3.org/2000/svg">
<rect width="54" height="54" rx="16" fill="#F6F8FA"/>
<path d="M29.5 27C29.5 28.3807 28.3807 29.5 27 29.5C25.6193 29.5 24.5 28.3807 24.5 27C24.5 25.6193 25.6193 24.5 27 24.5C28.3807 24.5 29.5 25.6193 29.5 27Z" stroke="#141B34" stroke-width="1.5"/>
<path d="M34 26.142C33.6749 26.0949 33.341 26.0591 33 26.0352M21 27.9658C20.659 27.942 20.3251 27.9061 20 27.859" stroke="#141B34" stroke-width="1.5" stroke-linecap="round" stroke-linejoin="round"/>
<path d="M27 34.5C25.6675 35.1224 23.9171 35.5 22 35.5C20.9341 35.5 19.9197 35.3833 19 35.1726C17.4996 34.8289 17 33.9264 17 32.386V21.614C17 20.6291 18.04 19.9527 19 20.1726C19.9197 20.3832 20.9341 20.5 22 20.5C23.9171 20.5 25.6675 20.1224 27 19.5C28.3325 18.8776 30.0829 18.5 32 18.5C33.0659 18.5 34.0803 18.6167 35 18.8274C36.5817 19.1897 37 20.1204 37 21.614V32.386C37 33.3709 35.96 34.0473 35 33.8274C34.0803 33.6167 33.0659 33.5 32 33.5C30.0829 33.5 28.3325 33.8776 27 34.5Z" stroke="#141B34" stroke-width="1.5"/>
</svg>
