<svg width="54" height="54" viewBox="0 0 54 54" fill="none" xmlns="http://www.w3.org/2000/svg">
<rect width="54" height="54" rx="16" fill="#F6F8FA"/>
<path d="M22.2947 32C18.5304 22.25 23.8631 17.9375 27 17C30.1369 17.9375 35.4696 22.25 31.7053 32C31.1369 31.6875 29.4 31.0625 27 31.0625C24.6 31.0625 22.8631 31.6875 22.2947 32Z" stroke="#141B34" stroke-width="1.5" stroke-linecap="round" stroke-linejoin="round"/>
<path d="M29 24C29 22.8954 28.1046 22 27 22C25.8954 22 25 22.8954 25 24C25 25.1046 25.8954 26 27 26C28.1046 26 29 25.1046 29 24Z" stroke="#141B34" stroke-width="1.5"/>
<path d="M32.5 30.5576C33.9421 30.6908 35.7078 31.0822 36.9814 32C36.9814 32 37.5044 27.0642 33 26" stroke="#141B34" stroke-width="1.5" stroke-linecap="round" stroke-linejoin="round"/>
<path d="M21.5 30.5576C20.0579 30.6908 18.2922 31.0822 17.0186 32C17.0186 32 16.4955 27.0642 21 26" stroke="#141B34" stroke-width="1.5" stroke-linecap="round" stroke-linejoin="round"/>
<path d="M24.5 34C24.5 34 24.9167 36.5 27 37C29.0833 36.5 29.5 34 29.5 34" stroke="#141B34" stroke-width="1.5" stroke-linecap="round" stroke-linejoin="round"/>
</svg>
