<svg width="32" height="32" viewBox="0 0 32 32" fill="none" xmlns="http://www.w3.org/2000/svg">
<path fill-rule="evenodd" clip-rule="evenodd" d="M1.66797 16.0003C1.66797 23.9165 8.08522 30.3337 16.0013 30.3337C23.9174 30.3337 30.3346 23.9165 30.3346 16.0003C30.3346 8.08425 23.9174 1.66699 16.0013 1.66699C8.08522 1.66699 1.66797 8.08425 1.66797 16.0003ZM22.2356 11.0175C22.7784 11.515 22.815 12.3585 22.3176 12.9013L14.9842 20.9013C14.7384 21.1694 14.3938 21.3254 14.0302 21.3334C13.6666 21.3413 13.3156 21.2003 13.0585 20.9431L9.72515 17.6098C9.20446 17.0891 9.20446 16.2449 9.72515 15.7242C10.2459 15.2035 11.0901 15.2035 11.6108 15.7242L13.9594 18.0729L20.3517 11.0994C20.8493 10.5565 21.6928 10.5199 22.2356 11.0175Z" fill="white"/>
</svg>
