<svg width="20" height="20" viewBox="0 0 20 20" fill="none" xmlns="http://www.w3.org/2000/svg">
<path fill-rule="evenodd" clip-rule="evenodd" d="M1.04297 10.0003C1.04297 14.9479 5.05375 18.9587 10.0013 18.9587C14.9489 18.9587 18.9596 14.9479 18.9596 10.0003C18.9596 5.05278 14.9489 1.04199 10.0013 1.04199C5.05375 1.04199 1.04297 5.05278 1.04297 10.0003ZM13.8977 6.88603C14.237 7.19703 14.2599 7.72417 13.949 8.06343L9.36563 13.0634C9.21197 13.231 8.99663 13.3285 8.76939 13.3335C8.54214 13.3384 8.32277 13.2503 8.16204 13.0896L6.07871 11.0062C5.75328 10.6808 5.75328 10.1532 6.07871 9.82774C6.40415 9.50233 6.93179 9.50233 7.25723 9.82774L8.72514 11.2957L12.7203 6.93723C13.0313 6.59796 13.5585 6.57504 13.8977 6.88603Z" fill="#0C0C0C"/>
</svg>
