<svg width="64" height="64" viewBox="0 0 64 64" fill="none" xmlns="http://www.w3.org/2000/svg">
<rect width="64" height="64" rx="16" fill="#F6F8FA"/>
<path d="M21.0372 31.9235C19.7731 29.7194 19.1628 27.9196 18.7948 26.0953C18.2505 23.3971 19.4961 20.7614 21.5595 19.0796C22.4316 18.3688 23.4313 18.6117 23.947 19.5369L25.1112 21.6255C26.034 23.2811 26.4954 24.1088 26.4039 24.9864C26.3124 25.864 25.6902 26.5788 24.4456 28.0083L21.0372 31.9235ZM21.0372 31.9235C23.5957 36.3847 27.6108 40.4021 32.0771 42.9635M32.0771 42.9635C34.2813 44.2275 36.081 44.8379 37.9054 45.2059C40.6035 45.7502 43.2393 44.5046 44.921 42.4411C45.6318 41.5691 45.389 40.5694 44.4638 40.0537L42.3751 38.8894C40.7195 37.9666 39.8918 37.5053 39.0142 37.5967C38.1366 37.6882 37.4218 38.3105 35.9923 39.555L32.0771 42.9635Z" stroke="#141B34" stroke-width="2" stroke-linejoin="round"/>
<path d="M34.667 25.1095C36.5646 25.9153 38.0854 27.436 38.8913 29.3337M35.539 18.667C40.2553 20.028 43.9725 23.745 45.3337 28.4612" stroke="#141B34" stroke-width="2" stroke-linecap="round"/>
</svg>
