<svg width="64" height="64" viewBox="0 0 64 64" fill="none" xmlns="http://www.w3.org/2000/svg">
<rect width="64" height="64" rx="16" fill="#F6F8FA"/>
<path d="M25.333 27.333L29.2557 29.6522C31.5426 31.0043 32.4567 31.0043 34.7437 29.6522L38.6663 27.333" stroke="#141B34" stroke-width="2" stroke-linecap="round" stroke-linejoin="round"/>
<path d="M18.688 33.9678C18.7752 38.0553 18.8188 40.0989 20.3269 41.6129C21.8351 43.1267 23.9341 43.1794 28.1321 43.2849C30.7194 43.3499 33.2813 43.3499 35.8686 43.2849C40.0666 43.1794 42.1655 43.1267 43.6738 41.6129C45.1819 40.0989 45.2255 38.0553 45.3126 33.9678C45.3407 32.6535 45.3407 31.3471 45.3126 30.0329C45.2255 25.9455 45.1819 23.9018 43.6738 22.3879C42.1655 20.874 40.0666 20.8212 35.8686 20.7158C33.2813 20.6507 30.7194 20.6507 28.1321 20.7157C23.9341 20.8212 21.8351 20.8739 20.3269 22.3879C18.8188 23.9018 18.7752 25.9455 18.688 30.0329C18.66 31.3471 18.66 32.6535 18.688 33.9678Z" stroke="#141B34" stroke-width="2" stroke-linejoin="round"/>
</svg>
