<svg xmlns="http://www.w3.org/2000/svg" xmlns:xlink="http://www.w3.org/1999/xlink" preserveAspectRatio="xMidYMid meet" width="1440" height="778" viewBox="0 0 1440 778" style="width:100%;height:100%"><defs><animate repeatCount="indefinite" dur="5.1666667s" begin="0s" xlink:href="#_R_G_L_4_G_D_0_P_0" fill="freeze" attributeName="d" attributeType="XML" from="M-2.5 -80.5 C-80.5,-79 -78.5,0.5 -78.5,2 C-78.5,3.5 -74.5,77.5 2,78 C2.93,78.01 3.84,78 4.75,77.99 C78.54,76.94 80.02,13.86 81.5,2.5 C82.96,-8.68 75.9,-78.05 3.75,-80.46 C1.72,-80.53 -0.37,-80.54 -2.5,-80.5z " to="M-120 -79.5 C-198,-78 -196,1.5 -196,3 C-196,4.5 -192,78.5 -115.5,79 C-114.57,79.01 116.84,78 117.75,77.99 C191.54,76.94 193.02,13.86 194.5,2.5 C195.96,-8.68 188.9,-78.05 116.75,-80.46 C114.72,-80.53 -117.86,-79.54 -120,-79.5z " keyTimes="0;0.1129032;0.1774194;1" values="M-2.5 -80.5 C-80.5,-79 -78.5,0.5 -78.5,2 C-78.5,3.5 -74.5,77.5 2,78 C2.93,78.01 3.84,78 4.75,77.99 C78.54,76.94 80.02,13.86 81.5,2.5 C82.96,-8.68 75.9,-78.05 3.75,-80.46 C1.72,-80.53 -0.37,-80.54 -2.5,-80.5z ;M-2.5 -80.5 C-80.5,-79 -78.5,0.5 -78.5,2 C-78.5,3.5 -74.5,77.5 2,78 C2.93,78.01 3.84,78 4.75,77.99 C78.54,76.94 80.02,13.86 81.5,2.5 C82.96,-8.68 75.9,-78.05 3.75,-80.46 C1.72,-80.53 -0.37,-80.54 -2.5,-80.5z ;M-120 -79.5 C-198,-78 -196,1.5 -196,3 C-196,4.5 -192,78.5 -115.5,79 C-114.57,79.01 116.84,78 117.75,77.99 C191.54,76.94 193.02,13.86 194.5,2.5 C195.96,-8.68 188.9,-78.05 116.75,-80.46 C114.72,-80.53 -117.86,-79.54 -120,-79.5z ;M-120 -79.5 C-198,-78 -196,1.5 -196,3 C-196,4.5 -192,78.5 -115.5,79 C-114.57,79.01 116.84,78 117.75,77.99 C191.54,76.94 193.02,13.86 194.5,2.5 C195.96,-8.68 188.9,-78.05 116.75,-80.46 C114.72,-80.53 -117.86,-79.54 -120,-79.5z " keySplines="0.167 0.167 0.833 0.833;0.167 0.167 0.833 0.833;0 0 0 0" calcMode="spline"/><animate repeatCount="indefinite" dur="5.1666667s" begin="0s" xlink:href="#_R_G_L_4_G_D_1_P_0" fill="freeze" attributeName="d" attributeType="XML" from="M-2.5 -80.5 C-80.5,-79 -78.5,0.5 -78.5,2 C-78.5,3.5 -74.5,77.5 2,78 C2.93,78.01 3.84,78 4.75,77.99 C78.54,76.94 80.02,13.86 81.5,2.5 C82.96,-8.68 75.9,-78.05 3.75,-80.46 C1.72,-80.53 -0.37,-80.54 -2.5,-80.5z " to="M-120 -79.5 C-198,-78 -196,1.5 -196,3 C-196,4.5 -192,78.5 -115.5,79 C-114.57,79.01 116.84,78 117.75,77.99 C191.54,76.94 193.02,13.86 194.5,2.5 C195.96,-8.68 188.9,-78.05 116.75,-80.46 C114.72,-80.53 -117.86,-79.54 -120,-79.5z " keyTimes="0;0.1129032;0.1774194;1" values="M-2.5 -80.5 C-80.5,-79 -78.5,0.5 -78.5,2 C-78.5,3.5 -74.5,77.5 2,78 C2.93,78.01 3.84,78 4.75,77.99 C78.54,76.94 80.02,13.86 81.5,2.5 C82.96,-8.68 75.9,-78.05 3.75,-80.46 C1.72,-80.53 -0.37,-80.54 -2.5,-80.5z ;M-2.5 -80.5 C-80.5,-79 -78.5,0.5 -78.5,2 C-78.5,3.5 -74.5,77.5 2,78 C2.93,78.01 3.84,78 4.75,77.99 C78.54,76.94 80.02,13.86 81.5,2.5 C82.96,-8.68 75.9,-78.05 3.75,-80.46 C1.72,-80.53 -0.37,-80.54 -2.5,-80.5z ;M-120 -79.5 C-198,-78 -196,1.5 -196,3 C-196,4.5 -192,78.5 -115.5,79 C-114.57,79.01 116.84,78 117.75,77.99 C191.54,76.94 193.02,13.86 194.5,2.5 C195.96,-8.68 188.9,-78.05 116.75,-80.46 C114.72,-80.53 -117.86,-79.54 -120,-79.5z ;M-120 -79.5 C-198,-78 -196,1.5 -196,3 C-196,4.5 -192,78.5 -115.5,79 C-114.57,79.01 116.84,78 117.75,77.99 C191.54,76.94 193.02,13.86 194.5,2.5 C195.96,-8.68 188.9,-78.05 116.75,-80.46 C114.72,-80.53 -117.86,-79.54 -120,-79.5z " keySplines="0.167 0.167 0.833 0.833;0.167 0.167 0.833 0.833;0 0 0 0" calcMode="spline"/><animateMotion repeatCount="indefinite" dur="5.1666667s" begin="0s" xlink:href="#_R_G_L_4_G" fill="freeze" keyTimes="0;0.2483871;0.3483871;0.383871;1" path="M720 389 C720,389 720,389 720,389 C697.56,388.14 495.5,381.75 420,378.86 C401.79,378.16 424.8,379.17 420.5,379 C420.5,379 420.5,379 420.5,379 " keyPoints="0;0;0.95;1;1" keySplines="0.333 0 0.833 0.87;0.333 0 0.833 0.87;0.167 0.871 0.833 0.833;0 0 0 0" calcMode="spline"/><animateTransform repeatCount="indefinite" dur="5.1666667s" begin="0s" xlink:href="#_R_G_L_4_G" fill="freeze" attributeName="transform" from="0.01 0.01" to="0.3 0.3" type="scale" additive="sum" keyTimes="0;0.0935484;0.1129032;0.1645161;0.1774194;0.2483871;0.3483871;0.383871;1" values="0.01 0.01;1 1;1 1;1.24 1;1 1;1 1;0.23395 0.23395;0.3 0.3;0.3 0.3" keySplines="0.333 0 0.47 1;0.333 0 0 1;0.333 0 0.629 1;0.333 0 0.667 1;0.333 0 0.667 1;0.3 0 0.699 0.729;0.317 0 0.786 1;0 0 0 0" calcMode="spline"/><animateTransform repeatCount="indefinite" dur="5.1666667s" begin="0s" xlink:href="#_R_G_L_3_G_D_0_P_0_G_0_T_0" fill="freeze" attributeName="transform" from="1 0.42" to="1 1" type="scale" additive="sum" keyTimes="0;0.1903226;0.2225806;1" values="1 0.42;1 0.42;1 1;1 1" keySplines="0.333 0 0.68 0.985;0.333 0 0.68 0.985;0 0 0 0" calcMode="spline"/><animateTransform repeatCount="indefinite" dur="5.1666667s" begin="0s" xlink:href="#_R_G_L_3_G_D_0_P_0_G_0_T_0" fill="freeze" attributeName="transform" from="-58 -69" to="-58 -69" type="translate" additive="sum" keyTimes="0;1" values="-58 -69;-58 -69" keySplines="0 0 1 1" calcMode="spline"/><animateTransform repeatCount="indefinite" dur="5.1666667s" begin="0s" xlink:href="#_R_G_L_3_G_D_1_P_0_G_0_T_0" fill="freeze" attributeName="transform" from="1 0.42" to="1 1" type="scale" additive="sum" keyTimes="0;0.1903226;0.2225806;1" values="1 0.42;1 0.42;1 1;1 1" keySplines="0.333 0 0.68 0.985;0.333 0 0.68 0.985;0 0 0 0" calcMode="spline"/><animateTransform repeatCount="indefinite" dur="5.1666667s" begin="0s" xlink:href="#_R_G_L_3_G_D_1_P_0_G_0_T_0" fill="freeze" attributeName="transform" from="-58 -69" to="-58 -69" type="translate" additive="sum" keyTimes="0;1" values="-58 -69;-58 -69" keySplines="0 0 1 1" calcMode="spline"/><animateMotion repeatCount="indefinite" dur="5.1666667s" begin="0s" xlink:href="#_R_G_L_3_G_N_5_T_0" fill="freeze" keyTimes="0;0.2483871;0.3483871;0.383871;1" path="M720 389 C720,389 720,389 720,389 C697.56,388.14 495.5,381.75 420,378.86 C401.79,378.16 424.8,379.17 420.5,379 C420.5,379 420.5,379 420.5,379 " keyPoints="0;0;0.95;1;1" keySplines="0.333 0 0.833 0.87;0.333 0 0.833 0.87;0.167 0.871 0.833 0.833;0 0 0 0" calcMode="spline"/><animateTransform repeatCount="indefinite" dur="5.1666667s" begin="0s" xlink:href="#_R_G_L_3_G_N_5_T_0" fill="freeze" attributeName="transform" from="0.01 0.01" to="0.3 0.3" type="scale" additive="sum" keyTimes="0;0.0935484;0.1129032;0.1645161;0.1774194;0.2483871;0.3483871;0.383871;1" values="0.01 0.01;1 1;1 1;1.24 1;1 1;1 1;0.23395 0.23395;0.3 0.3;0.3 0.3" keySplines="0.333 0 0.47 1;0.333 0 0 1;0.333 0 0.629 1;0.333 0 0.667 1;0.333 0 0.667 1;0.3 0 0.699 0.729;0.317 0 0.786 1;0 0 0 0" calcMode="spline"/><animate repeatCount="indefinite" dur="5.1666667s" begin="0s" xlink:href="#_R_G_L_3_G_N_5_T_0_M" fill="freeze" attributeName="opacity" from="0" to="1" keyTimes="0;0.1774194;0.1774197;1" values="0;0;1;1" keySplines="0 0 0 0;0 0 0 0;0 0 0 0" calcMode="spline"/><animateMotion repeatCount="indefinite" dur="5.1666667s" begin="0s" xlink:href="#_R_G_L_2_G" fill="freeze" keyTimes="0;0.2612903;0.3516129;0.3774194;1" path="M1672 389 C1672,389 1672,389 1672,389 C1534.74,389 685,389 685,389 C685,389 717,389 717,389 C717,389 717,389 717,389 " keyPoints="0;0;0.97;1;1" keySplines="0.333 0 0.667 1;0.333 0 0.667 1;0.333 0 0.667 1;0 0 0 0" calcMode="spline"/><animate repeatCount="indefinite" dur="5.1666667s" begin="0s" xlink:href="#_R_G_L_2_G_M" fill="freeze" attributeName="opacity" from="0" to="1" keyTimes="0;0.2483871;0.2483874;1" values="0;0;1;1" keySplines="0 0 0 0;0 0 0 0;0 0 0 0" calcMode="spline"/><animateMotion repeatCount="indefinite" dur="5.1666667s" begin="0s" xlink:href="#_R_G_L_1_G_L_3_G" fill="freeze" keyTimes="0;0.2483871;0.4677419;0.5193548;1" path="M720 389 C720,389 720,389 720,389 C720,389 720,389 720,389 C720,388.16 720,317.36 720,316 C720,316 720,316 720,316 " keyPoints="0;0;0;1;1" keySplines="0.167 0.167 0.833 0.833;0.167 0.167 0.833 0.833;0.167 0.167 0.833 0.833;0 0 0 0" calcMode="spline"/><animateTransform repeatCount="indefinite" dur="5.1666667s" begin="0s" xlink:href="#_R_G_L_1_G_L_3_G" fill="freeze" attributeName="transform" from="1 0.99102" to="1 0.99102" type="scale" additive="sum" keyTimes="0;0.2483871;1" values="1 0.99102;1 0.99102;1 0.99102" keySplines="0 0 1 1;0 0 0 0" calcMode="spline"/><animate repeatCount="indefinite" dur="5.1666667s" begin="0s" xlink:href="#_R_G_L_1_G_L_3_G_M" fill="freeze" attributeName="opacity" from="0" to="0" keyTimes="0;0.2483871;0.2483871;0.2483874;0.5322581;0.5322581;1" values="0;0;0;1;1;0;0" keySplines="0 0 0 0;0 0 0 0;0 0 0 0;0 0 0 0;0 0 0 0;0 0 0 0" calcMode="spline"/><animateMotion repeatCount="indefinite" dur="5.1666667s" begin="0s" xlink:href="#_R_G_L_1_G_L_2_G" fill="freeze" keyTimes="0;0.2483871;0.4677419;0.5193548;0.6548387;0.7064516;1" path="M721.75 459.25 C721.75,459.25 721.75,459.25 721.75,459.25 C721.75,459.25 721.75,459.25 721.75,459.25 C721.75,458.42 721.75,392.68 721.75,389.25 C721.75,389.25 721.75,389.25 721.75,389.25 C721.75,388.43 721.75,314.57 721.75,313.25 C721.75,313.25 721.75,313.25 721.75,313.25 " keyPoints="0;0;0;0.48;0.48;1;1" keySplines="0.167 0.167 0.833 0.833;0.167 0.167 0.833 0.833;0.167 0.167 0.833 0.833;0.167 0.167 0.833 0.833;0.167 0.167 0.833 0.833;0 0 0 0" calcMode="spline"/><animate repeatCount="indefinite" dur="5.1666667s" begin="0s" xlink:href="#_R_G_L_1_G_L_2_G_M" fill="freeze" attributeName="opacity" from="0" to="0" keyTimes="0;0.2483871;0.4677419;0.4677423;0.7193548;0.7193548;1" values="0;0;0;1;1;0;0" keySplines="0 0 0 0;0 0 0 0;0 0 0 0;0 0 0 0;0 0 0 0;0 0 0 0" calcMode="spline"/><animateMotion repeatCount="indefinite" dur="5.1666667s" begin="0s" xlink:href="#_R_G_L_1_G_L_1_G" fill="freeze" keyTimes="0;0.2483871;0.6548387;0.7064516;0.8612903;0.9129032;1" path="M717.5 460.5 C717.5,460.5 717.5,460.5 717.5,460.5 C717.5,460.5 717.5,460.5 717.5,460.5 C717.5,459.68 717.5,393.21 717.5,391.5 C717.5,391.5 717.5,391.5 717.5,391.5 C717.5,389.12 717.5,314.74 717.5,313.5 C717.5,313.5 717.5,313.5 717.5,313.5 " keyPoints="0;0;0;0.47;0.47;1;1" keySplines="0.167 0.167 0.833 0.833;0.167 0.167 0.833 0.833;0.167 0.167 0.833 0.833;0.167 0.167 0.833 0.833;0.167 0.167 0.833 0.833;0 0 0 0" calcMode="spline"/><animate repeatCount="indefinite" dur="5.1666667s" begin="0s" xlink:href="#_R_G_L_1_G_L_1_G_M" fill="freeze" attributeName="opacity" from="0" to="0" keyTimes="0;0.2483871;0.6548387;0.654839;0.9258065;0.9258065;1" values="0;0;0;1;1;0;0" keySplines="0 0 0 0;0 0 0 0;0 0 0 0;0 0 0 0;0 0 0 0;0 0 0 0" calcMode="spline"/><animateMotion repeatCount="indefinite" dur="5.1666667s" begin="0s" xlink:href="#_R_G_L_1_G_L_0_G" fill="freeze" keyTimes="0;0.2483871;0.8612903;0.9129032;1" path="M715.5 461 C715.5,461 715.5,461 715.5,461 C715.5,461 715.5,461 715.5,461 C715.5,458.58 715.5,391.26 715.5,390 C715.5,390 715.5,390 715.5,390 " keyPoints="0;0;0;1;1" keySplines="0.167 0.167 0.833 0.833;0.167 0.167 0.833 0.833;0.167 0.167 0.833 0.833;0 0 0 0" calcMode="spline"/><animate repeatCount="indefinite" dur="5.1666667s" begin="0s" xlink:href="#_R_G_L_1_G_L_0_G_M" fill="freeze" attributeName="opacity" from="0" to="1" keyTimes="0;0.2483871;0.8612903;0.8612906;1" values="0;0;0;1;1" keySplines="0 0 0 0;0 0 0 0;0 0 0 0;0 0 0 0" calcMode="spline"/><animateMotion repeatCount="indefinite" dur="5.1666667s" begin="0s" xlink:href="#_R_G_L_1_G_N_3_T_0" fill="freeze" keyTimes="0;0.2612903;0.3516129;0.3774194;1" path="M1672 389 C1672,389 1672,389 1672,389 C1534.74,389 685,389 685,389 C685,389 717,389 717,389 C717,389 717,389 717,389 " keyPoints="0;0;0.97;1;1" keySplines="0.333 0 0.667 1;0.333 0 0.667 1;0.333 0 0.667 1;0 0 0 0" calcMode="spline"/><animate repeatCount="indefinite" dur="5.1666667s" begin="0s" xlink:href="#_R_G_L_1_G_N_3_T_0_M" fill="freeze" attributeName="opacity" from="0" to="1" keyTimes="0;0.2483871;0.2483874;1" values="0;0;1;1" keySplines="0 0 0 0;0 0 0 0;0 0 0 0" calcMode="spline"/><animate repeatCount="indefinite" dur="5.1666667s" begin="0s" xlink:href="#_R_G_L_0_G_M" fill="freeze" attributeName="opacity" from="0" to="1" keyTimes="0;0.3645161;0.3645165;1" values="0;0;1;1" keySplines="0 0 0 0;0 0 0 0;0 0 0 0" calcMode="spline"/><animate attributeType="XML" attributeName="opacity" dur="5s" from="0" to="1" xlink:href="#time_group"/></defs><g id="_R_G"><g id="_R_G_L_5_G" transform=" translate(720, 389) translate(-960, -540)"><rect id="_R_G_L_5_G_S" fill="#ffffff" width="1920" height="1080"/></g><g id="_R_G_L_4_G"><path id="_R_G_L_4_G_D_0_P_0" fill="#9ca3af" fill-opacity="0" fill-rule="nonzero" d=" M-2.5 -80.5 C-80.5,-79 -78.5,0.5 -78.5,2 C-78.5,3.5 -74.5,77.5 2,78 C2.93,78.01 3.84,78 4.75,77.99 C78.54,76.94 80.02,13.86 81.5,2.5 C82.96,-8.68 75.9,-78.05 3.75,-80.46 C1.72,-80.53 -0.37,-80.54 -2.5,-80.5z "/><path id="_R_G_L_4_G_D_1_P_0" stroke="#000000" stroke-linecap="round" stroke-linejoin="round" fill="none" stroke-width="73" stroke-opacity="1" d=" M-2.5 -80.5 C-80.5,-79 -78.5,0.5 -78.5,2 C-78.5,3.5 -74.5,77.5 2,78 C2.93,78.01 3.84,78 4.75,77.99 C78.54,76.94 80.02,13.86 81.5,2.5 C82.96,-8.68 75.9,-78.05 3.75,-80.46 C1.72,-80.53 -0.37,-80.54 -2.5,-80.5z "/></g><g id="_R_G_L_3_G_N_5_T_0_M"><g id="_R_G_L_3_G_N_5_T_0"><g id="_R_G_L_3_G"><g id="_R_G_L_3_G_D_0_P_0_G_0_T_0" transform=" translate(58, 69.5)"><path id="_R_G_L_3_G_D_0_P_0" fill="#000000" fill-opacity="1" fill-rule="nonzero" d=" M52.5 10 C52.5,10 -43,9.5 -43,9.5 C-43,9.5 64,140.5 64,140.5 C64,140.5 156.5,140 156.5,140 C156.5,140 52.5,10 52.5,10z "/></g><g id="_R_G_L_3_G_D_1_P_0_G_0_T_0" transform=" translate(58, 69.5)"><path id="_R_G_L_3_G_D_1_P_0" stroke="#000000" stroke-linecap="round" stroke-linejoin="round" fill="none" stroke-width="0" stroke-opacity="1" d=" M52.5 10 C52.5,10 -43,9.5 -43,9.5 C-43,9.5 64,140.5 64,140.5 C64,140.5 156.5,140 156.5,140 C156.5,140 52.5,10 52.5,10z "/></g></g></g></g><g id="_R_G_L_2_G_M"><g id="_R_G_L_2_G"><path id="_R_G_L_2_G_D_0_P_0" fill="#000000" fill-opacity="1" fill-rule="nonzero" d=" M-194 -42.75 C-194,-42.75 -194,22.25 -194,22.25 C-194,22.25 -221.75,22.25 -221.75,22.25 C-221.75,22.25 -221.75,-42.75 -221.75,-42.75 C-221.75,-42.75 -194,-42.75 -194,-42.75z "/><path id="_R_G_L_2_G_D_1_P_0" stroke="#000000" stroke-linecap="round" stroke-linejoin="round" fill="none" stroke-width="0" stroke-opacity="1" d=" M-194 -42.75 C-194,-42.75 -194,22.25 -194,22.25 C-194,22.25 -221.75,22.25 -221.75,22.25 C-221.75,22.25 -221.75,-42.75 -221.75,-42.75 C-221.75,-42.75 -194,-42.75 -194,-42.75z "/><path id="_R_G_L_2_G_D_2_P_0" fill="#000000" fill-opacity="1" fill-rule="nonzero" d=" M-58.25 -42.5 C-58.25,-42.5 -98.75,-42.5 -98.75,-42.5 C-98.75,-42.5 -188,22.75 -188,22.75 C-188,22.75 -147.25,22.75 -147.25,22.75 C-147.25,22.75 -58.25,-42.5 -58.25,-42.5z "/><path id="_R_G_L_2_G_D_3_P_0" stroke="#000000" stroke-linecap="round" stroke-linejoin="round" fill="none" stroke-width="0" stroke-opacity="1" d=" M-58.25 -42.5 C-58.25,-42.5 -98.75,-42.5 -98.75,-42.5 C-98.75,-42.5 -188,22.75 -188,22.75 C-188,22.75 -147.25,22.75 -147.25,22.75 C-147.25,22.75 -58.25,-42.5 -58.25,-42.5z "/><path id="_R_G_L_2_G_D_4_P_0" fill="#000000" fill-opacity="1" fill-rule="nonzero" d=" M-146.5 -42.25 C-146.5,-42.25 -186.75,-42 -186.75,-42 C-186.75,-42 -97.75,22.5 -97.75,22.5 C-97.75,22.5 -57,22.5 -57,22.5 C-57,22.5 -146.5,-42.25 -146.5,-42.25z "/><path id="_R_G_L_2_G_D_5_P_0" stroke="#000000" stroke-linecap="round" stroke-linejoin="round" fill="none" stroke-width="0" stroke-opacity="1" d=" M-146.5 -42.25 C-146.5,-42.25 -186.75,-42 -186.75,-42 C-186.75,-42 -97.75,22.5 -97.75,22.5 C-97.75,22.5 -57,22.5 -57,22.5 C-57,22.5 -146.5,-42.25 -146.5,-42.25z "/></g></g><g id="_R_G_L_1_G_N_3_T_0_M"><g id="_R_G_L_1_G_N_3_T_0"><g id="_R_G_L_1_G" transform=" translate(0, 0) translate(-720, -389)"><g id="_R_G_L_1_G_L_3_G_M"><g id="_R_G_L_1_G_L_3_G"><path id="_R_G_L_1_G_L_3_G_D_0_P_0" fill="#9ca3af" fill-opacity="0" fill-rule="nonzero" d=" M60.75 -28.25 C46,-28.75 -20,-28 -20,-28 C-20,-28 -19.75,10.25 -19.75,10.25 C-19.75,10.25 62,10.5 62,10.5 C62,10.5 77.5,8.25 77.25,-9 C76.75,-21.75 68.75,-26.75 60.75,-28.25z "/><path id="_R_G_L_1_G_L_3_G_D_1_P_0" stroke="#9ca3af" stroke-linecap="round" stroke-linejoin="round" fill="none" stroke-width="26" stroke-opacity="1" d=" M60.75 -28.25 C46,-28.75 -20,-28 -20,-28 C-20,-28 -19.75,10.25 -19.75,10.25 C-19.75,10.25 62,10.5 62,10.5 C62,10.5 77.5,8.25 77.25,-9 C76.75,-21.75 68.75,-26.75 60.75,-28.25z "/><path id="_R_G_L_1_G_L_3_G_D_2_P_0" fill="#9ca3af" fill-opacity="1" fill-rule="nonzero" d=" M254 -41 C254,-41 222.25,-40.75 222.25,-40.75 C222.25,-40.75 272.25,22.75 272.25,22.75 C272.25,22.75 305.75,22.75 305.75,22.75 C305.75,22.75 356.5,-40.5 356.5,-40.5 C356.5,-40.5 325.75,-40.5 325.75,-40.5 C325.75,-40.5 289,2.5 289,2.5 C289,2.5 254,-41 254,-41z "/><path id="_R_G_L_1_G_L_3_G_D_3_P_0" stroke="#9ca3af" stroke-linecap="round" stroke-linejoin="round" fill="none" stroke-width="0" stroke-opacity="1" d=" M254 -41 C254,-41 222.25,-40.75 222.25,-40.75 C222.25,-40.75 272.25,22.75 272.25,22.75 C272.25,22.75 305.75,22.75 305.75,22.75 C305.75,22.75 356.5,-40.5 356.5,-40.5 C356.5,-40.5 325.75,-40.5 325.75,-40.5 C325.75,-40.5 289,2.5 289,2.5 C289,2.5 254,-41 254,-41z "/><path id="_R_G_L_1_G_L_3_G_D_4_P_0" fill="#9ca3af" fill-opacity="1" fill-rule="nonzero" d=" M214.5 -41.5 C214.5,-41.5 214.5,-25 214.5,-25 C214.5,-25 99.5,-25 99.5,-25 C99.5,-25 99.5,-41.5 99.5,-41.5 C99.5,-41.5 214.5,-41.5 214.5,-41.5z "/><path id="_R_G_L_1_G_L_3_G_D_5_P_0" stroke="#9ca3af" stroke-linecap="round" stroke-linejoin="round" fill="none" stroke-width="0" stroke-opacity="1" d=" M214.5 -41.5 C214.5,-41.5 214.5,-25 214.5,-25 C214.5,-25 99.5,-25 99.5,-25 C99.5,-25 99.5,-41.5 99.5,-41.5 C99.5,-41.5 214.5,-41.5 214.5,-41.5z "/><path id="_R_G_L_1_G_L_3_G_D_6_P_0" fill="#9ca3af" fill-opacity="1" fill-rule="nonzero" d=" M124 -41.5 C124,-41.5 124,22.5 124,22.5 C124,22.5 99.5,22.5 99.5,22.5 C99.5,22.5 99.5,-41.5 99.5,-41.5 C99.5,-41.5 124,-41.5 124,-41.5z "/><path id="_R_G_L_1_G_L_3_G_D_7_P_0" stroke="#9ca3af" stroke-linecap="round" stroke-linejoin="round" fill="none" stroke-width="0" stroke-opacity="1" d=" M124 -41.5 C124,-41.5 124,22.5 124,22.5 C124,22.5 99.5,22.5 99.5,22.5 C99.5,22.5 99.5,-41.5 99.5,-41.5 C99.5,-41.5 124,-41.5 124,-41.5z "/><path id="_R_G_L_1_G_L_3_G_D_8_P_0" fill="#9ca3af" fill-opacity="1" fill-rule="nonzero" d=" M214.75 -18 C214.75,-18 214.75,-2.75 214.75,-2.75 C214.75,-2.75 122.5,-2.75 122.5,-2.75 C122.5,-2.75 122.5,-18 122.5,-18 C122.5,-18 214.75,-18 214.75,-18z "/><path id="_R_G_L_1_G_L_3_G_D_9_P_0" stroke="#9ca3af" stroke-linecap="round" stroke-linejoin="round" fill="none" stroke-width="0" stroke-opacity="1" d=" M214.75 -18 C214.75,-18 214.75,-2.75 214.75,-2.75 C214.75,-2.75 122.5,-2.75 122.5,-2.75 C122.5,-2.75 122.5,-18 122.5,-18 C122.5,-18 214.75,-18 214.75,-18z "/><path id="_R_G_L_1_G_L_3_G_D_10_P_0" fill="#9ca3af" fill-opacity="1" fill-rule="nonzero" d=" M215.5 5.87 C215.5,5.87 215.5,22.38 215.5,22.38 C215.5,22.38 120.25,22.38 120.25,22.38 C120.25,22.38 120.25,5.87 120.25,5.87 C120.25,5.87 215.5,5.87 215.5,5.87z "/><path id="_R_G_L_1_G_L_3_G_D_11_P_0" stroke="#9ca3af" stroke-linecap="round" stroke-linejoin="round" fill="none" stroke-width="0" stroke-opacity="1" d=" M215.5 5.87 C215.5,5.87 215.5,22.38 215.5,22.38 C215.5,22.38 120.25,22.38 120.25,22.38 C120.25,22.38 120.25,5.87 120.25,5.87 C120.25,5.87 215.5,5.87 215.5,5.87z "/><path id="_R_G_L_1_G_L_3_G_D_12_P_0" fill="#9ca3af" fill-opacity="1" fill-rule="nonzero" d=" M-15 -41 C-15,-41 -15,22.75 -15,22.75 C-15,22.75 -32.75,22.75 -32.75,22.75 C-32.75,22.75 -32.75,-41 -32.75,-41 C-32.75,-41 -15,-41 -15,-41z "/><path id="_R_G_L_1_G_L_3_G_D_13_P_0" stroke="#9ca3af" stroke-linecap="round" stroke-linejoin="round" fill="none" stroke-width="0" stroke-opacity="1" d=" M-15 -41 C-15,-41 -15,22.75 -15,22.75 C-15,22.75 -32.75,22.75 -32.75,22.75 C-32.75,22.75 -32.75,-41 -32.75,-41 C-32.75,-41 -15,-41 -15,-41z "/></g></g><g id="_R_G_L_1_G_L_2_G_M"><g id="_R_G_L_1_G_L_2_G"><path id="_R_G_L_1_G_L_2_G_D_0_P_0" fill="#9ca3af" fill-opacity="1" fill-rule="nonzero" d=" M85.5 -41 C85.5,-41 -23,-41 -23,-41 C-23,-41 -34.5,-36 -34,-23.5 C-33.5,-11 -29,-8.25 -22,-5.75 C-13.25,-5.75 59.25,-5.75 59.25,-5.75 C59.25,-5.75 59.25,1.25 59.25,1.25 C59.25,1.25 -29.75,1.25 -29.75,1.25 C-29.75,1.25 -29.75,22.5 -29.75,22.5 C-29.75,22.5 74.25,22.5 74.25,22.5 C74.25,22.5 88.75,19.25 89.5,3.5 C89.75,-5 82.75,-11.75 70,-14 C42,-13.75 -4.5,-13.75 -4.5,-13.75 C-4.5,-13.75 -4.25,-19 -4.25,-19 C-4.25,-19 85.25,-19.5 85.25,-19.5 "/><path id="_R_G_L_1_G_L_2_G_D_1_P_0" stroke="#9ca3af" stroke-linecap="round" stroke-linejoin="round" fill="none" stroke-width="0" stroke-opacity="1" d=" M85.5 -41 C85.5,-41 -23,-41 -23,-41 C-23,-41 -34.5,-36 -34,-23.5 C-33.5,-11 -29,-8.25 -22,-5.75 C-13.25,-5.75 59.25,-5.75 59.25,-5.75 C59.25,-5.75 59.25,1.25 59.25,1.25 C59.25,1.25 -29.75,1.25 -29.75,1.25 C-29.75,1.25 -29.75,22.5 -29.75,22.5 C-29.75,22.5 74.25,22.5 74.25,22.5 C74.25,22.5 88.75,19.25 89.5,3.5 C89.75,-5 82.75,-11.75 70,-14 C42,-13.75 -4.5,-13.75 -4.5,-13.75 C-4.5,-13.75 -4.25,-19 -4.25,-19 C-4.25,-19 85.25,-19.5 85.25,-19.5 "/><path id="_R_G_L_1_G_L_2_G_D_2_P_0" fill="#9ca3af" fill-opacity="1" fill-rule="nonzero" d=" M94.75 -41.5 C94.75,-41.5 94.75,22.75 94.75,22.75 C94.75,22.75 215.25,22.75 215.25,22.75 C215.25,22.75 215.25,6.5 215.25,6.5 C215.25,6.5 123.75,6.25 123.75,6.25 C123.75,6.25 123.75,-1 123.75,-1 C123.75,-1 214.75,-1 214.75,-1 C214.75,-1 214.75,-16.5 214.75,-16.5 C214.75,-16.5 123.5,-16.5 123.5,-16.5 C123.5,-16.5 123.5,-24 123.5,-24 C123.5,-24 215.5,-24 215.5,-24 C215.5,-24 215.5,-41.25 215.5,-41.25 C215.5,-41.25 94.75,-41.5 94.75,-41.5z "/><path id="_R_G_L_1_G_L_2_G_D_3_P_0" stroke="#9ca3af" stroke-linecap="round" stroke-linejoin="round" fill="none" stroke-width="0" stroke-opacity="1" d=" M94.75 -41.5 C94.75,-41.5 94.75,22.75 94.75,22.75 C94.75,22.75 215.25,22.75 215.25,22.75 C215.25,22.75 215.25,6.5 215.25,6.5 C215.25,6.5 123.75,6.25 123.75,6.25 C123.75,6.25 123.75,-1 123.75,-1 C123.75,-1 214.75,-1 214.75,-1 C214.75,-1 214.75,-16.5 214.75,-16.5 C214.75,-16.5 123.5,-16.5 123.5,-16.5 C123.5,-16.5 123.5,-24 123.5,-24 C123.5,-24 215.5,-24 215.5,-24 C215.5,-24 215.5,-41.25 215.5,-41.25 C215.5,-41.25 94.75,-41.5 94.75,-41.5z "/><path id="_R_G_L_1_G_L_2_G_D_4_P_0" fill="#9ca3af" fill-opacity="0" fill-rule="nonzero" d=" M322.75 -30.5 C322.75,-30.5 256.75,-30.75 252.25,-30.5 C247.75,-30.25 232.75,-24.75 233.75,-9.25 C232.75,10 251.5,11.25 251.5,11.25 C251.5,11.25 321.25,11 323.75,11.25 C326.25,11.5 340.25,5.75 339.25,-10.75 C338.25,-27.25 322.75,-30.5 322.75,-30.5z "/><path id="_R_G_L_1_G_L_2_G_D_5_P_0" stroke="#9ca3af" stroke-linecap="round" stroke-linejoin="round" fill="none" stroke-width="23" stroke-opacity="1" d=" M322.75 -30.5 C322.75,-30.5 256.75,-30.75 252.25,-30.5 C247.75,-30.25 232.75,-24.75 233.75,-9.25 C232.75,10 251.5,11.25 251.5,11.25 C251.5,11.25 321.25,11 323.75,11.25 C326.25,11.5 340.25,5.75 339.25,-10.75 C338.25,-27.25 322.75,-30.5 322.75,-30.5z "/></g></g><g id="_R_G_L_1_G_L_1_G_M"><g id="_R_G_L_1_G_L_1_G"><path id="_R_G_L_1_G_L_1_G_D_0_P_0" fill="#9ca3af" fill-opacity="1" fill-rule="nonzero" d=" M51 -42.5 C51,-42.5 19,-42.5 19,-42.5 C19,-42.5 -33.5,22 -33.5,22 C-33.5,22 -2.5,22.5 -2.5,22.5 C-2.5,22.5 6.5,13.25 6.5,13.25 C6.5,13.25 64.5,13.25 64.5,13.25 C64.5,13.25 71,22 71,22 C71,22 103.5,22 103.5,22 C103.5,22 51,-42.5 51,-42.5z "/><path id="_R_G_L_1_G_L_1_G_D_1_P_0" stroke="#9ca3af" stroke-linecap="round" stroke-linejoin="round" fill="none" stroke-width="0" stroke-opacity="1" d=" M51 -42.5 C51,-42.5 19,-42.5 19,-42.5 C19,-42.5 -33.5,22 -33.5,22 C-33.5,22 -2.5,22.5 -2.5,22.5 C-2.5,22.5 6.5,13.25 6.5,13.25 C6.5,13.25 64.5,13.25 64.5,13.25 C64.5,13.25 71,22 71,22 C71,22 103.5,22 103.5,22 C103.5,22 51,-42.5 51,-42.5z "/><path id="_R_G_L_1_G_L_1_G_D_2_P_0" fill="#9ca3af" fill-opacity="0" fill-rule="nonzero" d=" M121.5 6.75 C121.5,6.75 122,-31.25 122,-31.25 C122,-31.25 204.75,-31.25 204.75,-31.25 C204.75,-31.25 217,-29.25 217,-16.75 C217,-4.25 205.75,-3.75 205.75,-3.75 C205.75,-3.75 166,-3.75 126.5,-3.75 "/><path id="_R_G_L_1_G_L_1_G_D_3_P_0" stroke="#9ca3af" stroke-linecap="round" stroke-linejoin="round" fill="none" stroke-width="24" stroke-opacity="1" d=" M121.5 6.75 C121.5,6.75 122,-31.25 122,-31.25 C122,-31.25 204.75,-31.25 204.75,-31.25 C204.75,-31.25 217,-29.25 217,-16.75 C217,-4.25 205.75,-3.75 205.75,-3.75 C205.75,-3.75 166,-3.75 126.5,-3.75 "/><path id="_R_G_L_1_G_L_1_G_D_4_P_0" fill="#9ca3af" fill-opacity="0" fill-rule="nonzero" d=" M249 1 C249,1 249,-31.25 249,-31.25 C249,-31.25 331.75,-31.25 331.75,-31.25 C331.75,-31.25 344,-29.25 344,-16.75 C344,-4.25 332.75,-3.75 332.75,-3.75 C332.75,-3.75 293,-3.75 253.5,-3.75 "/><path id="_R_G_L_1_G_L_1_G_D_5_P_0" stroke="#9ca3af" stroke-linecap="round" stroke-linejoin="round" fill="none" stroke-width="24" stroke-opacity="1" d=" M249 1 C249,1 249,-31.25 249,-31.25 C249,-31.25 331.75,-31.25 331.75,-31.25 C331.75,-31.25 344,-29.25 344,-16.75 C344,-4.25 332.75,-3.75 332.75,-3.75 C332.75,-3.75 293,-3.75 253.5,-3.75 "/><path id="_R_G_L_1_G_L_1_G_D_6_P_0" fill="#ffffff" fill-opacity="1" fill-rule="nonzero" d=" M34.75 -26.25 C34.75,-26.25 18.75,-8 18.75,-8 C18.75,-8 50.75,-8.5 50.75,-8.5 C50.75,-8.5 34.75,-26.25 34.75,-26.25z "/><path id="_R_G_L_1_G_L_1_G_D_7_P_0" stroke="#9ca3af" stroke-linecap="round" stroke-linejoin="round" fill="none" stroke-width="0" stroke-opacity="1" d=" M34.75 -26.25 C34.75,-26.25 18.75,-8 18.75,-8 C18.75,-8 50.75,-8.5 50.75,-8.5 C50.75,-8.5 34.75,-26.25 34.75,-26.25z "/><path id="_R_G_L_1_G_L_1_G_D_8_P_0" fill="#9ca3af" fill-opacity="1" fill-rule="nonzero" d=" M134.25 -43.5 C134.25,-43.5 134.25,22 134.25,22 C134.25,22 109.5,22 109.5,22 C109.5,22 109.5,-43.5 109.5,-43.5 C109.5,-43.5 134.25,-43.5 134.25,-43.5z "/><path id="_R_G_L_1_G_L_1_G_D_9_P_0" stroke="#9ca3af" stroke-linecap="round" stroke-linejoin="round" fill="none" stroke-width="0" stroke-opacity="1" d=" M134.25 -43.5 C134.25,-43.5 134.25,22 134.25,22 C134.25,22 109.5,22 109.5,22 C109.5,22 109.5,-43.5 109.5,-43.5 C109.5,-43.5 134.25,-43.5 134.25,-43.5z "/><path id="_R_G_L_1_G_L_1_G_D_10_P_0" fill="#9ca3af" fill-opacity="1" fill-rule="nonzero" d=" M261 -43.5 C261,-43.5 261,22.5 261,22.5 C261,22.5 236.75,22.5 236.75,22.5 C236.75,22.5 236.75,-43.5 236.75,-43.5 C236.75,-43.5 261,-43.5 261,-43.5z "/><path id="_R_G_L_1_G_L_1_G_D_11_P_0" stroke="#9ca3af" stroke-linecap="round" stroke-linejoin="round" fill="none" stroke-width="0" stroke-opacity="1" d=" M261 -43.5 C261,-43.5 261,22.5 261,22.5 C261,22.5 236.75,22.5 236.75,22.5 C236.75,22.5 236.75,-43.5 236.75,-43.5 C236.75,-43.5 261,-43.5 261,-43.5z "/><path id="_R_G_L_1_G_L_1_G_D_12_P_0" fill="#9ca3af" fill-opacity="1" fill-rule="nonzero" d=" M204.5 -15.37 C204.5,-15.37 204.5,8.25 204.5,8.25 C204.5,8.25 134.25,8.25 134.25,8.25 C134.25,8.25 134.25,-15.37 134.25,-15.37 C134.25,-15.37 204.5,-15.37 204.5,-15.37z "/><path id="_R_G_L_1_G_L_1_G_D_13_P_0" stroke="#9ca3af" stroke-linecap="round" stroke-linejoin="round" fill="none" stroke-width="0" stroke-opacity="1" d=" M204.5 -15.37 C204.5,-15.37 204.5,8.25 204.5,8.25 C204.5,8.25 134.25,8.25 134.25,8.25 C134.25,8.25 134.25,-15.37 134.25,-15.37 C134.25,-15.37 204.5,-15.37 204.5,-15.37z "/><path id="_R_G_L_1_G_L_1_G_D_14_P_0" fill="#9ca3af" fill-opacity="1" fill-rule="nonzero" d=" M203.13 -43.5 C203.13,-43.5 203.13,-19.62 203.13,-19.62 C203.13,-19.62 134.25,-19.62 134.25,-19.62 C134.25,-19.62 134.25,-43.5 134.25,-43.5 C134.25,-43.5 203.13,-43.5 203.13,-43.5z "/><path id="_R_G_L_1_G_L_1_G_D_15_P_0" stroke="#9ca3af" stroke-linecap="round" stroke-linejoin="round" fill="none" stroke-width="0" stroke-opacity="1" d=" M203.13 -43.5 C203.13,-43.5 203.13,-19.62 203.13,-19.62 C203.13,-19.62 134.25,-19.62 134.25,-19.62 C134.25,-19.62 134.25,-43.5 134.25,-43.5 C134.25,-43.5 203.13,-43.5 203.13,-43.5z "/><path id="_R_G_L_1_G_L_1_G_D_16_P_0" fill="#9ca3af" fill-opacity="1" fill-rule="nonzero" d=" M331.13 -43.37 C331.13,-43.37 331.13,-19.62 331.13,-19.62 C331.13,-19.62 261.25,-19.62 261.25,-19.62 C261.25,-19.62 261.25,-43.37 261.25,-43.37 C261.25,-43.37 331.13,-43.37 331.13,-43.37z "/><path id="_R_G_L_1_G_L_1_G_D_17_P_0" stroke="#9ca3af" stroke-linecap="round" stroke-linejoin="round" fill="none" stroke-width="0" stroke-opacity="1" d=" M331.13 -43.37 C331.13,-43.37 331.13,-19.62 331.13,-19.62 C331.13,-19.62 261.25,-19.62 261.25,-19.62 C261.25,-19.62 261.25,-43.37 261.25,-43.37 C261.25,-43.37 331.13,-43.37 331.13,-43.37z "/><path id="_R_G_L_1_G_L_1_G_D_18_P_0" fill="#9ca3af" fill-opacity="1" fill-rule="nonzero" d=" M331.25 -15.5 C331.25,-15.5 331.25,8.38 331.25,8.38 C331.25,8.38 260.87,8.38 260.87,8.38 C260.87,8.38 260.87,-15.5 260.87,-15.5 C260.87,-15.5 331.25,-15.5 331.25,-15.5z "/><path id="_R_G_L_1_G_L_1_G_D_19_P_0" stroke="#9ca3af" stroke-linecap="round" stroke-linejoin="round" fill="none" stroke-width="0" stroke-opacity="1" d=" M331.25 -15.5 C331.25,-15.5 331.25,8.38 331.25,8.38 C331.25,8.38 260.87,8.38 260.87,8.38 C260.87,8.38 260.87,-15.5 260.87,-15.5 C260.87,-15.5 331.25,-15.5 331.25,-15.5z "/></g></g><g id="_R_G_L_1_G_L_0_G_M"><g id="_R_G_L_1_G_L_0_G"><path id="_R_G_L_1_G_L_0_G_D_0_P_0" fill="#9ca3af" fill-opacity="0" fill-rule="nonzero" d=" M50.75 -30.37 C50.75,-30.37 -1.75,-30.25 -1.75,-30.25 C-1.75,-30.25 -20.5,-29 -20.5,-9 C-20.5,11 -1.75,12 -1.25,12 C-0.75,12 31.13,12 31.13,12 "/><path id="_R_G_L_1_G_L_0_G_D_1_P_0" stroke="#9ca3af" stroke-linecap="round" stroke-linejoin="round" fill="none" stroke-width="24" stroke-opacity="1" d=" M50.75 -30.37 C50.75,-30.37 -1.75,-30.25 -1.75,-30.25 C-1.75,-30.25 -20.5,-29 -20.5,-9 C-20.5,11 -1.75,12 -1.25,12 C-0.75,12 31.13,12 31.13,12 "/><path id="_R_G_L_1_G_L_0_G_D_2_P_0" fill="#9ca3af" fill-opacity="0" fill-rule="nonzero" d=" M107.88 -3.25 C107.88,-3.25 107.5,-30.75 107.5,-30.75 C107.5,-30.75 189,-30.75 189,-30.75 C189,-30.75 201,-29.75 201,-15 C201,-0.25 188.38,-1.37 188.38,-1.37 C188.38,-1.37 113.25,-1.25 113.25,-1.25 "/><path id="_R_G_L_1_G_L_0_G_D_3_P_0" stroke="#9ca3af" stroke-linecap="round" stroke-linejoin="round" fill="none" stroke-width="24" stroke-opacity="1" d=" M107.88 -3.25 C107.88,-3.25 107.5,-30.75 107.5,-30.75 C107.5,-30.75 189,-30.75 189,-30.75 C189,-30.75 201,-29.75 201,-15 C201,-0.25 188.38,-1.37 188.38,-1.37 C188.38,-1.37 113.25,-1.25 113.25,-1.25 "/><path id="_R_G_L_1_G_L_0_G_D_4_P_0" fill="#9ca3af" fill-opacity="1" fill-rule="nonzero" d=" M261 -42 C261,-42 222.25,-42 222.25,-42 C222.25,-42 222.25,22.75 222.25,22.75 C222.25,22.75 251.25,23.25 251.25,23.25 C251.25,23.25 251.25,-13 251.25,-13 C251.25,-13 280.75,22.75 280.75,22.75 C280.75,22.75 314.25,22.75 314.25,22.75 C314.25,22.75 343.25,-14 343.25,-14 C343.25,-14 343.25,23 343.25,23 C343.25,23 368.25,23.25 368.25,23.25 C368.25,23.25 367.5,-41.25 367.5,-41.25 C367.5,-41.25 333.25,-41.25 333.25,-41.25 C333.25,-41.25 297,2.25 297,2.25 C297,2.25 261,-42 261,-42z "/><path id="_R_G_L_1_G_L_0_G_D_5_P_0" stroke="#9ca3af" stroke-linecap="round" stroke-linejoin="round" fill="none" stroke-width="0" stroke-opacity="1" d=" M261 -42 C261,-42 222.25,-42 222.25,-42 C222.25,-42 222.25,22.75 222.25,22.75 C222.25,22.75 251.25,23.25 251.25,23.25 C251.25,23.25 251.25,-13 251.25,-13 C251.25,-13 280.75,22.75 280.75,22.75 C280.75,22.75 314.25,22.75 314.25,22.75 C314.25,22.75 343.25,-14 343.25,-14 C343.25,-14 343.25,23 343.25,23 C343.25,23 368.25,23.25 368.25,23.25 C368.25,23.25 367.5,-41.25 367.5,-41.25 C367.5,-41.25 333.25,-41.25 333.25,-41.25 C333.25,-41.25 297,2.25 297,2.25 C297,2.25 261,-42 261,-42z "/><path id="_R_G_L_1_G_L_0_G_D_6_P_0" fill="#9ca3af" fill-opacity="1" fill-rule="nonzero" d=" M193.75 6.5 C193.75,6.5 161.13,6.38 161.13,6.38 C161.13,6.38 178,23 178,23 C178,23 215.25,23 215.25,23 C215.25,23 193.75,6.5 193.75,6.5z "/><path id="_R_G_L_1_G_L_0_G_D_7_P_0" stroke="#9ca3af" stroke-linecap="round" stroke-linejoin="round" fill="none" stroke-width="0" stroke-opacity="1" d=" M193.75 6.5 C193.75,6.5 161.13,6.38 161.13,6.38 C161.13,6.38 178,23 178,23 C178,23 215.25,23 215.25,23 C215.25,23 193.75,6.5 193.75,6.5z "/><path id="_R_G_L_1_G_L_0_G_D_8_P_0" fill="#9ca3af" fill-opacity="1" fill-rule="nonzero" d=" M85.66 -42.49 C85.66,-42.49 85.66,-18.26 85.66,-18.26 C85.66,-18.26 2.34,-18.26 2.34,-18.26 C2.34,-18.26 2.34,-42.49 2.34,-42.49 C2.34,-42.49 85.66,-42.49 85.66,-42.49z "/><path id="_R_G_L_1_G_L_0_G_D_9_P_0" stroke="#9ca3af" stroke-linecap="round" stroke-linejoin="round" fill="none" stroke-width="0" stroke-opacity="1" d=" M85.66 -42.49 C85.66,-42.49 85.66,-18.26 85.66,-18.26 C85.66,-18.26 2.34,-18.26 2.34,-18.26 C2.34,-18.26 2.34,-42.49 2.34,-42.49 C2.34,-42.49 85.66,-42.49 85.66,-42.49z "/><path id="_R_G_L_1_G_L_0_G_D_10_P_0" fill="#9ca3af" fill-opacity="1" fill-rule="nonzero" d=" M85.62 0 C85.62,0 85.62,23.75 85.62,23.75 C85.62,23.75 1,23.75 1,23.75 C1,23.75 1,0 1,0 C1,0 85.62,0 85.62,0z "/><path id="_R_G_L_1_G_L_0_G_D_11_P_0" stroke="#9ca3af" stroke-linecap="round" stroke-linejoin="round" fill="none" stroke-width="0" stroke-opacity="1" d=" M85.62 0 C85.62,0 85.62,23.75 85.62,23.75 C85.62,23.75 1,23.75 1,23.75 C1,23.75 1,0 1,0 C1,0 85.62,0 85.62,0z "/><path id="_R_G_L_1_G_L_0_G_D_12_P_0" fill="#9ca3af" fill-opacity="1" fill-rule="nonzero" d=" M118.87 -42.57 C118.87,-42.57 118.87,24.45 118.87,24.45 C118.87,24.45 95.38,24.45 95.38,24.45 C95.38,24.45 95.38,-42.57 95.38,-42.57 C95.38,-42.57 118.87,-42.57 118.87,-42.57z "/><path id="_R_G_L_1_G_L_0_G_D_13_P_0" stroke="#9ca3af" stroke-linecap="round" stroke-linejoin="round" fill="none" stroke-width="0" stroke-opacity="1" d=" M118.87 -42.57 C118.87,-42.57 118.87,24.45 118.87,24.45 C118.87,24.45 95.38,24.45 95.38,24.45 C95.38,24.45 95.38,-42.57 95.38,-42.57 C95.38,-42.57 118.87,-42.57 118.87,-42.57z "/></g></g></g></g></g><g id="_R_G_L_0_G_M"><g id="_R_G_L_0_G" transform=" translate(720, 389) translate(0, 0)"><path id="_R_G_L_0_G_D_0_P_0" fill="#ffffff" fill-opacity="1" fill-rule="nonzero" d=" M366 -165 C366,-165 366,-47 366,-47 C366,-47 -45,-47 -45,-47 C-45,-47 -45,-165 -45,-165 C-45,-165 366,-165 366,-165z "/><path id="_R_G_L_0_G_D_1_P_0" stroke="#9ca3af" stroke-linecap="round" stroke-linejoin="round" fill="none" stroke-width="0" stroke-opacity="1" d=" M366 -165 C366,-165 366,-47 366,-47 C366,-47 -45,-47 -45,-47 C-45,-47 -45,-165 -45,-165 C-45,-165 366,-165 366,-165z "/><path id="_R_G_L_0_G_D_2_P_0" fill="#ffffff" fill-opacity="1" fill-rule="nonzero" d=" M372 26 C372,26 372,191 372,191 C372,191 -44,191 -44,191 C-44,191 -44,26 -44,26 C-44,26 372,26 372,26z "/><path id="_R_G_L_0_G_D_3_P_0" stroke="#9ca3af" stroke-linecap="round" stroke-linejoin="round" fill="none" stroke-width="0" stroke-opacity="1" d=" M372 26 C372,26 372,191 372,191 C372,191 -44,191 -44,191 C-44,191 -44,26 -44,26 C-44,26 372,26 372,26z "/></g></g></g><g id="time_group"/>
    <script type="application/ecmascript">
        <![CDATA[
            var animation = document.querySelector('animate');
            animation.addEventListener('endEvent', function() {
                // Посылаем сообщение в родительский документ
                parent.postMessage('animationEnded', '*');
            });
        ]]>
    </script>
</svg>