<svg width="57" height="52" viewBox="0 0 57 52" fill="none" xmlns="http://www.w3.org/2000/svg">
<path d="M14.9512 47.0007C14.9512 44.9135 16.6416 43.223 18.7288 43.223H40.7251C42.8123 43.223 44.5028 44.9151 44.5028 47.0007V47.2222C44.5028 49.3094 42.8107 50.9999 40.7251 50.9999H18.7288C16.6416 50.9999 14.9512 49.3078 14.9512 47.2222V47.0007Z" stroke="#004A81" stroke-width="2" stroke-miterlimit="3.8637"/>
<path d="M24.0906 34.774V43.2233" stroke="#004A81" stroke-width="2" stroke-miterlimit="3.8637"/>
<path d="M35.5603 34.774V43.2233" stroke="#004A81" stroke-width="2" stroke-miterlimit="3.8637"/>
<path d="M48.9109 31.9587L54.8888 38.014C56.2709 39.3977 56.2709 41.6382 54.8888 43.0219C53.3595 44.5513 51.1174 44.5513 49.7337 43.1676L41.4378 34.9244C41.4378 34.9244 25.799 34.9166 22.5094 34.9244C19.6506 34.9306 18.0036 33.4477 18.0036 33.4477L10.5583 26.0025L2.03776 17.4819C0.65408 16.0982 0.65408 13.8562 2.03776 12.474C3.56709 10.9447 5.80918 10.9447 7.19131 12.3284L15.7909 20.8489L22.3731 27.4311H41.6253C41.6253 27.4311 44.0068 27.3195 45.8817 29.0705C47.7907 30.8539 48.9109 31.9587 48.9109 31.9587Z" stroke="#004A81" stroke-width="2" stroke-miterlimit="3.8637"/>
<path d="M25.6904 21.2315H41.8887" stroke="#004A81" stroke-width="2" stroke-miterlimit="3.8637"/>
<path d="M33.4154 21.3308C33.2651 21.3819 29.1265 27.2637 29.1265 27.2637" stroke="#004A81" stroke-width="2" stroke-miterlimit="3.8637"/>
<path fill-rule="evenodd" clip-rule="evenodd" d="M16.7703 4.93877L25.4411 13.0084C25.4411 13.0084 29.2559 8.36001 25.5914 4.69085C21.0592 0.15244 16.7703 4.93877 16.7703 4.93877Z" stroke="#004A81" stroke-width="2" stroke-miterlimit="3.8637"/>
<path d="M25.5918 4.54055C25.5918 4.54055 28.5854 1 32.1724 1C35.7579 1 43.4836 1 43.4836 1C43.4836 1 48.7642 1.00465 48.7642 7.38074C48.7642 13.7568 48.7642 23.723 48.7642 23.723" stroke="#004A81" stroke-width="2" stroke-miterlimit="3.8637"/>
</svg>
