<svg width="64" height="53" viewBox="0 0 64 53" fill="none" xmlns="http://www.w3.org/2000/svg">
<path d="M47.2533 14.7242C49.1879 14.7242 50.7562 13.1559 50.7562 11.2213C50.7562 9.28675 49.1879 7.71847 47.2533 7.71847C45.3188 7.71847 43.7505 9.28675 43.7505 11.2213C43.7505 13.1559 45.3188 14.7242 47.2533 14.7242Z" stroke="#004A81" stroke-width="2" stroke-miterlimit="3.8637"/>
<path d="M15.9211 11.1578H30.3471" stroke="#004A81" stroke-width="2" stroke-miterlimit="3.8637"/>
<path d="M15.9211 16.4758H25.5058" stroke="#004A81" stroke-width="2" stroke-miterlimit="3.8637"/>
<path d="M15.7922 33.6063H20.4115" stroke="#004A81" stroke-width="2" stroke-miterlimit="3.8637"/>
<path d="M37.6386 38.3222H7.86433H0" stroke="#004A81" stroke-width="2" stroke-miterlimit="3.8637"/>
<path d="M7.80127 38.3203V1H57.7014V14.5642" stroke="#004A81" stroke-width="2" stroke-miterlimit="3.8637"/>
<path d="M52.4146 23.7031V49.8457C51.9643 52.552 47.7192 52.5256 47.1603 49.8457C46.4647 52.788 42.2849 52.6296 42.0659 49.8457V23.8305H32.4812C32.4812 23.8305 29.778 24.0836 29.8324 20.9176C29.882 18.0405 32.6396 18.2905 32.6396 18.2905H44.5813L47.2892 22.2716L50.1228 18.2594H54.1986C54.1986 18.2594 56.3009 18.0374 56.3009 21.444C56.3009 24.8506 56.3009 32.2693 56.3009 32.2693C56.3009 32.2693 56.5866 36.2178 52.4798 36.2178" stroke="#004A81" stroke-width="2" stroke-miterlimit="3.8637"/>
<path d="M47.1958 50.0184V34.6841" stroke="#004A81" stroke-width="2" stroke-miterlimit="3.8637"/>
<path d="M57.3792 38.3222H63.9998" stroke="#004A81" stroke-width="2" stroke-miterlimit="3.8637"/>
</svg>
