<svg width="59" height="52" viewBox="0 0 59 52" fill="none" xmlns="http://www.w3.org/2000/svg">
<path d="M15.7945 25.0463C18.3863 25.0463 20.4874 22.9452 20.4874 20.3533C20.4874 17.7615 18.3863 15.6604 15.7945 15.6604C13.2027 15.6604 11.1016 17.7615 11.1016 20.3533C11.1016 22.9452 13.2027 25.0463 15.7945 25.0463Z" stroke="#004A81" stroke-width="2" stroke-miterlimit="3.8637"/>
<path d="M6.88916 37.7463C6.88916 37.6001 7.00768 37.4831 7.15237 37.4831H24.5712C24.7174 37.4831 24.8359 37.6016 24.8359 37.7463V50.7354C24.8359 50.8816 24.7174 51.0001 24.5712 51.0001H7.15237C7.00615 51.0001 6.88916 50.8816 6.88916 50.7354V37.7463Z" stroke="#004A81" stroke-width="2" stroke-miterlimit="3.8637"/>
<path d="M15.859 45.6835C16.6564 45.6835 17.3028 45.0372 17.3028 44.2398C17.3028 43.4424 16.6564 42.7961 15.859 42.7961C15.0617 42.7961 14.4153 43.4424 14.4153 44.2398C14.4153 45.0372 15.0617 45.6835 15.859 45.6835Z" stroke="#004A81" stroke-width="2" stroke-miterlimit="3.8637"/>
<path d="M4.40753 48.0602C4.40753 48.0602 0.675033 47.1644 1.02289 43.3919C1.37228 39.6194 3.81033 32.453 3.81033 32.453C3.81033 32.453 5.10477 28.5804 7.53204 28.6312C9.42369 28.6697 12.5097 28.6312 12.5097 28.6312L15.8836 32.8009L19.3837 28.6312C19.3837 28.6312 22.4697 28.6697 24.3598 28.6312C26.7887 28.5804 28.0816 32.453 28.0816 32.453C28.0816 32.453 30.5211 39.6194 30.869 43.3919C31.2184 47.1644 27.4844 48.0602 27.4844 48.0602" stroke="#004A81" stroke-width="2" stroke-miterlimit="3.8637"/>
<path d="M42.2422 10.3859C44.8341 10.3859 46.9352 8.28478 46.9352 5.69294C46.9352 3.1011 44.8341 1 42.2422 1C39.6504 1 37.5493 3.1011 37.5493 5.69294C37.5493 8.28478 39.6504 10.3859 42.2422 10.3859Z" stroke="#004A81" stroke-width="2" stroke-miterlimit="3.8637"/>
<path d="M33.3362 23.0842C33.3362 22.938 33.4547 22.8194 33.6009 22.8194H51.0198C51.166 22.8194 51.2829 22.938 51.2829 23.0842V36.0717C51.2829 36.2179 51.1644 36.3365 51.0198 36.3365H33.6009C33.4547 36.3365 33.3362 36.2179 33.3362 36.0717V23.0842Z" stroke="#004A81" stroke-width="2" stroke-miterlimit="3.8637"/>
<path d="M42.3082 31.0236C43.1056 31.0236 43.752 30.3772 43.752 29.5798C43.752 28.7825 43.1056 28.1361 42.3082 28.1361C41.5109 28.1361 40.8645 28.7825 40.8645 29.5798C40.8645 30.3772 41.5109 31.0236 42.3082 31.0236Z" stroke="#004A81" stroke-width="2" stroke-miterlimit="3.8637"/>
<path d="M28.2227 24.7159C29.06 21.3112 30.2574 17.7911 30.2574 17.7911C30.2574 17.7911 31.5519 13.9186 33.9792 13.9693C35.8708 14.0078 38.9568 13.9693 38.9568 13.9693L42.3307 18.139L45.8293 13.9693C45.8293 13.9693 48.9153 14.0078 50.807 13.9693C53.2358 13.9201 54.5287 17.7911 54.5287 17.7911C54.5287 17.7911 56.9667 24.959 57.3161 28.73C57.664 32.501 53.9315 33.3983 53.9315 33.3983" stroke="#004A81" stroke-width="2" stroke-miterlimit="3.8637"/>
<path d="M29.251 36.3381H55.7494" stroke="#004A81" stroke-width="2" stroke-miterlimit="3.8637"/>
</svg>
