<svg width="111" height="28" viewBox="0 0 111 28" fill="none" xmlns="http://www.w3.org/2000/svg">
<path d="M36.4106 0.5C38.0289 0.5 39.5572 0.830379 40.9957 1.49114C42.4341 2.1519 43.6815 3.0519 44.7379 4.19114C45.8167 5.30759 46.6595 6.61772 47.2664 8.12152C47.8957 9.60253 48.2104 11.1633 48.2104 12.8038C48.2104 14.3304 47.9407 15.7886 47.4012 17.1785C46.8843 18.5456 46.1651 19.776 45.2436 20.8696C44.3221 21.9633 43.232 22.8747 41.9734 23.6038C40.7372 24.3329 39.3999 24.8 37.9615 25.0051L39.9506 27.5H30.6456L28.7239 25.1076H11.7997C10.1815 25.1076 8.65314 24.7772 7.2147 24.1165C5.77625 23.4557 4.51762 22.5671 3.43878 21.4506C2.38242 20.3114 1.53959 19.0013 0.910266 17.5203C0.303422 16.0165 0 14.4443 0 12.8038C0 11.1633 0.303422 9.60253 0.910266 8.12152C1.53959 6.61772 2.38242 5.30759 3.43878 4.19114C4.51762 3.0519 5.77625 2.1519 7.2147 1.49114C8.65314 0.830379 10.1815 0.5 11.7997 0.5H36.4106ZM34.2192 9.38608H13.9911C13.0471 9.38608 12.2493 9.71646 11.5975 10.3772C10.9457 11.038 10.6198 11.8468 10.6198 12.8038C10.6198 13.7608 10.9457 14.5696 11.5975 15.2304C12.2493 15.8911 13.0471 16.2215 13.9911 16.2215H21.6441L18.8459 12.7354L28.1508 12.7696L30.9153 16.2215H34.2192C35.1632 16.2215 35.9611 15.8911 36.6129 15.2304C37.2647 14.5696 37.5906 13.7608 37.5906 12.8038C37.5906 11.8468 37.2647 11.038 36.6129 10.3772C35.9611 9.71646 35.1632 9.38608 34.2192 9.38608Z" fill="white"/>
<path d="M50.2411 0.841772H60.8946V24.7658H50.2411V0.841772Z" fill="white"/>
<path d="M78.0956 0.841772L86.7937 7.16456L95.4918 0.841772H110.528L94.3118 12.6329L111 24.7658H95.9638L86.7937 18.1013L77.6236 24.7658H62.5873L79.2756 12.6329L63.0593 0.841772H78.0956Z" fill="white"/>
</svg>
