<svg width="23" height="24" viewBox="0 0 23 24" fill="none" xmlns="http://www.w3.org/2000/svg">
<path d="M17.2992 11.2813C18.1602 11.2813 18.8782 11.2812 19.4482 11.3578C20.0499 11.4387 20.5931 11.6167 21.0295 12.0532C21.466 12.4896 21.644 13.0328 21.7249 13.6344C21.8015 14.2045 21.8014 14.9224 21.8014 15.7835V15.8832C21.8014 16.7442 21.8015 17.4622 21.7249 18.0322C21.644 18.6339 21.466 19.1771 21.0295 19.6135C20.5931 20.05 20.0499 20.228 19.4482 20.3088C18.8782 20.3855 18.1602 20.3854 17.2992 20.3854H17.1995C16.3385 20.3854 15.6205 20.3855 15.0505 20.3088C14.4488 20.228 13.9056 20.05 13.4692 19.6135C13.0327 19.1771 12.8547 18.6339 12.7738 18.0322C12.6972 17.4622 12.6973 16.7442 12.6973 15.8832V15.7835C12.6973 14.9224 12.6972 14.2045 12.7738 13.6344C12.8547 13.0328 13.0327 12.4896 13.4692 12.0532C13.9056 11.6167 14.4488 11.4387 15.0505 11.3578C15.6205 11.2812 16.3385 11.2813 17.1995 11.2813H17.2992Z" fill="#0C0C0C"/>
<path fill-rule="evenodd" clip-rule="evenodd" d="M20.3205 4.28772C20.478 4.79302 20.196 5.33031 19.6907 5.48778C16.7126 6.4159 14.6139 9.05313 14.6139 12.1079V16.0729C14.6139 16.6022 14.1849 17.0312 13.6556 17.0312C13.1263 17.0312 12.6973 16.6022 12.6973 16.0729V12.1079C12.6973 8.13431 15.4205 4.81099 19.1205 3.65791C19.6257 3.50044 20.1631 3.78242 20.3205 4.28772Z" fill="#0C0C0C"/>
<path d="M5.79921 11.2813C6.66025 11.2813 7.37824 11.2812 7.94823 11.3578C8.54987 11.4387 9.09305 11.6167 9.52954 12.0532C9.96602 12.4896 10.144 13.0328 10.2249 13.6344C10.3015 14.2045 10.3014 14.9224 10.3014 15.7835V15.8832C10.3014 16.7442 10.3015 17.4622 10.2249 18.0322C10.144 18.6339 9.96602 19.1771 9.52954 19.6135C9.09305 20.05 8.54987 20.228 7.94823 20.3088C7.37824 20.3855 6.66025 20.3854 5.79921 20.3854H5.69953C4.83849 20.3854 4.12047 20.3855 3.55047 20.3088C2.94884 20.228 2.40566 20.05 1.96917 19.6135C1.53267 19.1771 1.35474 18.6339 1.27385 18.0322C1.19722 17.4622 1.19724 16.7442 1.19727 15.8832V15.7835C1.19724 14.9224 1.19722 14.2045 1.27385 13.6344C1.35474 13.0328 1.53267 12.4896 1.96917 12.0532C2.40566 11.6167 2.94884 11.4387 3.55047 11.3578C4.12047 11.2812 4.83846 11.2813 5.69949 11.2813H5.79921Z" fill="#0C0C0C"/>
<path fill-rule="evenodd" clip-rule="evenodd" d="M8.82053 4.28772C8.978 4.79302 8.69603 5.33031 8.19073 5.48778C5.21255 6.4159 3.11393 9.05313 3.11393 12.1079V16.0729C3.11393 16.6022 2.68487 17.0312 2.1556 17.0312C1.62633 17.0312 1.19727 16.6022 1.19727 16.0729V12.1079C1.19727 8.13431 3.92043 4.81099 7.62047 3.65791C8.12578 3.50044 8.66306 3.78242 8.82053 4.28772Z" fill="#0C0C0C"/>
</svg>
