<svg width="91" height="74" viewBox="0 0 91 74" fill="none" xmlns="http://www.w3.org/2000/svg">
<path d="M90.8096 41.433C90.6891 41.4828 90.5085 41.5526 90.2777 41.6323C89.8261 41.8016 89.1939 42.0208 88.4814 42.23C88.1201 42.3396 87.7388 42.4392 87.3474 42.5289C87.1567 42.5787 86.956 42.6185 86.7553 42.6684C86.5546 42.7082 86.3539 42.748 86.1532 42.7879C85.3504 42.9373 84.5676 43.027 83.8852 43.0469C83.3433 43.0569 82.8215 43.1764 82.3297 43.3657C81.838 43.555 81.3864 43.814 80.975 44.1228C80.1521 44.7505 79.5199 45.5574 79.1987 46.4042C78.9779 46.992 78.6367 47.4403 78.2755 47.7989C78.6568 46.9222 79.0081 46.0256 79.3292 45.1191C79.6905 44.1029 80.0015 43.0768 80.2825 42.0208C80.4933 41.2139 80.6739 40.3969 80.8345 39.5701C80.8345 39.5701 80.8345 39.5601 80.8545 39.5501C80.9549 39.4406 81.0653 39.331 81.1857 39.2314C81.3061 39.1317 81.4466 39.0421 81.5871 38.9624C81.8781 38.8129 82.2294 38.7332 82.6208 38.793C82.6208 38.793 82.8215 38.7631 83.1426 38.6934C83.4537 38.6236 83.8752 38.524 84.3067 38.3945C84.5275 38.3248 84.7482 38.255 84.959 38.1753C85.1697 38.0956 85.3704 38.006 85.5511 37.9064C85.9123 37.7171 86.2034 37.4979 86.3037 37.2688C86.4041 37.0396 86.5145 36.8404 86.6248 36.6611C86.7352 36.4718 86.8556 36.2925 86.9761 36.0932C87.0965 35.894 87.2169 35.6748 87.3373 35.4158C87.3976 35.2863 87.4578 35.1368 87.518 34.9774C87.5782 34.8181 87.6284 34.6487 87.6886 34.4494C87.7488 34.2602 87.8291 34.051 87.9395 33.8417C88.0498 33.6226 88.1803 33.4034 88.3308 33.1743C88.4713 32.9451 88.6319 32.706 88.8025 32.4669C88.9631 32.2279 89.1437 31.9888 89.3143 31.7596C89.4046 31.6401 89.4849 31.5305 89.5752 31.4209C89.6555 31.3113 89.7458 31.2017 89.8261 31.0921C89.9867 30.8829 90.1573 30.6737 90.2978 30.5143C90.5888 30.1756 90.8196 29.9166 90.9601 29.7971C90.9601 29.7971 90.7493 29.9664 90.378 30.2354C90.1974 30.3649 89.9766 30.5243 89.7358 30.6937C89.4849 30.863 89.2039 31.0523 88.9129 31.2515C88.3208 31.6301 87.6384 32.0186 86.946 32.3474C86.7754 32.4271 86.6048 32.5068 86.4342 32.5865C86.2636 32.6562 86.0829 32.726 85.9123 32.7957C85.5711 32.9252 85.24 33.0348 84.9289 33.1245C84.678 33.1942 84.4472 33.2839 84.2264 33.3934C84.0056 33.503 83.7949 33.6325 83.5942 33.782C83.2028 34.0709 82.8616 34.4295 82.5706 34.8081C81.9986 35.5752 81.6373 36.4718 81.5369 37.3385C81.4968 37.7669 81.3663 38.1455 81.2058 38.4842C81.1355 38.6336 81.0452 38.7731 80.9649 38.9026C80.9649 38.8827 80.9649 38.8627 80.975 38.8428C81.3463 36.7009 81.5269 34.5291 81.4567 32.3972C81.4567 32.2677 81.4567 32.1282 81.4466 31.9987C81.4466 31.8692 81.4366 31.7297 81.4266 31.6002C81.4266 31.4707 81.4065 31.3312 81.4065 31.2017C81.3965 31.0722 81.3864 30.9328 81.3764 30.8032C81.3663 30.6737 81.3563 30.5343 81.3463 30.4048C81.3463 30.3649 81.3463 30.3251 81.3362 30.2852C81.3463 30.2553 81.3563 30.2254 81.3764 30.1955C81.4968 29.9465 81.6574 29.6875 81.8781 29.4783C82.109 29.269 82.4 29.1097 82.7713 29.0698C82.7713 29.0698 82.8114 29.0499 82.8917 29.01C82.972 28.9702 83.0824 28.9204 83.2128 28.8506C83.4838 28.7112 83.835 28.5119 84.1963 28.2828C84.5576 28.0536 84.9188 27.7847 85.1998 27.5157C85.4708 27.2467 85.6715 26.9777 85.7016 26.7386C85.7618 26.2704 85.8622 25.8918 85.9725 25.4435C86.0026 25.3339 86.0227 25.2144 86.0428 25.0849C86.0629 24.9653 86.0829 24.8259 86.093 24.6864C86.113 24.5469 86.1231 24.3975 86.1331 24.2381C86.1331 24.0787 86.1532 23.8994 86.1331 23.7101C86.1331 23.5208 86.1431 23.3116 86.1833 23.0924C86.2034 22.9828 86.2234 22.8732 86.2435 22.7537C86.2636 22.6342 86.2937 22.5146 86.3238 22.3951C86.384 22.156 86.4542 21.9069 86.5345 21.6479C86.5747 21.5283 86.6148 21.3988 86.6549 21.2793C86.6951 21.1498 86.7352 21.0302 86.7754 20.9107C86.8556 20.6616 86.946 20.4225 87.0363 20.2034C87.1166 19.9742 87.1968 19.765 87.2771 19.5757C87.4277 19.1972 87.5682 18.8983 87.6585 18.7588C87.6585 18.7588 87.518 18.968 87.2571 19.3067C87.1266 19.4761 86.9761 19.6753 86.8055 19.8846C86.6248 20.1037 86.4342 20.3329 86.2134 20.5819C85.7819 21.0701 85.2701 21.5881 84.7482 22.0563C84.2164 22.5345 83.6544 22.9529 83.1326 23.2717C82.9218 23.4013 82.7412 23.5407 82.5706 23.7001C82.4 23.8595 82.2495 24.0289 82.119 24.2182C81.8581 24.5868 81.6674 24.9952 81.5269 25.4236C81.4567 25.6328 81.4065 25.852 81.3663 26.0711C81.3262 26.2903 81.2961 26.5095 81.2861 26.7287C81.2861 26.8382 81.2861 26.9478 81.2861 27.0574C81.2861 27.167 81.2861 27.2766 81.2861 27.3762C81.2961 27.5854 81.3262 27.7946 81.3663 28.0038C81.3864 28.1035 81.3965 28.2031 81.4065 28.3027C81.4065 28.4023 81.4165 28.502 81.4165 28.5916C81.4165 28.7809 81.4065 28.9602 81.3864 29.1296C81.3563 29.3189 81.3061 29.4982 81.256 29.6576C81.2359 29.5181 81.2259 29.3786 81.2058 29.2392C81.0653 28.2031 80.8847 27.1869 80.6639 26.1907C80.4331 25.2044 80.1521 24.2381 79.841 23.3016C79.7607 23.0725 79.6804 22.8434 79.6001 22.6142C79.5098 22.3851 79.4295 22.1659 79.3392 21.9368C79.2589 21.7077 79.1586 21.4885 79.0683 21.2693C79.0683 21.2095 79.0683 21.1498 79.0783 21.08C79.1184 20.821 79.1887 20.5421 79.3292 20.293C79.4797 20.044 79.6905 19.8248 80.0216 19.6853C80.0216 19.6853 80.1621 19.5658 80.3628 19.3665C80.5635 19.1673 80.8244 18.8983 81.0854 18.5895C81.3463 18.2906 81.5972 17.9519 81.7778 17.6331C81.9484 17.3242 82.0487 17.0254 82.0086 16.8062C81.9885 16.6966 81.9785 16.587 81.9584 16.4874C81.9484 16.3778 81.9283 16.2782 81.9183 16.1786C81.8982 15.9694 81.8781 15.7602 81.8581 15.541C81.828 15.3218 81.7979 15.0827 81.7477 14.8137C81.7176 14.6842 81.6875 14.5448 81.6574 14.3953C81.6172 14.2459 81.5671 14.0865 81.5169 13.9271C81.3061 13.2596 81.266 12.2534 81.2961 11.3269C81.3061 10.8687 81.3362 10.4303 81.3764 10.0717C81.4065 9.71304 81.4567 9.4341 81.5068 9.28466C81.5068 9.28466 81.4266 9.50384 81.2861 9.85252C81.1456 10.2012 80.9248 10.6893 80.6639 11.2273C80.5334 11.4963 80.3829 11.7752 80.2223 12.0542C80.0618 12.3331 79.8912 12.622 79.7105 12.891C79.5299 13.16 79.3493 13.429 79.1586 13.678C78.9679 13.9271 78.7672 14.1662 78.5765 14.3654C78.2654 14.6942 78.0647 15.0628 77.9343 15.4613C77.8741 15.6605 77.8239 15.8598 77.8038 16.069C77.7737 16.2782 77.7737 16.4774 77.7838 16.6966C77.7838 16.9058 77.8139 17.115 77.854 17.3242C77.8741 17.4338 77.8941 17.5335 77.9142 17.6331C77.9343 17.7327 77.9644 17.8323 77.9945 17.9319C78.1149 18.3304 78.2654 18.719 78.4561 19.0676C78.5464 19.237 78.6167 19.4163 78.6769 19.5857C78.707 19.6753 78.7271 19.755 78.7471 19.8347C78.7672 19.9144 78.7873 20.0041 78.7973 20.0838C78.8274 20.303 78.8375 20.5022 78.8274 20.6915C78.8174 20.6616 78.7973 20.6317 78.7873 20.6118C78.7371 20.5022 78.6869 20.3926 78.6468 20.293C78.5966 20.1834 78.5565 20.0838 78.4963 19.9742C78.3959 19.765 78.2955 19.5558 78.1952 19.3566C78.0948 19.1473 77.9845 18.9481 77.8841 18.7489C77.8339 18.6492 77.7837 18.5496 77.7235 18.45C77.6734 18.3504 77.6131 18.2507 77.563 18.1611C77.5128 18.0615 77.4526 17.9718 77.4024 17.8722C77.3723 17.8224 77.3522 17.7726 77.3221 17.7227C77.292 17.6729 77.2619 17.6331 77.2418 17.5833C77.1315 17.394 77.0211 17.2047 76.9107 17.0254C76.8003 16.8361 76.6899 16.6568 76.5795 16.4774C76.5293 16.3878 76.4691 16.2981 76.419 16.2085C76.3587 16.1188 76.3086 16.0291 76.2484 15.9494C75.6864 15.0728 75.0341 14.2957 74.4119 13.5685C74.4119 13.5485 74.4019 13.5286 74.3918 13.5087C74.3316 13.3493 74.2614 13.1301 74.2313 12.8811C74.2012 12.632 74.1911 12.363 74.2614 12.104C74.3316 11.845 74.4821 11.5959 74.7531 11.3967C74.7531 11.3967 74.8534 11.2572 74.9839 11.038C75.1244 10.8189 75.305 10.51 75.4656 10.1813C75.8068 9.52376 76.0878 8.75666 75.9272 8.37809C75.6061 7.64088 75.4857 6.95349 74.8936 5.85763C74.7431 5.57869 74.6226 5.23001 74.5122 4.85144C74.4119 4.47287 74.3316 4.06442 74.2714 3.67589C74.161 2.89883 74.1309 2.18154 74.2012 1.91256C74.2012 1.91256 74.151 2.11181 74.0607 2.44056C73.9703 2.76932 73.8298 3.22758 73.6492 3.74562C73.298 4.77174 72.7862 6.02699 72.1941 6.91364C71.9633 7.26232 71.8429 7.64088 71.8127 8.01945C71.7826 8.39802 71.8328 8.78655 71.9532 9.16512C72.1841 9.92225 72.6557 10.6395 73.1575 11.1974C73.2879 11.3369 73.3883 11.4863 73.4886 11.6258C73.579 11.7752 73.6592 11.9147 73.7195 12.0641C73.8399 12.3531 73.9202 12.632 73.9603 12.8711C73.9703 12.9508 73.9804 13.0106 73.9804 13.0903C73.7696 12.8412 73.5689 12.6021 73.3783 12.373C73.1776 12.114 71.1203 9.85252 69.6451 8.23862C69.3942 7.80028 69.1935 7.27228 69.1935 6.66458C69.1935 5.01084 68.5011 2.92871 66.5543 2.49037C64.0956 1.94245 60.7037 0.0595703 60.7037 0.0595703C61.2657 0.378364 63.0218 2.31105 63.4232 3.57626C63.8247 4.84148 64.2662 5.44918 64.5773 6.25612C64.8884 7.05311 67.9592 7.92979 67.9592 7.92979C68.461 7.91983 68.9025 8.11907 69.2839 8.39802C69.8157 9.18504 71.4214 11.5063 71.8529 12.0243C72.1138 12.3331 72.3747 12.6519 72.6457 12.9906C72.8865 13.2895 73.1274 13.6083 73.3783 13.9371C73.2879 13.9072 73.1976 13.8673 73.1073 13.8275C72.9969 13.7777 72.8865 13.7179 72.7761 13.6482C72.6557 13.5884 72.5453 13.5087 72.4249 13.419C72.3045 13.3294 72.1941 13.2397 72.0837 13.1301C71.9733 13.0205 71.8629 12.901 71.7626 12.7715C71.7124 12.7017 71.6622 12.632 71.602 12.5722C71.5418 12.5025 71.4816 12.4427 71.4214 12.373C71.3009 12.2435 71.1605 12.1239 71.02 12.0044C70.8795 11.8848 70.7289 11.7752 70.5684 11.6756C70.4078 11.576 70.2472 11.4863 70.0766 11.4166C69.4043 11.1177 68.6416 11.038 67.909 11.3668C66.9757 11.7852 65.7314 12.114 64.7278 12.3531C64.2261 12.4726 63.7745 12.5623 63.4534 12.632C63.1322 12.6918 62.9416 12.7316 62.9416 12.7316C63.2025 12.6918 63.8648 12.7316 64.5673 12.8711C64.9285 12.9408 65.2798 13.0205 65.621 13.1301C65.9521 13.2397 66.2432 13.3592 66.474 13.4987C66.9155 13.7777 67.2768 13.957 67.608 14.1164C67.9391 14.2658 68.2302 14.3953 68.5212 14.5647C68.6717 14.6543 68.9226 14.6643 69.2337 14.6344C69.5448 14.6045 69.906 14.5348 70.2472 14.4651C70.9296 14.3057 71.5518 14.1164 71.5518 14.1164C71.8027 13.947 72.0737 13.8773 72.3346 13.8773C72.5955 13.8773 72.8464 13.957 73.0571 14.0466C73.2779 14.1363 73.4585 14.2559 73.589 14.3555C73.7195 14.4551 73.7897 14.5149 73.7897 14.5149C73.7897 14.5149 73.7997 14.5049 73.8098 14.4949C74.2814 15.1425 74.7631 15.8199 75.2348 16.5571C75.285 16.6368 75.3452 16.7265 75.3953 16.8162C75.4556 16.8959 75.5057 16.9855 75.5559 17.0752C75.6663 17.2445 75.7667 17.4239 75.877 17.6032C75.9774 17.7825 76.0878 17.9618 76.1881 18.1511C76.2182 18.2009 76.2383 18.2408 76.2684 18.2906C76.2985 18.3404 76.3186 18.3802 76.3487 18.4301C76.3989 18.5297 76.4491 18.6193 76.4992 18.709C76.5494 18.8086 76.5996 18.8983 76.6598 18.9879C76.71 19.0876 76.7602 19.1772 76.8103 19.2769C76.9107 19.4661 77.011 19.6654 77.1114 19.8646C77.2117 20.0639 77.3021 20.2631 77.4024 20.4624C77.4526 20.562 77.4927 20.6616 77.5429 20.7712C77.5931 20.8808 77.6332 20.9804 77.6834 21.08C77.7235 21.1797 77.7737 21.2892 77.8239 21.3889C77.864 21.4984 77.9142 21.5981 77.9543 21.7077C77.9242 21.6877 77.8941 21.6678 77.854 21.6379C77.7536 21.5582 77.6533 21.4785 77.5529 21.3789C77.4526 21.2892 77.3422 21.1797 77.2519 21.0601C77.1515 20.9505 77.0612 20.821 76.9709 20.6815C76.8806 20.5421 76.8003 20.4026 76.73 20.2432C76.6999 20.1635 76.6598 20.0838 76.6096 20.0041C76.5695 19.9244 76.5193 19.8447 76.4691 19.765C76.3688 19.6056 76.2584 19.4562 76.148 19.2968C76.0276 19.1473 75.8971 19.0079 75.7566 18.8784C75.6864 18.8086 75.6161 18.7489 75.5358 18.6891C75.4656 18.6293 75.3853 18.5695 75.305 18.5197C74.9839 18.3105 74.6327 18.1511 74.2513 18.0814C73.87 18.0116 73.4786 18.0216 73.0571 18.1412C72.5253 18.2906 71.9231 18.4101 71.321 18.5197C70.7189 18.6193 70.1068 18.709 69.5648 18.7887C69.2939 18.8186 69.043 18.8584 68.8122 18.8883C68.5814 18.9182 68.3807 18.9481 68.2101 18.968C67.8689 19.0079 67.6682 19.0278 67.6682 19.0278C67.9391 18.9979 68.6015 19.0876 69.2839 19.2769C69.3742 19.2968 69.4545 19.3267 69.5448 19.3566C69.6351 19.3765 69.7154 19.4163 69.7957 19.4363C69.9663 19.496 70.1268 19.5558 70.2874 19.6255C70.5985 19.765 70.8694 19.9244 71.0701 20.0938C71.2608 20.2532 71.4314 20.4026 71.602 20.5221C71.6823 20.5819 71.7626 20.6417 71.8429 20.7015C71.9231 20.7612 71.9934 20.8111 72.0737 20.8609C72.3747 21.0601 72.6356 21.2394 72.8865 21.4586C73.017 21.5682 73.2779 21.628 73.6091 21.6578C73.9402 21.6877 74.3316 21.6877 74.7029 21.6778C75.4556 21.6578 76.148 21.608 76.148 21.608C76.4591 21.4885 76.7602 21.4785 77.0311 21.5383C77.1014 21.5582 77.1616 21.5682 77.2318 21.5981C77.292 21.618 77.3522 21.6479 77.4124 21.6778C77.5329 21.7375 77.6433 21.8073 77.7436 21.887C77.9343 22.0364 78.0948 22.1958 78.2052 22.3253C78.2052 22.3452 78.2153 22.3552 78.2253 22.3751C78.3056 22.5943 78.3859 22.8135 78.4762 23.0326C78.5565 23.2518 78.6267 23.471 78.707 23.7001C79.0081 24.6067 79.269 25.5332 79.4998 26.4896C79.7206 27.4459 79.8912 28.4322 80.0317 29.4384C80.0618 29.6875 80.0919 29.9465 80.122 30.1955C80.122 30.2454 80.122 30.3051 80.142 30.3549C79.9915 30.1557 79.841 29.9166 79.7206 29.6476C79.6905 29.5679 79.6603 29.4982 79.6302 29.4185C79.6001 29.3388 79.57 29.2591 79.55 29.1794C79.4998 29.02 79.4596 28.8407 79.4396 28.6514C79.4195 28.4621 79.3794 28.2828 79.3191 28.0935C79.269 27.9042 79.1987 27.7149 79.1285 27.5256C79.0482 27.3364 78.9579 27.157 78.8475 26.9877C78.7471 26.8183 78.6267 26.649 78.4963 26.4995C78.3658 26.3501 78.2153 26.2106 78.0647 26.0911C77.9845 26.0313 77.9042 25.9715 77.8139 25.9217C77.7235 25.8719 77.6433 25.8221 77.5429 25.7822C77.1716 25.6129 76.7601 25.5232 76.2985 25.5431C76.148 25.5431 75.9975 25.5431 75.8469 25.5431C75.6964 25.5431 75.5358 25.5431 75.3753 25.5431C75.0541 25.5431 74.723 25.5133 74.4019 25.5033C74.0707 25.4834 73.7496 25.4634 73.4385 25.4435C73.1274 25.4236 72.8163 25.4037 72.5253 25.3837C71.3913 25.3041 70.5182 25.2343 70.5182 25.2343C70.6587 25.2443 70.8995 25.3041 71.1705 25.3937C71.4414 25.4933 71.7626 25.6228 72.0937 25.7922C72.2543 25.8719 72.4149 25.9715 72.5654 26.0612C72.7159 26.1608 72.8765 26.2604 73.017 26.3601C73.1575 26.4696 73.2779 26.5792 73.3883 26.6789C73.4485 26.7386 73.4987 26.7884 73.5489 26.8382C73.5689 26.8681 73.599 26.8881 73.6191 26.9179C73.6392 26.9478 73.6592 26.9777 73.6793 26.9976C73.8198 27.2069 73.9603 27.3961 74.1008 27.5655C74.2313 27.7349 74.3517 27.8843 74.4721 28.0238C74.723 28.3027 74.9337 28.5518 75.1244 28.8407C75.1746 28.9104 75.2649 28.9801 75.3753 29.0499C75.4857 29.1097 75.6362 29.1794 75.7968 29.2392C76.1179 29.3587 76.5293 29.4683 76.9207 29.558C77.3121 29.6476 77.6934 29.7273 77.9744 29.7871C78.2554 29.8469 78.436 29.8767 78.436 29.8767C78.7973 29.8369 79.1084 29.9066 79.3593 30.0461C79.6202 30.1856 79.8309 30.3848 79.9815 30.594C80.0718 30.7136 80.142 30.8232 80.2023 30.9427C80.2023 30.9427 80.2023 30.9427 80.2023 30.9626C80.2123 31.0921 80.2223 31.2217 80.2324 31.3512C80.2324 31.4807 80.2424 31.6102 80.2524 31.7297C80.2524 31.8592 80.2725 31.9888 80.2725 32.1183C80.2725 32.2478 80.2725 32.3773 80.2825 32.5068C80.3427 34.559 80.1721 36.6611 79.8109 38.7432C79.7808 38.8926 79.7507 39.0421 79.7206 39.1915C79.7005 39.1317 79.6804 39.072 79.6603 39.0122C79.6202 38.8627 79.5901 38.7034 79.56 38.534C79.55 38.4543 79.5399 38.3646 79.5299 38.275C79.5299 38.1853 79.5199 38.0956 79.5199 38.006C79.5199 37.9163 79.5199 37.8167 79.5199 37.727C79.5199 37.6274 79.5399 37.5378 79.55 37.4381C79.5801 37.2389 79.6001 37.0297 79.6001 36.8304C79.6001 36.6212 79.6001 36.412 79.57 36.1929C79.5399 35.9836 79.4998 35.7744 79.4496 35.5652C79.3894 35.356 79.3191 35.1568 79.2288 34.9675C79.1385 34.7782 79.0281 34.5989 78.9077 34.4295C78.7772 34.2602 78.6367 34.1107 78.4762 33.9713C78.145 33.7023 77.7436 33.503 77.2619 33.3934C76.6498 33.2639 75.9774 33.0647 75.3251 32.8654C74.9939 32.7658 74.6628 32.6562 74.3416 32.5566C74.0205 32.457 73.7195 32.3574 73.4284 32.2577C73.1374 32.1681 72.8665 32.0784 72.6256 32.0087C72.5052 31.9688 72.3848 31.9389 72.2844 31.8991C72.174 31.8692 72.0737 31.8294 71.9834 31.7995C71.6221 31.6799 71.4013 31.6002 71.4013 31.6002C71.4716 31.6301 71.5619 31.67 71.6723 31.7297C71.7224 31.7596 71.7826 31.7895 71.8429 31.8294C71.9031 31.8692 71.9633 31.8991 72.0335 31.9489C72.164 32.0286 72.2944 32.1183 72.4349 32.2278C72.5052 32.2777 72.5754 32.3275 72.6457 32.3872C72.7159 32.447 72.7862 32.5068 72.8564 32.5666C72.9267 32.6263 72.9969 32.6961 73.0672 32.7559C73.1374 32.8156 73.2077 32.8854 73.2679 32.9551C73.3983 33.0946 73.5187 33.234 73.6392 33.3735C73.7496 33.513 73.8499 33.6624 73.9302 33.8019C73.9703 33.8716 74.0105 33.9414 74.0406 34.0111C74.0707 34.0808 74.1008 34.1506 74.1209 34.2104C74.161 34.3399 74.2112 34.4594 74.2513 34.569C74.2915 34.6786 74.3316 34.7882 74.3818 34.8977C74.4219 34.9974 74.4721 35.097 74.5122 35.1966C74.5524 35.2962 74.5925 35.3859 74.6327 35.4756C74.6728 35.5652 74.7129 35.6549 74.7531 35.7346C74.7932 35.8242 74.8233 35.9039 74.8635 35.9836C74.9337 36.153 75.004 36.3124 75.0542 36.4917C75.1043 36.671 75.3251 36.8703 75.6362 37.0795C75.9373 37.2887 76.3186 37.5079 76.6899 37.7071C77.0612 37.9064 77.4325 38.0956 77.6934 38.2252C77.9644 38.3547 78.145 38.4443 78.145 38.4443C78.5264 38.5041 78.8174 38.6535 79.0482 38.8727C79.269 39.0819 79.4195 39.3509 79.5199 39.6C79.55 39.6697 79.56 39.7394 79.5801 39.8092C79.4396 40.4966 79.289 41.174 79.1184 41.8415C78.8475 42.8676 78.5364 43.8638 78.1952 44.8501C77.844 45.8463 77.4626 46.8127 77.0411 47.769C77.0411 47.7491 77.0411 47.7392 77.0411 47.7192C77.0411 47.5499 77.0411 47.3805 77.0612 47.2012C77.0813 47.0219 77.1013 46.8326 77.1515 46.6433C77.2017 46.454 77.2519 46.2548 77.3322 46.0555C77.6533 45.2585 77.8139 44.2822 77.6332 43.4056C77.5931 43.1864 77.5329 42.9672 77.4425 42.768C77.3522 42.5687 77.2519 42.3695 77.1214 42.1902C76.8605 41.8315 76.4992 41.5227 76.0276 41.2935C75.4355 41.0146 74.8033 40.646 74.1811 40.2575C73.5589 39.8789 72.9467 39.4804 72.4048 39.1317C71.3411 38.4443 70.5182 37.9163 70.5182 37.9163C70.6487 38.006 70.8494 38.1853 71.0601 38.4344C71.1705 38.5539 71.2809 38.6934 71.3913 38.8528C71.5017 39.0022 71.612 39.1716 71.7224 39.3409C71.8328 39.5103 71.9332 39.6896 72.0335 39.8689C72.1339 40.0483 72.2242 40.2375 72.2944 40.4169C72.3647 40.5962 72.4349 40.7755 72.4751 40.9449C72.5152 41.1142 72.5453 41.2736 72.5554 41.4231C72.5654 41.5725 72.5754 41.712 72.5855 41.8415C72.5955 41.971 72.6156 42.1005 72.6356 42.22C72.6657 42.4591 72.7059 42.6783 72.746 42.8875C72.8163 43.296 72.8966 43.6646 72.9166 44.0631C72.9267 44.2623 73.1073 44.5213 73.3582 44.8102C73.4886 44.9597 73.6392 45.1091 73.7997 45.2585C73.9603 45.408 74.1209 45.5574 74.2915 45.7069C74.6226 45.9958 74.9638 46.2647 75.2047 46.464C75.3351 46.5636 75.4355 46.6433 75.5057 46.7031C75.576 46.7629 75.6161 46.7927 75.6161 46.7927C75.9975 46.9322 76.2684 47.1613 76.4491 47.4303C76.5394 47.5598 76.6096 47.7093 76.6598 47.8587C76.71 48.0081 76.7401 48.1476 76.7601 48.297C76.7601 48.317 76.7601 48.3369 76.7601 48.3568C76.429 49.0841 76.0778 49.8014 75.7064 50.4888C74.7531 52.2521 73.6994 53.8859 72.5754 55.3404C72.5353 55.4002 72.4952 55.45 72.445 55.4998C72.4751 55.3703 72.5052 55.2507 72.5554 55.1212C72.6156 54.9419 72.6959 54.7526 72.7862 54.5733C72.8765 54.384 72.9869 54.2047 73.1274 54.0154C73.6592 53.2682 74.0506 52.3019 74.0807 51.3555C74.0908 50.8872 74.0205 50.419 73.8298 49.9906C73.6392 49.5623 73.3381 49.1737 72.9066 48.845C72.6356 48.6358 72.3547 48.4066 72.0737 48.1576C71.7927 47.9185 71.5117 47.6495 71.2307 47.3905C70.9497 47.1315 70.6788 46.8625 70.4178 46.6035C70.1569 46.3444 69.896 46.0954 69.6552 45.8563C68.7119 44.9198 67.9893 44.2025 67.9893 44.2025C68.0495 44.2623 68.1198 44.352 68.19 44.4616C68.2603 44.5711 68.3405 44.7007 68.4309 44.8601C68.5111 45.0095 68.6015 45.1788 68.6817 45.3582C68.762 45.5375 68.8423 45.7268 68.9125 45.926C68.9928 46.1253 69.053 46.3245 69.1133 46.5337C69.1735 46.7429 69.2236 46.9521 69.2538 47.1514C69.2738 47.251 69.2839 47.3506 69.3039 47.4503C69.314 47.5499 69.324 47.6395 69.324 47.7292C69.324 47.9085 69.324 48.0878 69.3039 48.2373C69.2738 48.3867 69.2638 48.5361 69.2437 48.6756C69.2337 48.8151 69.2136 48.9446 69.2036 49.0641C69.1935 49.1937 69.1835 49.3132 69.1835 49.4228C69.1835 49.5423 69.1735 49.6519 69.1634 49.7615C69.1634 49.8711 69.1634 49.9807 69.1534 50.0803C69.1534 50.1899 69.1434 50.2795 69.1333 50.3891C69.1333 50.4888 69.1233 50.5884 69.1133 50.688C69.1032 50.7876 69.0832 50.8872 69.0731 50.9869C69.053 51.0865 69.0731 51.216 69.1333 51.3555C69.1835 51.4949 69.2638 51.6643 69.3641 51.8337C69.4645 52.003 69.5849 52.1923 69.7053 52.3816C69.8358 52.5709 69.9663 52.7602 70.1068 52.9494C70.3777 53.3181 70.6487 53.6767 70.8594 53.9357C71.0601 54.1947 71.2006 54.3641 71.2006 54.3641C71.5619 54.5932 71.7726 54.8921 71.883 55.2009C71.9934 55.4898 72.0034 55.7987 71.9733 56.0776C71.03 57.2233 70.0566 58.2594 69.0731 59.136C67.9793 60.1123 66.8754 60.8994 65.8317 61.5071C65.8819 61.4473 65.9321 61.3875 65.9923 61.3178C66.2532 61.0189 66.5643 60.73 66.9557 60.4511C67.347 60.1821 67.7184 59.8334 68.0294 59.4449C68.3405 59.0464 68.5914 58.608 68.742 58.1398C68.7821 58.0203 68.8122 57.9107 68.8323 57.7911C68.8523 57.6716 68.8724 57.552 68.8824 57.4325C68.8824 57.3129 68.8925 57.1934 68.8925 57.0738C68.8925 56.9543 68.8724 56.8347 68.8523 56.7152C68.8122 56.4761 68.742 56.247 68.6416 56.0178C68.5312 55.7887 68.3907 55.5596 68.2201 55.3404C67.9993 55.0615 67.7685 54.7626 67.5477 54.4538C67.327 54.1449 67.0962 53.8162 66.8754 53.4874C66.6546 53.1686 66.4439 52.8399 66.2331 52.5211C66.0224 52.2122 65.8217 51.9034 65.631 51.6145C65.4403 51.3256 65.2597 51.0566 65.0991 50.8175C64.9386 50.5784 64.7881 50.3592 64.6676 50.1799C64.4268 49.8213 64.2863 49.6121 64.2863 49.6121C64.3766 49.7515 64.497 50.0106 64.6074 50.3393C64.6576 50.4987 64.7178 50.678 64.7579 50.8773C64.768 50.9271 64.778 50.9769 64.7981 51.0267C64.7981 51.0765 64.8182 51.1263 64.8282 51.1762C64.8483 51.2758 64.8683 51.3754 64.8884 51.485C64.9285 51.6942 64.9486 51.9034 64.9687 52.1126C64.9888 52.3218 64.9888 52.531 64.9888 52.7303C64.9888 52.9295 64.9687 53.1188 64.9386 53.2882C64.9285 53.3778 64.9085 53.4575 64.8884 53.5372C64.8683 53.607 64.8382 53.6867 64.8181 53.7464C64.788 53.8162 64.768 53.8759 64.7379 53.9457C64.7078 54.0055 64.6877 54.0652 64.6676 54.125C64.6275 54.2445 64.5873 54.3641 64.5472 54.4737C64.477 54.6928 64.4167 54.9021 64.3666 55.0913C64.3365 55.191 64.3164 55.2806 64.2863 55.3703C64.2562 55.4599 64.2361 55.5496 64.206 55.6393C64.196 55.6791 64.1759 55.7289 64.1659 55.7688L64.1458 55.8385L64.1157 55.8983C64.0856 55.978 64.0454 56.0676 64.0053 56.1473C63.9852 56.1872 63.9752 56.247 63.9652 56.3067C63.9652 56.3665 63.9652 56.4263 63.9652 56.506C63.9752 56.6554 64.0153 56.8347 64.0555 57.034C64.1458 57.4225 64.2863 57.8908 64.4268 58.3391C64.5673 58.7973 64.7078 59.2257 64.8081 59.5445C64.9185 59.8633 64.9787 60.0725 64.9787 60.0725C65.2296 60.4311 65.33 60.7898 65.3099 61.1385C65.3099 61.2281 65.2999 61.3078 65.2798 61.3975C65.2597 61.4772 65.2396 61.5569 65.2196 61.6366C65.1895 61.7163 65.1594 61.796 65.1292 61.8657C65.1292 61.8757 65.1192 61.8856 65.1092 61.8956C64.7078 62.1048 64.3164 62.2841 63.9551 62.4336C63.8247 62.4834 63.7042 62.5332 63.5838 62.583C63.4634 62.6228 63.343 62.6727 63.2225 62.7125C63.1021 62.7524 62.9917 62.7922 62.8713 62.8221C62.7609 62.852 62.6505 62.8918 62.5401 62.9217C61.6671 63.1508 60.9746 63.2405 60.503 63.2804C60.4428 63.2804 60.3926 63.2804 60.3324 63.2903C60.3023 63.2903 60.2822 63.2903 60.2621 63.2903C60.2421 63.2903 60.212 63.2903 60.1919 63.2903C60.1016 63.2903 60.0213 63.2903 59.9611 63.2903C59.8407 63.2903 58.1949 63.1608 58.1949 63.1608C58.1949 63.1608 55.114 63.0114 54.3313 62.6428C53.9198 62.4535 53.408 62.4734 53.0869 62.7723C52.7959 63.0413 53.0167 63.5294 53.1873 64.2866C53.5485 65.9004 54.9133 66.8369 54.7026 68.2316C54.7026 68.2316 55.7463 66.6875 54.9635 65.3824C54.9635 65.3824 55.0839 64.0176 57.7834 64.2866C57.7834 64.2866 58.1648 64.3065 58.6063 64.3364C58.0042 65.0337 57.4322 66.4384 59.0178 68.8094C61.2657 72.1867 61.1452 73.8006 61.1051 74.0396C61.1653 73.671 61.7775 69.6264 60.3826 68.2416C58.5461 66.4185 59.2987 65.1533 60.1919 64.3961C60.212 64.3961 60.222 64.3961 60.2421 64.3961H60.3223C60.3223 64.3961 60.3826 64.3961 60.4127 64.3961C60.4729 64.3961 60.5331 64.3961 60.6033 64.3862C61.1352 64.3463 61.918 64.2467 62.8813 63.9877C63.0018 63.9578 63.1222 63.9179 63.2526 63.8781C63.3731 63.8382 63.5035 63.8084 63.634 63.7585C63.7644 63.7187 63.8949 63.6689 64.0354 63.6191C64.1659 63.5693 64.3064 63.5095 64.4468 63.4597C64.8683 63.2903 65.3099 63.0811 65.7514 62.852C66.0425 62.8719 66.3536 62.9317 66.6446 63.0313C66.9958 63.1708 67.327 63.3899 67.5578 63.7685C67.5578 63.7685 67.7384 63.908 68.0395 64.1172C68.3405 64.3164 68.762 64.5854 69.2236 64.8245C69.4545 64.9441 69.6953 65.0636 69.9462 65.1632C70.1971 65.2629 70.4379 65.3525 70.6788 65.4123C71.1504 65.5318 71.602 65.5717 71.9031 65.4521C72.0536 65.3924 72.2041 65.3426 72.3346 65.3027C72.4751 65.2629 72.5955 65.233 72.726 65.2031C72.9768 65.1433 73.2277 65.1035 73.4886 65.0536C73.6191 65.0238 73.7596 64.9939 73.9001 64.954C73.9703 64.9341 74.0506 64.9142 74.1209 64.8843C74.2012 64.8644 74.2714 64.8345 74.3617 64.8046C74.5223 64.7448 74.7029 64.6751 74.8936 64.5854C75.0843 64.4958 75.285 64.3862 75.5057 64.2567C75.7265 64.1272 75.9874 64.0176 76.2785 63.9179C76.5795 63.8183 76.9006 63.7287 77.2418 63.649C77.5931 63.5693 77.9443 63.4995 78.3156 63.4298C78.6869 63.37 79.0582 63.3003 79.4295 63.2505C80.9047 63.0313 82.2996 62.8819 82.7211 62.8619C82.7211 62.8619 82.6408 62.8619 82.4903 62.852C82.3398 62.852 82.119 62.8321 81.848 62.8121C81.5771 62.7922 81.2459 62.7524 80.8947 62.7125C80.5334 62.6727 80.132 62.6228 79.7206 62.5531C78.8876 62.4236 77.9744 62.2443 77.1014 62.0052C76.2283 61.7761 75.4054 61.4871 74.733 61.1683C74.2012 60.9193 73.6191 60.7699 73.017 60.6902C72.7159 60.6503 72.4149 60.6304 72.1138 60.6304C71.9633 60.6304 71.8128 60.6304 71.6622 60.6403C71.5117 60.6403 71.3612 60.6603 71.2207 60.6702C71.1504 60.6702 71.0701 60.6902 70.9999 60.7001C70.9296 60.7001 70.8494 60.72 70.7791 60.73C70.6286 60.7499 70.4881 60.7798 70.3476 60.8097C70.2071 60.8396 70.0666 60.8695 69.9261 60.9093C69.7856 60.9492 69.6552 60.989 69.5247 61.0388C69.3942 61.0787 69.2638 61.1285 69.1333 61.1783C69.0029 61.2281 68.8824 61.2879 68.762 61.3477C68.5212 61.4672 68.3004 61.6067 68.0796 61.7462C67.9793 61.8159 67.8689 61.8956 67.7585 61.9554C67.6481 62.0151 67.5377 62.0749 67.4273 62.1247C67.2166 62.2243 66.9958 62.3041 66.7851 62.3539C66.7349 62.3738 66.6847 62.3838 66.6245 62.3937C66.5844 62.3937 66.5342 62.4136 66.494 62.4236C67.5979 61.776 68.742 60.9591 69.8659 59.943C70.9296 58.9966 71.9834 57.8808 72.9869 56.6355C73.1073 56.5956 73.2277 56.5458 73.3682 56.5259C73.5388 56.4861 73.7195 56.4661 73.9001 56.4661C74.2614 56.4661 74.6427 56.5458 74.9939 56.7949C74.9939 56.7949 75.0441 56.8148 75.1445 56.8347C75.2348 56.8646 75.3753 56.8945 75.5459 56.9443C75.8871 57.024 76.3487 57.1336 76.8505 57.2033C77.3422 57.283 77.8741 57.3329 78.3257 57.3129C78.436 57.3129 78.5565 57.303 78.6568 57.293C78.7572 57.283 78.8575 57.2631 78.9478 57.2432C79.1285 57.1934 79.279 57.1336 79.3994 57.0439C79.5098 56.9543 79.6202 56.8746 79.7206 56.8148C79.8209 56.7451 79.9313 56.6853 80.0317 56.6255C80.132 56.5658 80.2324 56.5159 80.3427 56.4562C80.4431 56.4064 80.5535 56.3466 80.6538 56.2868C81.0854 56.0477 81.5671 55.7489 82.1892 55.1212C82.5003 54.8024 82.982 54.5036 83.534 54.2147C83.815 54.0752 84.106 53.9357 84.4171 53.7962C84.7181 53.6568 85.0393 53.5273 85.3504 53.4077C85.6615 53.2882 85.9625 53.1686 86.2636 53.059C86.5546 52.9494 86.8356 52.8598 87.0865 52.7602C87.5882 52.5908 87.9796 52.4613 88.1803 52.4214C88.1803 52.4214 88.1 52.4314 87.9595 52.4513C87.819 52.4713 87.6183 52.5011 87.3574 52.531C87.1065 52.5609 86.8055 52.6008 86.4643 52.6406C86.1231 52.6805 85.7518 52.7104 85.3604 52.7303C84.959 52.7602 84.5475 52.7801 84.1261 52.7901C83.7046 52.7901 83.263 52.7901 82.8415 52.7901C82.6308 52.7901 82.42 52.7701 82.2093 52.7602C81.9986 52.7402 81.7979 52.7303 81.5871 52.7104C81.1857 52.6705 80.8044 52.6207 80.4531 52.551C80.1721 52.4912 79.8912 52.4713 79.6102 52.4713C79.3292 52.4713 79.0482 52.4812 78.7672 52.5211C78.2153 52.6008 77.6633 52.7502 77.1616 52.9694C76.148 53.4077 75.2749 54.0553 74.723 54.8522C74.5825 55.0515 74.432 55.2308 74.2814 55.3902C74.1209 55.5496 73.9603 55.6891 73.7897 55.8086C73.6994 55.8784 73.6091 55.9282 73.5188 55.978C74.6728 54.4737 75.7566 52.8 76.7401 50.9869C77.1616 50.2098 77.5529 49.3929 77.9343 48.566C78.1852 48.3967 78.4662 48.2472 78.7873 48.1675C78.9579 48.1277 79.1385 48.1078 79.3191 48.1078C79.4998 48.1078 79.6905 48.1576 79.8811 48.2273C79.8811 48.2273 80.7442 48.2771 81.6975 48.2074C82.1792 48.1775 82.6709 48.1078 83.0924 47.9982C83.5139 47.8886 83.8551 47.7392 84.0157 47.5299C84.0959 47.4303 84.1762 47.3407 84.2565 47.251C84.3368 47.1613 84.4171 47.0816 84.4974 47.0119C84.6579 46.8625 84.8285 46.713 84.9991 46.5536C85.1697 46.3942 85.3504 46.2149 85.5511 45.9858C85.7417 45.7567 85.9424 45.4877 86.1632 45.129C86.2736 44.9497 86.4141 44.7704 86.5847 44.5811C86.7653 44.4018 86.956 44.2125 87.1768 44.0232C87.2872 43.9336 87.3976 43.8339 87.518 43.7443C87.6284 43.6546 87.7488 43.555 87.8792 43.4653C88.1201 43.276 88.381 43.0967 88.6319 42.9174C88.8828 42.7381 89.1337 42.5687 89.3745 42.4093C89.6153 42.2499 89.8361 42.1005 90.0469 41.971C90.2576 41.8415 90.4382 41.7219 90.5988 41.6323C90.7493 41.5426 90.8798 41.4729 90.9601 41.4231C90.9601 41.4231 90.8898 41.4529 90.7694 41.5028L90.8096 41.433Z" fill="#EFB967"/>
<path d="M36.6689 62.5637C35.8862 62.9223 32.8054 63.0817 32.8054 63.0817C32.8054 63.0817 31.1596 63.2112 31.0391 63.2112C30.9789 63.2112 30.8987 63.2112 30.8083 63.2112C30.7883 63.2112 30.7582 63.2112 30.7381 63.2112C30.718 63.2112 30.6879 63.2112 30.6678 63.2112C30.6177 63.2112 30.5575 63.2112 30.4972 63.2013C30.0256 63.1714 29.3231 63.0817 28.4601 62.8426C28.3497 62.8127 28.2393 62.7729 28.1289 62.743C28.0185 62.7131 27.8981 62.6732 27.7777 62.6334C27.6573 62.5936 27.5368 62.5537 27.4164 62.5039C27.296 62.4541 27.1655 62.4043 27.0451 62.3545C26.6738 62.205 26.2824 62.0157 25.891 61.8165C25.891 61.8065 25.881 61.7966 25.871 61.7866C25.8308 61.7069 25.8007 61.6372 25.7807 61.5575C25.7506 61.4778 25.7305 61.3981 25.7204 61.3184C25.7004 61.2387 25.7004 61.149 25.6903 61.0594C25.6803 60.7107 25.7706 60.352 26.0215 59.9934C26.0215 59.9934 26.0917 59.7842 26.1921 59.4654C26.2925 59.1466 26.4329 58.7182 26.5734 58.2599C26.7139 57.8116 26.8544 57.3434 26.9447 56.9549C26.9949 56.7556 27.025 56.5763 27.0351 56.4269C27.0351 56.3571 27.0351 56.2874 27.0351 56.2276C27.0351 56.1679 27.015 56.1181 26.9949 56.0682C26.9548 55.9786 26.9247 55.8989 26.8946 55.8192L26.8745 55.7594L26.8544 55.6897C26.8544 55.6897 26.8243 55.6 26.8143 55.5602C26.7842 55.4705 26.7641 55.3808 26.734 55.2912C26.7039 55.2015 26.6838 55.1019 26.6537 55.0122C26.6035 54.823 26.5433 54.6137 26.4631 54.3946C26.4229 54.285 26.3928 54.1654 26.3426 54.0459C26.3226 53.9861 26.2925 53.9263 26.2724 53.8666C26.2523 53.8068 26.2222 53.7371 26.1921 53.6673C26.162 53.5976 26.1419 53.5279 26.1219 53.4581C26.1018 53.3784 26.0817 53.2987 26.0717 53.2091C26.0416 53.0297 26.0215 52.8504 26.0215 52.6512C26.0215 52.4519 26.0215 52.2527 26.0416 52.0335C26.0616 51.8243 26.0817 51.6151 26.1219 51.4059C26.1419 51.3063 26.162 51.1967 26.1821 51.0971C26.1921 51.0472 26.2021 50.9974 26.2122 50.9476C26.2222 50.8978 26.2322 50.848 26.2423 50.7982C26.2925 50.5989 26.3426 50.4196 26.3928 50.2602C26.5032 49.9315 26.6136 49.6724 26.7139 49.533C26.7139 49.533 26.5734 49.7521 26.3326 50.1008C26.2122 50.2801 26.0717 50.4993 25.9011 50.7384C25.7405 50.9775 25.5599 51.2564 25.3692 51.5354C25.1785 51.8243 24.9778 52.1331 24.7671 52.442C24.5564 52.7608 24.3356 53.0895 24.1248 53.4083C23.9041 53.7371 23.6833 54.0658 23.4525 54.3747C23.2317 54.6835 23.0009 54.9824 22.7801 55.2613C22.5995 55.4805 22.459 55.6996 22.3586 55.9387C22.2482 56.1679 22.188 56.397 22.1479 56.6361C22.1278 56.7556 22.1178 56.8752 22.1077 56.9947C22.1077 57.1143 22.1077 57.2338 22.1178 57.3534C22.1278 57.4729 22.1479 57.5925 22.168 57.712C22.188 57.8316 22.2282 57.9412 22.2583 58.0607C22.4088 58.5289 22.6597 58.9673 22.9708 59.3658C23.2819 59.7543 23.6532 60.1129 24.0445 60.372C24.4259 60.6409 24.747 60.9398 25.0079 61.2387C25.0581 61.2985 25.1083 61.3682 25.1685 61.428C24.1248 60.8203 23.031 60.0332 21.9271 59.0569C20.9436 58.1802 19.9702 57.1442 19.0269 55.9985C19.0068 55.7096 19.0169 55.4107 19.1172 55.1218C19.2276 54.803 19.4484 54.5141 19.7996 54.285C19.7996 54.285 19.9401 54.1156 20.1408 53.8566C20.3516 53.5976 20.6225 53.2489 20.8935 52.8703C21.034 52.6811 21.1644 52.4918 21.2949 52.3025C21.4253 52.1132 21.5357 51.9239 21.6361 51.7546C21.7364 51.5752 21.8167 51.4158 21.8669 51.2764C21.9171 51.1369 21.9371 51.0074 21.9271 50.9078C21.907 50.8081 21.897 50.7085 21.887 50.6089C21.8769 50.5093 21.8669 50.4097 21.8669 50.31C21.8669 50.2104 21.8569 50.1108 21.8468 50.0012C21.8468 49.9016 21.8468 49.792 21.8368 49.6824C21.8368 49.5728 21.8368 49.4632 21.8167 49.3437C21.8167 49.2341 21.8067 49.1046 21.7966 48.985C21.7866 48.8555 21.7665 48.726 21.7565 48.5965C21.7364 48.457 21.7264 48.3176 21.6963 48.1582C21.6662 48.0087 21.6662 47.8394 21.6762 47.6501C21.6762 47.5604 21.6863 47.4608 21.6963 47.3712C21.7063 47.2715 21.7264 47.1719 21.7465 47.0723C21.7866 46.873 21.8268 46.6638 21.887 46.4546C21.9472 46.2454 22.0074 46.0462 22.0877 45.8469C22.1579 45.6477 22.2382 45.4484 22.3185 45.2791C22.3988 45.0997 22.4891 44.9304 22.5694 44.781C22.6496 44.6315 22.7299 44.502 22.8102 44.3825C22.8905 44.2729 22.9507 44.1832 23.0109 44.1234C23.0109 44.1234 22.2884 44.8507 21.3451 45.7772C21.1042 46.0163 20.8533 46.2653 20.5824 46.5244C20.3114 46.7834 20.0405 47.0424 19.7695 47.3114C19.4885 47.5704 19.2075 47.8294 18.9266 48.0785C18.6456 48.3275 18.3646 48.5567 18.0936 48.7659C17.6621 49.0946 17.361 49.4832 17.1704 49.9115C16.9797 50.3399 16.9095 50.8081 16.9195 51.2764C16.9496 52.2228 17.351 53.1891 17.8728 53.9363C18.0033 54.1256 18.1137 54.3049 18.214 54.4942C18.3144 54.6835 18.3846 54.8628 18.4449 55.0421C18.495 55.1716 18.5251 55.3011 18.5552 55.4207C18.5151 55.3709 18.475 55.3211 18.4248 55.2613C17.3008 53.8068 16.2471 52.173 15.2938 50.4097C14.9225 49.7223 14.5712 49.005 14.2401 48.2777C14.2401 48.2578 14.2401 48.2379 14.2401 48.2179C14.2601 48.0685 14.2903 47.929 14.3404 47.7796C14.3906 47.6302 14.4609 47.4907 14.5512 47.3512C14.7318 47.0822 14.9927 46.8531 15.3841 46.7136C15.3841 46.7136 15.4242 46.6838 15.4945 46.624C15.5647 46.5642 15.6651 46.4845 15.7955 46.3849C16.0464 46.1856 16.3776 45.9167 16.7088 45.6277C16.8794 45.4783 17.0399 45.3289 17.2005 45.1794C17.361 45.03 17.5116 44.8806 17.642 44.7311C17.903 44.4422 18.0736 44.1832 18.0836 43.984C18.1037 43.5855 18.1839 43.2169 18.2542 42.8084C18.2943 42.5992 18.3345 42.38 18.3646 42.1409C18.3846 42.0214 18.3947 41.8919 18.4148 41.7624C18.4248 41.6329 18.4348 41.4934 18.4449 41.344C18.4549 41.1945 18.485 41.0351 18.5251 40.8658C18.5753 40.6964 18.6355 40.5171 18.7058 40.3378C18.776 40.1584 18.8663 39.9692 18.9667 39.7898C19.067 39.6105 19.1674 39.4312 19.2778 39.2618C19.3882 39.0925 19.4986 38.9231 19.609 38.7737C19.7193 38.6242 19.8398 38.4848 19.9401 38.3553C20.1509 38.1062 20.3516 37.9269 20.482 37.8372C20.482 37.8372 19.6591 38.3652 18.5954 39.0526C18.0535 39.4013 17.4413 39.7998 16.8191 40.1784C16.197 40.5569 15.5647 40.9255 14.9727 41.2144C14.511 41.4436 14.1397 41.7425 13.8788 42.1111C13.7483 42.2904 13.638 42.4896 13.5476 42.6889C13.4573 42.8981 13.3971 43.1073 13.357 43.3265C13.1864 44.2131 13.3369 45.1794 13.658 45.9764C13.7383 46.1757 13.7985 46.3749 13.8387 46.5642C13.8888 46.7535 13.9189 46.9428 13.929 47.1221C13.9491 47.3014 13.949 47.4807 13.949 47.6401C13.949 47.6601 13.949 47.67 13.949 47.6899C13.5276 46.7435 13.1462 45.7672 12.795 44.771C12.4438 43.7847 12.1427 42.7785 11.8717 41.7624C11.6911 41.0849 11.5406 40.4075 11.4101 39.7301C11.4302 39.6603 11.4503 39.5906 11.4703 39.5209C11.5707 39.2618 11.7212 39.0028 11.942 38.7936C12.1628 38.5844 12.4638 38.425 12.8452 38.3652C12.8452 38.3652 13.0258 38.2855 13.2968 38.1461C13.5677 38.0165 13.929 37.8273 14.3003 37.628C14.6716 37.4288 15.0529 37.2096 15.354 37.0004C15.6551 36.7912 15.8758 36.582 15.936 36.4126C15.9862 36.2333 16.0565 36.0739 16.1267 35.9045C16.1668 35.8248 16.197 35.7352 16.2371 35.6555C16.2772 35.5758 16.3174 35.4861 16.3575 35.3965C16.3977 35.3068 16.4378 35.2171 16.4779 35.1175C16.5181 35.0179 16.5683 34.9282 16.6084 34.8186C16.6485 34.7091 16.6987 34.6094 16.7389 34.4899C16.779 34.3703 16.8292 34.2508 16.8693 34.1312C16.8894 34.0715 16.9195 34.0017 16.9496 33.932C16.9797 33.8623 17.0198 33.7925 17.06 33.7228C17.1403 33.5833 17.2406 33.4438 17.351 33.2944C17.4614 33.1549 17.5919 33.0155 17.7223 32.876C17.7825 32.8063 17.8528 32.7465 17.923 32.6768C17.9933 32.617 18.0635 32.5472 18.1338 32.4875C18.204 32.4277 18.2743 32.3679 18.3445 32.3081C18.4148 32.2484 18.485 32.1986 18.5552 32.1488C18.6957 32.0392 18.8362 31.9495 18.9567 31.8698C19.0269 31.83 19.0871 31.7901 19.1473 31.7503C19.2075 31.7104 19.2678 31.6805 19.3179 31.6506C19.4283 31.5909 19.5186 31.551 19.5889 31.5211C19.5889 31.5211 19.3681 31.5909 19.0068 31.7204C18.9165 31.7503 18.8162 31.7801 18.7058 31.82C18.5954 31.8499 18.485 31.8897 18.3646 31.9296C18.1237 32.0093 17.8427 32.089 17.5618 32.1786C17.2707 32.2683 16.9697 32.3679 16.6485 32.4775C16.3274 32.5771 15.9962 32.6867 15.6651 32.7863C15.0028 32.9955 14.3404 33.1848 13.7283 33.3143C13.2466 33.4239 12.8452 33.6232 12.514 33.8922C12.3434 34.0316 12.2029 34.1811 12.0825 34.3504C11.952 34.5198 11.8416 34.6991 11.7614 34.8884C11.671 35.0777 11.5908 35.2869 11.5406 35.4861C11.4904 35.6953 11.4503 35.9045 11.4202 36.1137C11.4001 36.323 11.3901 36.5421 11.3901 36.7513C11.3901 36.9605 11.4101 37.1598 11.4402 37.359C11.4503 37.4587 11.4603 37.5483 11.4703 37.6479C11.4703 37.7476 11.4804 37.8372 11.4703 37.9269C11.4703 38.0165 11.4703 38.1062 11.4603 38.1959C11.4603 38.2855 11.4503 38.3652 11.4302 38.4549C11.4101 38.6242 11.37 38.7836 11.3298 38.9331C11.3098 38.9929 11.2897 39.0526 11.2696 39.1124C11.2395 38.963 11.2094 38.8135 11.1793 38.6641C10.818 36.5919 10.6474 34.4899 10.7077 32.4277C10.7077 32.2982 10.7077 32.1687 10.7177 32.0392C10.7177 31.9097 10.7277 31.7801 10.7378 31.6506C10.7378 31.5211 10.7578 31.4016 10.7578 31.2721C10.7679 31.1426 10.7779 31.013 10.7879 30.8835C10.7879 30.8835 10.7879 30.8736 10.7879 30.8636C10.8481 30.754 10.9184 30.6345 11.0087 30.5149C11.1592 30.3057 11.37 30.1065 11.6309 29.967C11.8918 29.8275 12.1929 29.7578 12.5541 29.7976C12.5541 29.7976 12.7348 29.7678 13.0158 29.708C13.2968 29.6482 13.6681 29.5685 14.0695 29.4789C14.4609 29.3792 14.8623 29.2796 15.1934 29.1601C15.354 29.1003 15.5045 29.0405 15.6149 28.9708C15.7353 28.911 15.8257 28.8413 15.8658 28.7616C16.0565 28.4727 16.2672 28.2236 16.5181 27.9447C16.6385 27.8052 16.7589 27.6558 16.8894 27.4864C17.0299 27.317 17.1603 27.1377 17.3109 26.9185C17.3309 26.8986 17.351 26.8687 17.3711 26.8388C17.3912 26.809 17.4112 26.789 17.4413 26.7591C17.4915 26.6994 17.5417 26.6496 17.6019 26.5997C17.7123 26.4902 17.8427 26.3806 17.9732 26.281C18.1137 26.1813 18.2642 26.0717 18.4148 25.9821C18.5753 25.8825 18.7258 25.7928 18.8864 25.7131C19.2176 25.5437 19.5387 25.4142 19.8097 25.3146C20.0906 25.215 20.3215 25.1652 20.462 25.1552C20.462 25.1552 19.5889 25.215 18.4549 25.3046C18.1639 25.3246 17.8528 25.3445 17.5417 25.3644C17.2306 25.3843 16.8994 25.4142 16.5783 25.4242C16.2572 25.4441 15.926 25.4541 15.6049 25.464C15.4443 25.464 15.2837 25.464 15.1332 25.464C14.9827 25.464 14.8322 25.464 14.6816 25.464C14.22 25.4441 13.8086 25.5338 13.4373 25.7031C13.3469 25.743 13.2566 25.7928 13.1663 25.8426C13.076 25.8924 12.9957 25.9522 12.9255 26.012C12.7649 26.1315 12.6244 26.271 12.4839 26.4204C12.3434 26.5699 12.233 26.7392 12.1327 26.9086C12.0323 27.0779 11.932 27.2672 11.8517 27.4465C11.7814 27.6358 11.7112 27.8251 11.661 28.0144C11.6108 28.2037 11.5707 28.393 11.5406 28.5723C11.5205 28.7616 11.4804 28.9309 11.4302 29.1003C11.4101 29.18 11.38 29.2597 11.3499 29.3394C11.3198 29.4191 11.2897 29.4888 11.2596 29.5685C11.1392 29.8375 10.9886 30.0766 10.8481 30.2758C10.8481 30.226 10.8481 30.1762 10.8682 30.1164C10.8983 29.8674 10.9284 29.6084 10.9585 29.3593C11.089 28.3531 11.2696 27.3668 11.4904 26.4105C11.7112 25.4541 11.9821 24.5176 12.2832 23.621C12.3635 23.3919 12.4438 23.1727 12.514 22.9535C12.5943 22.7344 12.6846 22.5152 12.7649 22.296C12.7649 22.2761 12.7749 22.2661 12.785 22.2462C12.8853 22.1167 13.0459 21.9573 13.2466 21.8079C13.3469 21.7381 13.4573 21.6584 13.5777 21.5987C13.638 21.5688 13.6982 21.5389 13.7584 21.519C13.8186 21.499 13.8888 21.4791 13.9591 21.4592C14.23 21.3994 14.5211 21.3994 14.8422 21.5289C14.8422 21.5289 15.5346 21.5887 16.2873 21.5987C16.6686 21.6086 17.06 21.5987 17.3811 21.5787C17.7123 21.5489 17.9732 21.4891 18.0936 21.3795C18.3445 21.1603 18.6054 20.981 18.9065 20.7818C18.9767 20.7319 19.057 20.6821 19.1373 20.6224C19.2176 20.5626 19.2979 20.5028 19.3781 20.443C19.5487 20.3235 19.7193 20.1741 19.91 20.0147C20.1007 19.8453 20.3716 19.6959 20.6928 19.5464C20.8533 19.4767 21.0139 19.4169 21.1845 19.3572C21.2748 19.3273 21.3551 19.2974 21.4354 19.2775C21.5257 19.2476 21.606 19.2276 21.6963 19.1978C22.3787 19.0085 23.041 18.9188 23.312 18.9487C23.312 18.9487 23.1113 18.9288 22.7701 18.8889C22.5995 18.869 22.3988 18.8391 22.168 18.8092C21.9371 18.7793 21.6863 18.7395 21.4153 18.7096C20.8734 18.6399 20.2612 18.5502 19.6591 18.4406C19.057 18.341 18.4549 18.2115 17.923 18.062C17.5116 17.9425 17.1102 17.9325 16.7288 18.0023C16.3475 18.072 15.9962 18.2314 15.6751 18.4406C15.5948 18.5004 15.5146 18.5502 15.4443 18.61C15.3741 18.6698 15.2938 18.7295 15.2235 18.7993C15.083 18.9288 14.9526 19.0682 14.8322 19.2177C14.7117 19.3671 14.6114 19.5265 14.511 19.6859C14.4609 19.7656 14.4107 19.8453 14.3705 19.925C14.3304 20.0047 14.2903 20.0844 14.2501 20.1641C14.1799 20.3235 14.0996 20.4729 14.0093 20.6024C13.9189 20.7419 13.8286 20.8615 13.7283 20.981C13.6279 21.0906 13.5276 21.2002 13.4272 21.2998C13.3269 21.3895 13.2265 21.4791 13.1262 21.5588C13.0961 21.5887 13.0659 21.6086 13.0258 21.6286C13.0659 21.519 13.1161 21.4193 13.1563 21.3098C13.1964 21.2002 13.2466 21.1006 13.2968 21.0009C13.3469 20.8913 13.3871 20.7917 13.4373 20.6921C13.4874 20.5925 13.5276 20.4829 13.5777 20.3833C13.6781 20.184 13.7684 19.9848 13.8688 19.7855C13.9691 19.5863 14.0695 19.397 14.1698 19.1978C14.22 19.0981 14.2702 19.0085 14.3204 18.9088C14.3705 18.8192 14.4207 18.7196 14.4809 18.6299C14.5311 18.5402 14.5813 18.4406 14.6315 18.351C14.6616 18.3011 14.6816 18.2613 14.7117 18.2115C14.7418 18.1617 14.7619 18.1218 14.792 18.072C14.9024 17.8827 15.0028 17.7034 15.1131 17.5241C15.2235 17.3448 15.3339 17.1654 15.4343 16.9961C15.4845 16.9064 15.5346 16.8168 15.5948 16.7371C15.645 16.6474 15.7052 16.5677 15.7554 16.478C16.2271 15.7408 16.7088 15.0534 17.1804 14.4158L17.2005 14.4358C17.2005 14.4358 17.2707 14.366 17.4012 14.2764C17.5316 14.1768 17.7123 14.0672 17.9331 13.9675C18.1538 13.8679 18.3947 13.7982 18.6556 13.7982C18.9165 13.7982 19.1875 13.858 19.4384 14.0373C19.4384 14.0373 20.0605 14.2266 20.7429 14.386C21.0841 14.4657 21.4454 14.5354 21.7565 14.5553C22.0676 14.5852 22.3285 14.5752 22.469 14.4856C22.76 14.3162 23.0511 14.1867 23.3822 14.0373C23.7034 13.8779 24.0747 13.6986 24.5162 13.4196C24.737 13.2801 25.038 13.1506 25.3692 13.051C25.7004 12.9414 26.0616 12.8617 26.4129 12.792C27.1153 12.6625 27.7877 12.6027 28.0386 12.6525C28.0386 12.6525 27.8479 12.6226 27.5268 12.5529C27.2057 12.4931 26.7541 12.3935 26.2523 12.274C25.2388 12.0349 23.9944 11.7061 23.0711 11.2877C22.3386 10.9589 21.5759 11.0386 20.9035 11.3375C20.7329 11.4072 20.5723 11.4969 20.4118 11.5965C20.2512 11.6961 20.1007 11.8057 19.9602 11.9253C19.8197 12.0448 19.6892 12.1644 19.5588 12.2939C19.4986 12.3537 19.4384 12.4234 19.3781 12.4931C19.3179 12.5529 19.2678 12.6226 19.2176 12.6924C19.1172 12.8219 19.0068 12.9414 18.8964 13.051C18.7861 13.1606 18.6656 13.2602 18.5552 13.3399C18.4348 13.4196 18.3244 13.4993 18.204 13.5691C18.0836 13.6388 17.9732 13.6986 17.8728 13.7484C17.7725 13.7882 17.6822 13.8281 17.6019 13.858C17.8528 13.5292 18.0936 13.2104 18.3345 12.9115C18.6054 12.5728 18.8764 12.2441 19.1273 11.9452C19.5588 11.4272 21.1544 9.10594 21.6963 8.31892C22.0676 8.03997 22.5192 7.84073 23.021 7.85069C23.021 7.85069 26.0917 6.97401 26.4028 6.17702C26.7139 5.38004 27.1555 4.76237 27.5569 3.49716C27.9583 2.23195 29.7145 0.299262 30.2765 -0.0195312C30.2765 -0.0195312 26.8946 1.86334 24.4259 2.41127C22.479 2.84961 21.7866 4.93173 21.7866 6.58548C21.7866 7.19318 21.5859 7.73114 21.335 8.15952C19.8598 9.77341 17.8026 12.0448 17.6019 12.2939C17.4213 12.523 17.2105 12.7721 16.9998 13.0112C16.9998 12.9414 17.0098 12.8717 17.0198 12.792C17.06 12.5429 17.1403 12.274 17.2607 11.985C17.3209 11.8356 17.4012 11.6961 17.4915 11.5467C17.5818 11.4072 17.6922 11.2578 17.8126 11.1183C18.3144 10.5505 18.7861 9.84315 19.0169 9.08601C19.1373 8.70745 19.1875 8.31892 19.1574 7.94035C19.1273 7.56178 19.0068 7.19318 18.776 6.83453C18.1839 5.94789 17.6721 4.69264 17.3209 3.66652C17.1503 3.14848 17.0098 2.69022 16.9095 2.36146C16.8191 2.0327 16.769 1.83346 16.769 1.83346C16.8392 2.10244 16.8091 2.80976 16.6987 3.59679C16.6385 3.98531 16.5582 4.39377 16.4579 4.77234C16.3575 5.1509 16.2271 5.49959 16.0866 5.77853C15.4945 6.87438 15.3741 7.56178 15.0529 8.29899C14.8924 8.67756 15.1734 9.4347 15.5146 10.1022C15.6852 10.4309 15.8658 10.7398 15.9962 10.9589C16.1367 11.1781 16.2271 11.3176 16.2271 11.3176C16.498 11.5168 16.6385 11.7659 16.7188 12.0249C16.789 12.2839 16.779 12.5529 16.7489 12.802C16.7188 13.051 16.6485 13.2702 16.5883 13.4296C16.5883 13.4595 16.5683 13.4694 16.5683 13.4894C15.9461 14.2166 15.2938 14.9937 14.7318 15.8703C14.6716 15.96 14.6214 16.0497 14.5612 16.1294C14.501 16.219 14.4508 16.3087 14.3906 16.3983C14.2802 16.5777 14.1698 16.757 14.0594 16.9463C13.9491 17.1356 13.8387 17.3149 13.7383 17.5042C13.7082 17.554 13.6881 17.5938 13.658 17.6436C13.6279 17.6934 13.6079 17.7433 13.5777 17.7931C13.5276 17.8927 13.4774 17.9824 13.4172 18.082C13.367 18.1816 13.3068 18.2812 13.2566 18.3709C13.2064 18.4705 13.1563 18.5701 13.0961 18.6698C12.9957 18.869 12.8853 19.0682 12.785 19.2775C12.6846 19.4867 12.5843 19.6959 12.4839 19.8951C12.4337 20.0047 12.3835 20.1043 12.3434 20.2139C12.2932 20.3235 12.2431 20.4231 12.2029 20.5327C12.1929 20.5626 12.1828 20.5925 12.1628 20.6124C12.1628 20.4231 12.1628 20.2239 12.1929 20.0047C12.2029 19.925 12.223 19.8453 12.2431 19.7556C12.2631 19.6759 12.2832 19.5863 12.3133 19.5066C12.3735 19.3372 12.4438 19.1579 12.5341 18.9885C12.7247 18.6399 12.8753 18.2513 12.9957 17.8528C13.0258 17.7532 13.0559 17.6536 13.076 17.554C13.0961 17.4444 13.1161 17.3448 13.1362 17.2451C13.1763 17.0359 13.1964 16.8267 13.2064 16.6175C13.2064 16.4083 13.2064 16.1991 13.1864 15.9899C13.1663 15.7807 13.1161 15.5814 13.0559 15.3822C12.9355 14.9837 12.7247 14.6151 12.4137 14.2863C12.2129 14.0771 12.0223 13.848 11.8316 13.5989C11.6409 13.3499 11.4603 13.0809 11.2797 12.8119C11.099 12.533 10.9284 12.254 10.7779 11.9751C10.6173 11.6961 10.4768 11.4172 10.3363 11.1482C10.0754 10.6102 9.85465 10.1221 9.71416 9.77341C9.57367 9.42473 9.49338 9.20556 9.49338 9.20556C9.54356 9.355 9.59374 9.63394 9.62384 9.99258C9.66398 10.3512 9.69409 10.7896 9.70412 11.2478C9.73423 12.1743 9.70412 13.1706 9.48335 13.848C9.43317 14.0174 9.38299 14.1668 9.34285 14.3162C9.30271 14.4657 9.27261 14.6051 9.25254 14.7346C9.20236 15.0036 9.16222 15.2328 9.14215 15.4619C9.12208 15.691 9.10201 15.9002 9.08194 16.0995C9.0719 16.1991 9.06187 16.3087 9.04179 16.4083C9.03176 16.5079 9.01169 16.6175 8.99162 16.7271C8.95148 16.9463 9.05183 17.2451 9.22243 17.554C9.40306 17.8728 9.65395 18.2015 9.91486 18.5104C10.1758 18.8192 10.4367 19.0882 10.6374 19.2874C10.8381 19.4767 10.9786 19.6062 10.9786 19.6062C11.3098 19.7457 11.5305 19.9649 11.671 20.2139C11.8216 20.463 11.8818 20.7419 11.9219 21.0009C11.9219 21.0707 11.9219 21.1205 11.932 21.1902C11.8416 21.4094 11.7413 21.6286 11.661 21.8577C11.5707 22.0868 11.4904 22.306 11.4001 22.5351C11.3198 22.7643 11.2395 22.9934 11.1592 23.2225C10.8481 24.159 10.5772 25.1253 10.3363 26.1116C10.1156 27.1078 9.93494 28.124 9.79444 29.1601C9.77437 29.2995 9.76434 29.439 9.74426 29.5785C9.69409 29.4191 9.64391 29.2398 9.61381 29.0505C9.59374 28.8811 9.57367 28.7018 9.5837 28.5125C9.5837 28.4228 9.5837 28.3232 9.59374 28.2236C9.59374 28.124 9.61381 28.0244 9.63388 27.9247C9.67402 27.7255 9.70412 27.5163 9.71416 27.2971C9.71416 27.1875 9.71416 27.0779 9.71416 26.9783C9.71416 26.8687 9.71416 26.7591 9.71416 26.6496C9.70412 26.4304 9.67402 26.2112 9.63388 25.992C9.59374 25.7729 9.54356 25.5537 9.47331 25.3445C9.33282 24.9161 9.14215 24.5077 8.88123 24.1391C8.75077 23.9498 8.60024 23.7804 8.42964 23.621C8.25904 23.4616 8.07841 23.3221 7.86767 23.1926C7.34583 22.8738 6.78385 22.4554 6.25198 21.9772C5.72011 21.509 5.21835 20.991 4.78683 20.5028C4.56606 20.2538 4.37539 20.0246 4.19475 19.8055C4.01412 19.5863 3.86359 19.387 3.74316 19.2276C3.49228 18.8889 3.34175 18.6797 3.34175 18.6797C3.43207 18.8192 3.56253 19.1181 3.72309 19.4966C3.80337 19.6859 3.88366 19.8951 3.96394 20.1242C4.05426 20.3534 4.13454 20.5925 4.22486 20.8316C4.265 20.9511 4.30514 21.0806 4.34528 21.2002C4.38542 21.3197 4.42556 21.4492 4.4657 21.5688C4.54599 21.8178 4.61623 22.0769 4.67644 22.316C4.70655 22.4355 4.73666 22.555 4.75673 22.6746C4.78683 22.7941 4.8069 22.9037 4.81694 23.0133C4.84704 23.2325 4.86711 23.4417 4.86711 23.631C4.86711 23.8203 4.86711 23.9896 4.86711 24.159C4.86711 24.3184 4.88719 24.4678 4.90726 24.6073C4.92733 24.7468 4.93736 24.8763 4.95743 25.0058C4.9775 25.1253 5.00761 25.2449 5.02768 25.3644C5.12803 25.8127 5.22839 26.1813 5.29863 26.6595C5.32874 26.8887 5.51941 27.1676 5.8004 27.4366C6.08139 27.7056 6.44266 27.9646 6.80393 28.2037C7.1652 28.4328 7.51643 28.6321 7.78738 28.7715C7.91784 28.8413 8.02823 28.901 8.10851 28.9309C8.1888 28.9708 8.22894 28.9907 8.22894 28.9907C8.61028 29.0305 8.9013 29.1899 9.12208 29.3992C9.35289 29.6084 9.51345 29.8674 9.62384 30.1164C9.64391 30.1463 9.64391 30.1762 9.66398 30.2061C9.66398 30.2459 9.66398 30.2858 9.65395 30.3256C9.65395 30.4552 9.63388 30.5847 9.62384 30.7241C9.61381 30.8537 9.60377 30.9931 9.59374 31.1226C9.59374 31.2521 9.57366 31.3817 9.57366 31.5211C9.57366 31.6506 9.55359 31.7901 9.55359 31.9196C9.55359 32.0491 9.55359 32.1886 9.54356 32.3181C9.48335 34.45 9.65395 36.6218 10.0253 38.7637C10.0253 38.7836 10.0253 38.8036 10.0353 38.8235C9.95501 38.694 9.86469 38.5545 9.79444 38.4051C9.63388 38.0763 9.51345 37.6878 9.46328 37.2594C9.36292 36.4027 9.00165 35.506 8.42964 34.729C8.14865 34.3405 7.79742 33.9918 7.40604 33.7029C7.20534 33.5534 6.9946 33.4239 6.77382 33.3143C6.55304 33.2048 6.32223 33.1051 6.07135 33.0454C5.76026 32.9557 5.42909 32.8461 5.08789 32.7166C4.91729 32.6469 4.74669 32.5771 4.57609 32.5074C4.40549 32.4277 4.23489 32.348 4.06429 32.2683C3.37186 31.9395 2.68946 31.551 2.09738 31.1724C1.79632 30.9832 1.52536 30.7939 1.27448 30.6146C1.0236 30.4452 0.812858 30.2958 0.632223 30.1563C0.270953 29.8873 0.0501764 29.7179 0.0501764 29.7179C0.180635 29.8375 0.421482 30.0965 0.712505 30.4352C0.853 30.6046 1.01356 30.8038 1.18416 31.013C1.26445 31.1127 1.35476 31.2223 1.43505 31.3418C1.51533 31.4514 1.60565 31.5709 1.69596 31.6805C1.86656 31.9097 2.0472 32.1487 2.20776 32.3878C2.37836 32.6269 2.53893 32.8561 2.67942 33.0952C2.81992 33.3243 2.96041 33.5534 3.0708 33.7626C3.18119 33.9818 3.26147 34.1811 3.32168 34.3703C3.38189 34.5596 3.43207 34.7389 3.49228 34.8983C3.55249 35.0577 3.6127 35.1972 3.67292 35.3367C3.79334 35.5957 3.91376 35.8149 4.03419 36.0141C4.15461 36.2134 4.27503 36.3927 4.38542 36.582C4.49581 36.7713 4.6062 36.9605 4.70655 37.1897C4.8069 37.4188 5.08789 37.638 5.4592 37.8273C5.63983 37.9269 5.84054 38.0165 6.05128 38.0962C6.26202 38.1759 6.4828 38.2457 6.70357 38.3154C7.13509 38.4449 7.55657 38.5445 7.86767 38.6143C8.17876 38.684 8.3895 38.7139 8.3895 38.7139C8.78088 38.6541 9.13211 38.7338 9.42314 38.8833C9.57367 38.953 9.70412 39.0526 9.82455 39.1522C9.94497 39.2519 10.0554 39.3615 10.1557 39.471C10.1557 39.471 10.1557 39.481 10.1758 39.491C10.3363 40.3079 10.517 41.1347 10.7277 41.9417C10.9987 42.9877 11.3198 44.0238 11.6811 45.04C12.0022 45.9565 12.3534 46.8432 12.7348 47.7198C12.3835 47.3712 12.0323 46.9129 11.8115 46.3251C11.4904 45.4683 10.8582 44.6614 10.0353 44.0437C9.62384 43.7349 9.17225 43.4759 8.67049 43.2866C8.17876 43.0973 7.65693 42.9778 7.11502 42.9678C6.42258 42.9579 5.63983 42.8582 4.84704 42.7088C4.64634 42.6689 4.44563 42.6291 4.24493 42.5892C4.04422 42.5494 3.85355 42.4996 3.65285 42.4498C3.26147 42.3502 2.88013 42.2505 2.51886 42.1509C1.79632 41.9417 1.17413 41.7225 0.722541 41.5532C0.491729 41.4735 0.321129 41.4037 0.19067 41.3539C0.070247 41.3041 0 41.2742 0 41.2742C0.0802823 41.3141 0.210741 41.3838 0.36127 41.4834C0.5118 41.5731 0.70247 41.6926 0.913211 41.8221C1.12395 41.9517 1.34473 42.1011 1.58558 42.2605C1.82642 42.4199 2.0773 42.5892 2.32819 42.7686C2.57907 42.9479 2.82995 43.1272 3.08083 43.3165C3.20126 43.4062 3.32168 43.5058 3.4421 43.5954C3.56253 43.6951 3.67292 43.7847 3.7833 43.8744C4.00408 44.0637 4.20479 44.2529 4.37539 44.4323C4.54599 44.6216 4.69652 44.8009 4.79687 44.9802C5.01764 45.3289 5.21835 45.6078 5.40902 45.837C5.59969 46.0661 5.78033 46.2355 5.96096 46.4048C6.13156 46.5642 6.30216 46.7037 6.46273 46.8631C6.54301 46.9428 6.62329 47.0225 6.70357 47.1022C6.78385 47.1918 6.86414 47.2815 6.94442 47.3811C7.10498 47.5804 7.44618 47.7398 7.86767 47.8493C8.28915 47.9589 8.78088 48.0187 9.26257 48.0586C10.2159 48.1283 11.079 48.0785 11.079 48.0785C11.2696 47.9988 11.4603 47.9589 11.6409 47.9589C11.8216 47.9589 12.0022 47.9689 12.1728 48.0187C12.4939 48.0984 12.7749 48.2478 13.0258 48.4172C13.3971 49.2441 13.7985 50.051 14.22 50.838C15.1934 52.6512 16.2772 54.3248 17.4413 55.8291C17.351 55.7694 17.2607 55.7196 17.1704 55.6598C17.0098 55.5402 16.8392 55.4008 16.6786 55.2414C16.5181 55.082 16.3776 54.9027 16.2371 54.7034C15.6852 53.9064 14.8121 53.2589 13.7985 52.8205C13.2968 52.6113 12.7448 52.4519 12.1929 52.3722C11.9119 52.3324 11.6309 52.3125 11.3499 52.3224C11.0689 52.3224 10.7879 52.3523 10.5069 52.4021C10.1557 52.4718 9.77437 52.5217 9.37296 52.5615C9.17225 52.5814 8.96151 52.6014 8.75077 52.6113C8.54003 52.6213 8.32929 52.6312 8.11855 52.6412C7.69707 52.6512 7.25551 52.6512 6.83403 52.6412C6.40251 52.6412 5.99107 52.6113 5.59969 52.5814C5.20831 52.5615 4.82697 52.5217 4.49581 52.4918C4.15461 52.4619 3.85355 52.422 3.60267 52.3822C3.35179 52.3523 3.15108 52.3224 3.00055 52.3025C2.86006 52.2826 2.77977 52.2726 2.77977 52.2726C2.97045 52.3224 3.37186 52.442 3.87362 52.6113C4.1245 52.701 4.40549 52.8006 4.69651 52.9102C4.98754 53.0198 5.2886 53.1393 5.60973 53.2589C5.92082 53.3784 6.23191 53.5079 6.54301 53.6474C6.8541 53.7769 7.14513 53.9164 7.42611 54.0658C7.98809 54.3547 8.45975 54.6536 8.77084 54.9724C9.39303 55.61 9.87472 55.9088 10.3062 56.138C10.4166 56.1978 10.517 56.2476 10.6173 56.3073C10.7177 56.3671 10.818 56.4169 10.9284 56.4767C11.0288 56.5365 11.1291 56.5962 11.2395 56.666C11.3399 56.7357 11.4503 56.8154 11.5607 56.8951C11.671 56.9848 11.8216 57.0445 12.0122 57.0944C12.1026 57.1143 12.2029 57.1342 12.3033 57.1442C12.4036 57.1541 12.524 57.1641 12.6344 57.1641C13.0961 57.184 13.6179 57.1342 14.1096 57.0545C14.6013 56.9748 15.073 56.8752 15.4142 56.7955C15.5848 56.7556 15.7253 56.7158 15.8156 56.6859C15.916 56.656 15.9661 56.6461 15.9661 56.6461C16.3174 56.397 16.6987 56.3073 17.06 56.3173C17.2406 56.3173 17.4213 56.3372 17.5919 56.3771C17.7223 56.407 17.8427 56.4468 17.9732 56.4867C18.9767 57.722 20.0304 58.8378 21.0942 59.7941C22.2282 60.8103 23.3722 61.6272 24.466 62.2748C24.4259 62.2748 24.3757 62.2548 24.3356 62.2449C24.2854 62.2349 24.2352 62.215 24.175 62.205C23.9643 62.1452 23.7435 62.0755 23.5328 61.9759C23.4224 61.9261 23.312 61.8663 23.2116 61.8065C23.1012 61.7468 23.0009 61.677 22.8905 61.5973C22.6798 61.4479 22.459 61.3084 22.2081 61.1988C22.0877 61.1391 21.9672 61.0793 21.8368 61.0295C21.7063 60.9797 21.5759 60.9298 21.4454 60.89C21.315 60.8402 21.1845 60.8003 21.044 60.7605C20.9035 60.7206 20.763 60.6908 20.6225 60.6609C20.482 60.631 20.3415 60.6011 20.191 60.5812C20.1208 60.5712 20.0505 60.5612 19.9702 60.5513C19.9 60.5513 19.8297 60.5314 19.7494 60.5214C19.5989 60.5015 19.4584 60.4915 19.3079 60.4915C19.1574 60.4915 19.0068 60.4815 18.8563 60.4815C18.5552 60.4815 18.2542 60.5015 17.9531 60.5413C17.361 60.6111 16.779 60.7705 16.2471 61.0195C15.5748 61.3383 14.7519 61.6272 13.8788 61.8563C13.0158 62.0954 12.0925 62.2748 11.2596 62.4043C10.8481 62.464 10.4467 62.5238 10.0855 62.5637C9.72419 62.6035 9.40307 62.6334 9.13211 62.6633C8.86116 62.6832 8.64038 62.7031 8.48985 62.7031C8.33932 62.7031 8.25904 62.7131 8.25904 62.7131C8.69056 62.733 10.0754 62.8825 11.5506 63.1016C11.9219 63.1614 12.2932 63.2212 12.6645 63.281C13.0358 63.3507 13.3971 63.4204 13.7383 63.5001C14.0895 63.5798 14.4006 63.6695 14.7017 63.7691C15.0028 63.8687 15.2536 63.9883 15.4744 64.1078C15.6952 64.2373 15.8959 64.3469 16.0866 64.4366C16.2772 64.5262 16.4579 64.596 16.6184 64.6557C16.6987 64.6856 16.779 64.7155 16.8593 64.7354C16.9396 64.7554 17.0098 64.7853 17.0801 64.8052C17.2206 64.845 17.361 64.8749 17.4915 64.9048C17.7524 64.9646 18.0033 65.0044 18.2542 65.0542C18.3846 65.0841 18.5051 65.114 18.6456 65.1539C18.7861 65.1937 18.9266 65.2435 19.0771 65.3033C19.3781 65.4228 19.8297 65.393 20.3014 65.2635C20.5422 65.2037 20.7831 65.114 21.034 65.0144C21.2748 64.9148 21.5257 64.7952 21.7565 64.6757C22.2181 64.4366 22.6396 64.1676 22.9407 63.9683C23.2417 63.7691 23.4224 63.6197 23.4224 63.6197C23.6532 63.2511 23.9843 63.0219 24.3356 62.8825C24.6266 62.7729 24.9277 62.7231 25.2287 62.7031C25.6803 62.9323 26.1219 63.1415 26.5333 63.3108C26.6738 63.3706 26.8043 63.4204 26.9447 63.4702C27.0852 63.52 27.2157 63.5699 27.3462 63.6097C27.4766 63.6595 27.6071 63.6894 27.7275 63.7293C27.858 63.7691 27.9784 63.809 28.0988 63.8388C29.0622 64.0979 29.8449 64.1975 30.3768 64.2373C30.4471 64.2373 30.5073 64.2373 30.5675 64.2473C30.5976 64.2473 30.6277 64.2473 30.6578 64.2473H30.7381C30.7381 64.2473 30.7682 64.2473 30.7883 64.2473C31.6814 65.0044 32.4341 66.2696 30.5976 68.0927C29.2027 69.4775 29.8148 73.5222 29.8751 73.8908C29.8449 73.6517 29.7145 72.0378 31.9624 68.6606C33.548 66.2896 32.976 64.8849 32.3738 64.1875C32.8154 64.1676 33.1967 64.1377 33.1967 64.1377C35.8962 63.8687 36.0166 65.2336 36.0166 65.2336C35.2339 66.5287 36.2776 68.0828 36.2776 68.0828C36.0668 66.688 37.4216 65.7516 37.7929 64.1377C37.9635 63.3806 38.1742 62.8924 37.8932 62.6234C37.5621 62.3146 37.0603 62.2947 36.6489 62.4939L36.6689 62.5637Z" fill="#EFB967"/>
</svg>
