<svg width="39" height="74" viewBox="0 0 39 74" fill="none" xmlns="http://www.w3.org/2000/svg">
<path d="M38.8093 41.4332C38.6889 41.483 38.5082 41.5528 38.2774 41.6325C37.8258 41.8018 37.1936 42.021 36.4811 42.2302C36.1198 42.3398 35.7385 42.4394 35.3471 42.5291C35.1565 42.5789 34.9557 42.6187 34.755 42.6685C34.5543 42.7084 34.3536 42.7482 34.1529 42.7881C33.3501 42.9375 32.5674 43.0272 31.885 43.0471C31.343 43.0571 30.8212 43.1766 30.3295 43.3659C29.8378 43.5552 29.3862 43.8142 28.9747 44.123C28.1518 44.7507 27.5196 45.5576 27.1985 46.4044C26.9777 46.9922 26.6365 47.4405 26.2752 47.7991C26.6566 46.9224 27.0078 46.0258 27.3289 45.1193C27.6902 44.1031 28.0013 43.077 28.2823 42.021C28.493 41.214 28.6737 40.3971 28.8342 39.5703C28.8342 39.5703 28.8342 39.5603 28.8543 39.5503C28.9547 39.4407 29.065 39.3312 29.1855 39.2315C29.3059 39.1319 29.4464 39.0422 29.5869 38.9626C29.8779 38.8131 30.2291 38.7334 30.6205 38.7932C30.6205 38.7932 30.8212 38.7633 31.1423 38.6936C31.4534 38.6238 31.8749 38.5242 32.3064 38.3947C32.5272 38.325 32.748 38.2552 32.9587 38.1755C33.1695 38.0958 33.3702 38.0062 33.5508 37.9065C33.9121 37.7173 34.2031 37.4981 34.3035 37.269C34.4038 37.0398 34.5142 36.8406 34.6246 36.6613C34.735 36.472 34.8554 36.2927 34.9758 36.0934C35.0962 35.8942 35.2167 35.675 35.3371 35.416C35.3973 35.2865 35.4575 35.137 35.5177 34.9776C35.5779 34.8182 35.6281 34.6489 35.6883 34.4496C35.7485 34.2603 35.8288 34.0511 35.9392 33.8419C36.0496 33.6228 36.1801 33.4036 36.3306 33.1745C36.4711 32.9453 36.6316 32.7062 36.8022 32.4671C36.9628 32.228 37.1434 31.9889 37.314 31.7598C37.4044 31.6403 37.4846 31.5307 37.575 31.4211C37.6552 31.3115 37.7456 31.2019 37.8258 31.0923C37.9864 30.8831 38.157 30.6739 38.2975 30.5145C38.5885 30.1758 38.8193 29.9168 38.9598 29.7972C38.9598 29.7972 38.7491 29.9666 38.3778 30.2356C38.1971 30.3651 37.9764 30.5245 37.7355 30.6938C37.4846 30.8632 37.2037 31.0525 36.9126 31.2517C36.3205 31.6303 35.6382 32.0188 34.9457 32.3476C34.7751 32.4273 34.6045 32.507 34.4339 32.5867C34.2633 32.6564 34.0827 32.7261 33.9121 32.7959C33.5709 32.9254 33.2397 33.035 32.9286 33.1246C32.6777 33.1944 32.4469 33.284 32.2262 33.3936C32.0054 33.5032 31.7946 33.6327 31.5939 33.7822C31.2026 34.0711 30.8614 34.4297 30.5703 34.8083C29.9983 35.5754 29.6371 36.472 29.5367 37.3387C29.4966 37.7671 29.3661 38.1456 29.2055 38.4844C29.1353 38.6338 29.045 38.7733 28.9647 38.9028C28.9647 38.8829 28.9647 38.8629 28.9747 38.843C29.346 36.7011 29.5267 34.5293 29.4564 32.3974C29.4564 32.2679 29.4564 32.1284 29.4464 31.9989C29.4464 31.8694 29.4363 31.7299 29.4263 31.6004C29.4263 31.4709 29.4062 31.3314 29.4062 31.2019C29.3962 31.0724 29.3862 30.9329 29.3761 30.8034C29.3661 30.6739 29.3561 30.5344 29.346 30.4049C29.346 30.3651 29.346 30.3252 29.336 30.2854C29.346 30.2555 29.3561 30.2256 29.3761 30.1957C29.4966 29.9467 29.6571 29.6876 29.8779 29.4784C30.1087 29.2692 30.3997 29.1098 30.771 29.07C30.771 29.07 30.8112 29.0501 30.8915 29.0102C30.9717 28.9704 31.0821 28.9206 31.2126 28.8508C31.4835 28.7113 31.8348 28.5121 32.1961 28.283C32.5573 28.0538 32.9186 27.7848 33.1996 27.5159C33.4705 27.2469 33.6712 26.9779 33.7013 26.7388C33.7616 26.2706 33.8619 25.892 33.9723 25.4437C34.0024 25.3341 34.0225 25.2146 34.0425 25.0851C34.0626 24.9655 34.0827 24.826 34.0927 24.6866C34.1128 24.5471 34.1228 24.3977 34.1329 24.2383C34.1329 24.0789 34.1529 23.8995 34.1329 23.7103C34.1329 23.521 34.1429 23.3118 34.183 23.0926C34.2031 22.983 34.2232 22.8734 34.2433 22.7539C34.2633 22.6343 34.2934 22.5148 34.3235 22.3952C34.3837 22.1561 34.454 21.9071 34.5343 21.6481C34.5744 21.5285 34.6146 21.399 34.6547 21.2795C34.6948 21.15 34.735 21.0304 34.7751 20.9109C34.8554 20.6618 34.9457 20.4227 35.036 20.2035C35.1163 19.9744 35.1966 19.7652 35.2769 19.5759C35.4274 19.1973 35.5679 18.8985 35.6582 18.759C35.6582 18.759 35.5177 18.9682 35.2568 19.3069C35.1264 19.4763 34.9758 19.6755 34.8052 19.8847C34.6246 20.1039 34.4339 20.333 34.2131 20.5821C33.7816 21.0703 33.2698 21.5883 32.748 22.0565C32.2161 22.5347 31.6541 22.9531 31.1323 23.2719C30.9216 23.4014 30.7409 23.5409 30.5703 23.7003C30.3997 23.8597 30.2492 24.0291 30.1187 24.2183C29.8578 24.5869 29.6672 24.9954 29.5267 25.4238C29.4564 25.633 29.4062 25.8522 29.3661 26.0713C29.326 26.2905 29.2959 26.5097 29.2858 26.7288C29.2858 26.8384 29.2858 26.948 29.2858 27.0576C29.2858 27.1672 29.2858 27.2768 29.2858 27.3764C29.2959 27.5856 29.326 27.7948 29.3661 28.004C29.3862 28.1036 29.3962 28.2033 29.4062 28.3029C29.4062 28.4025 29.4163 28.5021 29.4163 28.5918C29.4163 28.7811 29.4062 28.9604 29.3862 29.1298C29.3561 29.319 29.3059 29.4984 29.2557 29.6578C29.2356 29.5183 29.2256 29.3788 29.2055 29.2393C29.065 28.2033 28.8844 27.1871 28.6636 26.1909C28.4328 25.2046 28.1518 24.2383 27.8407 23.3018C27.7605 23.0727 27.6802 22.8435 27.5999 22.6144C27.5096 22.3853 27.4293 22.1661 27.339 21.937C27.2587 21.7078 27.1583 21.4887 27.068 21.2695C27.068 21.2097 27.068 21.15 27.0781 21.0802C27.1182 20.8212 27.1884 20.5423 27.3289 20.2932C27.4795 20.0441 27.6902 19.825 28.0214 19.6855C28.0214 19.6855 28.1619 19.5659 28.3626 19.3667C28.5633 19.1675 28.8242 18.8985 29.0851 18.5896C29.346 18.2908 29.5969 17.9521 29.7775 17.6333C29.9481 17.3244 30.0485 17.0256 30.0084 16.8064C29.9883 16.6968 29.9783 16.5872 29.9582 16.4876C29.9481 16.378 29.9281 16.2784 29.918 16.1788C29.898 15.9696 29.8779 15.7603 29.8578 15.5412C29.8277 15.322 29.7976 15.0829 29.7474 14.8139C29.7173 14.6844 29.6872 14.5449 29.6571 14.3955C29.617 14.2461 29.5668 14.0867 29.5166 13.9273C29.3059 13.2598 29.2657 12.2536 29.2959 11.3271C29.3059 10.8689 29.336 10.4305 29.3761 10.0719C29.4062 9.71323 29.4564 9.43428 29.5066 9.28485C29.5066 9.28485 29.4263 9.50402 29.2858 9.8527C29.1453 10.2014 28.9245 10.6895 28.6636 11.2275C28.5332 11.4965 28.3826 11.7754 28.2221 12.0544C28.0615 12.3333 27.8909 12.6222 27.7103 12.8912C27.5296 13.1602 27.349 13.4292 27.1583 13.6782C26.9677 13.9273 26.767 14.1664 26.5763 14.3656C26.2652 14.6944 26.0645 15.063 25.934 15.4615C25.8738 15.6607 25.8236 15.86 25.8036 16.0692C25.7735 16.2784 25.7735 16.4776 25.7835 16.6968C25.7835 16.906 25.8136 17.1152 25.8538 17.3244C25.8738 17.434 25.8939 17.5336 25.914 17.6333C25.934 17.7329 25.9641 17.8325 25.9942 17.9321C26.1147 18.3306 26.2652 18.7192 26.4559 19.0678C26.5462 19.2372 26.6164 19.4165 26.6766 19.5859C26.7067 19.6755 26.7268 19.7552 26.7469 19.8349C26.767 19.9146 26.787 20.0043 26.7971 20.084C26.8272 20.3032 26.8372 20.5024 26.8272 20.6917C26.8171 20.6618 26.7971 20.6319 26.787 20.612C26.7369 20.5024 26.6867 20.3928 26.6465 20.2932C26.5964 20.1836 26.5562 20.084 26.496 19.9744C26.3957 19.7652 26.2953 19.556 26.1949 19.3567C26.0946 19.1475 25.9842 18.9483 25.8839 18.749C25.8337 18.6494 25.7835 18.5498 25.7233 18.4502C25.6731 18.3505 25.6129 18.2509 25.5627 18.1613C25.5125 18.0616 25.4523 17.972 25.4022 17.8724C25.3721 17.8225 25.352 17.7727 25.3219 17.7229C25.2918 17.6731 25.2617 17.6333 25.2416 17.5834C25.1312 17.3942 25.0208 17.2049 24.9104 17.0256C24.8 16.8363 24.6897 16.657 24.5793 16.4776C24.5291 16.388 24.4689 16.2983 24.4187 16.2087C24.3585 16.119 24.3083 16.0293 24.2481 15.9496C23.6861 15.0729 23.0338 14.2959 22.4116 13.5686C22.4116 13.5487 22.4016 13.5288 22.3916 13.5089C22.3314 13.3495 22.2611 13.1303 22.231 12.8812C22.2009 12.6322 22.1909 12.3632 22.2611 12.1042C22.3314 11.8452 22.4819 11.5961 22.7528 11.3969C22.7528 11.3969 22.8532 11.2574 22.9837 11.0382C23.1242 10.819 23.3048 10.5102 23.4653 10.1815C23.8065 9.52394 24.0875 8.75685 23.927 8.37828C23.6058 7.64107 23.4854 6.95367 22.8933 5.85781C22.7428 5.57887 22.6224 5.23019 22.512 4.85162C22.4116 4.47305 22.3314 4.0646 22.2712 3.67607C22.1608 2.89901 22.1307 2.18172 22.2009 1.91274C22.2009 1.91274 22.1507 2.11199 22.0604 2.44074C21.9701 2.7695 21.8296 3.22777 21.649 3.74581C21.2977 4.77192 20.7859 6.02717 20.1938 6.91382C19.963 7.2625 19.8426 7.64107 19.8125 8.01964C19.7824 8.3982 19.8326 8.78673 19.953 9.1653C20.1838 9.92243 20.6555 10.6397 21.1572 11.1976C21.2877 11.3371 21.388 11.4865 21.4884 11.626C21.5787 11.7754 21.659 11.9149 21.7192 12.0643C21.8396 12.3532 21.9199 12.6322 21.9601 12.8713C21.9701 12.951 21.9801 13.0107 21.9801 13.0904C21.7694 12.8414 21.5687 12.6023 21.378 12.3732C21.1773 12.1141 19.1201 9.8527 17.6449 8.23881C17.394 7.80046 17.1933 7.27246 17.1933 6.66476C17.1933 5.01102 16.5009 2.9289 14.554 2.49056C12.0954 1.94263 8.70344 0.0597534 8.70344 0.0597534C9.26542 0.378547 11.0216 2.31123 11.423 3.57645C11.8244 4.84166 12.266 5.44936 12.5771 6.25631C12.8882 7.05329 15.959 7.92997 15.959 7.92997C16.4607 7.92001 16.9023 8.11926 17.2836 8.3982C17.8155 9.18523 19.4211 11.5064 19.8526 12.0245C20.1136 12.3333 20.3745 12.6521 20.6454 12.9908C20.8863 13.2897 21.1271 13.6085 21.378 13.9372C21.2877 13.9074 21.1974 13.8675 21.1071 13.8277C20.9967 13.7778 20.8863 13.7181 20.7759 13.6483C20.6555 13.5886 20.5451 13.5089 20.4247 13.4192C20.3042 13.3295 20.1938 13.2399 20.0835 13.1303C19.9731 13.0207 19.8627 12.9012 19.7623 12.7717C19.7122 12.7019 19.662 12.6322 19.6018 12.5724C19.5416 12.5027 19.4813 12.4429 19.4211 12.3732C19.3007 12.2437 19.1602 12.1241 19.0197 12.0046C18.8792 11.885 18.7287 11.7754 18.5681 11.6758C18.4076 11.5762 18.247 11.4865 18.0764 11.4168C17.404 11.1179 16.6414 11.0382 15.9088 11.367C14.9755 11.7854 13.7311 12.1141 12.7276 12.3532C12.2258 12.4728 11.7742 12.5624 11.4531 12.6322C11.132 12.692 10.9413 12.7318 10.9413 12.7318C11.2022 12.692 11.8646 12.7318 12.567 12.8713C12.9283 12.941 13.2795 13.0207 13.6207 13.1303C13.9519 13.2399 14.2429 13.3594 14.4737 13.4989C14.9153 13.7778 15.2766 13.9572 15.6077 14.1166C15.9389 14.266 16.2299 14.3955 16.5209 14.5649C16.6715 14.6545 16.9223 14.6645 17.2334 14.6346C17.5445 14.6047 17.9058 14.535 18.247 14.4652C18.9294 14.3058 19.5516 14.1166 19.5516 14.1166C19.8025 13.9472 20.0734 13.8775 20.3343 13.8775C20.5953 13.8775 20.8461 13.9572 21.0569 14.0468C21.2777 14.1365 21.4583 14.256 21.5888 14.3557C21.7192 14.4553 21.7895 14.5151 21.7895 14.5151C21.7895 14.5151 21.7995 14.5051 21.8095 14.4951C22.2812 15.1427 22.7629 15.8201 23.2345 16.5573C23.2847 16.637 23.3449 16.7267 23.3951 16.8163C23.4553 16.896 23.5055 16.9857 23.5557 17.0754C23.6661 17.2447 23.7664 17.4241 23.8768 17.6034C23.9772 17.7827 24.0875 17.962 24.1879 18.1513C24.218 18.2011 24.2381 18.241 24.2682 18.2908C24.2983 18.3406 24.3184 18.3804 24.3485 18.4302C24.3986 18.5299 24.4488 18.6195 24.499 18.7092C24.5492 18.8088 24.5993 18.8985 24.6595 18.9881C24.7097 19.0878 24.7599 19.1774 24.8101 19.277C24.9104 19.4663 25.0108 19.6656 25.1111 19.8648C25.2115 20.0641 25.3018 20.2633 25.4022 20.4626C25.4523 20.5622 25.4925 20.6618 25.5427 20.7714C25.5928 20.881 25.633 20.9806 25.6832 21.0802C25.7233 21.1798 25.7735 21.2894 25.8236 21.389C25.8638 21.4986 25.914 21.5983 25.9541 21.7078C25.924 21.6879 25.8939 21.668 25.8538 21.6381C25.7534 21.5584 25.653 21.4787 25.5527 21.3791C25.4523 21.2894 25.342 21.1798 25.2516 21.0603C25.1513 20.9507 25.061 20.8212 24.9706 20.6817C24.8803 20.5423 24.8 20.4028 24.7298 20.2434C24.6997 20.1637 24.6595 20.084 24.6094 20.0043C24.5692 19.9246 24.5191 19.8449 24.4689 19.7652C24.3685 19.6058 24.2581 19.4564 24.1477 19.297C24.0273 19.1475 23.8969 19.0081 23.7564 18.8785C23.6861 18.8088 23.6159 18.749 23.5356 18.6893C23.4653 18.6295 23.3851 18.5697 23.3048 18.5199C22.9837 18.3107 22.6324 18.1513 22.2511 18.0816C21.8697 18.0118 21.4784 18.0218 21.0569 18.1413C20.525 18.2908 19.9229 18.4103 19.3208 18.5199C18.7187 18.6195 18.1065 18.7092 17.5646 18.7889C17.2936 18.8188 17.0428 18.8586 16.812 18.8885C16.5811 18.9184 16.3804 18.9483 16.2098 18.9682C15.8686 19.0081 15.6679 19.028 15.6679 19.028C15.9389 18.9981 16.6012 19.0878 17.2836 19.277C17.3739 19.297 17.4542 19.3269 17.5445 19.3567C17.6349 19.3767 17.7151 19.4165 17.7954 19.4364C17.966 19.4962 18.1266 19.556 18.2871 19.6257C18.5982 19.7652 18.8692 19.9246 19.0699 20.0939C19.2606 20.2533 19.4312 20.4028 19.6018 20.5223C19.682 20.5821 19.7623 20.6419 19.8426 20.7017C19.9229 20.7614 19.9931 20.8112 20.0734 20.861C20.3745 21.0603 20.6354 21.2396 20.8863 21.4588C21.0167 21.5684 21.2777 21.6281 21.6088 21.658C21.94 21.6879 22.3314 21.6879 22.7027 21.678C23.4553 21.658 24.1477 21.6082 24.1477 21.6082C24.4588 21.4887 24.7599 21.4787 25.0309 21.5385C25.1011 21.5584 25.1613 21.5684 25.2316 21.5983C25.2918 21.6182 25.352 21.6481 25.4122 21.678C25.5326 21.7377 25.643 21.8075 25.7434 21.8872C25.934 22.0366 26.0946 22.196 26.205 22.3255C26.205 22.3454 26.215 22.3554 26.2251 22.3753C26.3053 22.5945 26.3856 22.8137 26.4759 23.0328C26.5562 23.252 26.6265 23.4712 26.7067 23.7003C27.0078 24.6069 27.2687 25.5334 27.4995 26.4897C27.7203 27.4461 27.8909 28.4324 28.0314 29.4386C28.0615 29.6876 28.0916 29.9467 28.1217 30.1957C28.1217 30.2455 28.1217 30.3053 28.1418 30.3551C27.9913 30.1559 27.8407 29.9168 27.7203 29.6478C27.6902 29.5681 27.6601 29.4984 27.63 29.4187C27.5999 29.339 27.5698 29.2593 27.5497 29.1796C27.4995 29.0202 27.4594 28.8409 27.4393 28.6516C27.4193 28.4623 27.3791 28.283 27.3189 28.0937C27.2687 27.9044 27.1985 27.7151 27.1282 27.5258C27.0479 27.3365 26.9576 27.1572 26.8472 26.9879C26.7469 26.8185 26.6265 26.6491 26.496 26.4997C26.3655 26.3503 26.215 26.2108 26.0645 26.0913C25.9842 26.0315 25.9039 25.9717 25.8136 25.9219C25.7233 25.8721 25.643 25.8223 25.5427 25.7824C25.1713 25.6131 24.7599 25.5234 24.2983 25.5433C24.1477 25.5433 23.9972 25.5433 23.8467 25.5433C23.6962 25.5433 23.5356 25.5433 23.375 25.5433C23.0539 25.5433 22.7227 25.5134 22.4016 25.5035C22.0704 25.4836 21.7493 25.4636 21.4382 25.4437C21.1271 25.4238 20.816 25.4039 20.525 25.3839C19.391 25.3042 18.5179 25.2345 18.5179 25.2345C18.6584 25.2445 18.8993 25.3042 19.1702 25.3939C19.4412 25.4935 19.7623 25.623 20.0935 25.7924C20.2541 25.8721 20.4146 25.9717 20.5651 26.0614C20.7157 26.161 20.8762 26.2606 21.0167 26.3602C21.1572 26.4698 21.2777 26.5794 21.388 26.679C21.4483 26.7388 21.4984 26.7886 21.5486 26.8384C21.5687 26.8683 21.5988 26.8882 21.6189 26.9181C21.6389 26.948 21.659 26.9779 21.6791 26.9978C21.8196 27.207 21.9601 27.3963 22.1005 27.5657C22.231 27.735 22.3514 27.8845 22.4719 28.0239C22.7227 28.3029 22.9335 28.5519 23.1242 28.8409C23.1743 28.9106 23.2646 28.9803 23.375 29.0501C23.4854 29.1098 23.6359 29.1796 23.7965 29.2393C24.1176 29.3589 24.5291 29.4685 24.9205 29.5581C25.3118 29.6478 25.6932 29.7275 25.9742 29.7873C26.2552 29.847 26.4358 29.8769 26.4358 29.8769C26.7971 29.8371 27.1082 29.9068 27.359 30.0463C27.62 30.1858 27.8307 30.385 27.9812 30.5942C28.0715 30.7138 28.1418 30.8234 28.202 30.9429C28.202 30.9429 28.202 30.9429 28.202 30.9628C28.212 31.0923 28.2221 31.2218 28.2321 31.3514C28.2321 31.4809 28.2421 31.6104 28.2522 31.7299C28.2522 31.8594 28.2723 31.9889 28.2723 32.1185C28.2723 32.248 28.2723 32.3775 28.2823 32.507C28.3425 34.5592 28.1719 36.6613 27.8106 38.7434C27.7805 38.8928 27.7504 39.0423 27.7203 39.1917C27.7002 39.1319 27.6802 39.0721 27.6601 39.0124C27.62 38.8629 27.5899 38.7035 27.5597 38.5342C27.5497 38.4545 27.5397 38.3648 27.5296 38.2752C27.5296 38.1855 27.5196 38.0958 27.5196 38.0062C27.5196 37.9165 27.5196 37.8169 27.5196 37.7272C27.5196 37.6276 27.5397 37.5379 27.5497 37.4383C27.5798 37.2391 27.5999 37.0299 27.5999 36.8306C27.5999 36.6214 27.5999 36.4122 27.5698 36.193C27.5397 35.9838 27.4995 35.7746 27.4494 35.5654C27.3891 35.3562 27.3189 35.157 27.2286 34.9677C27.1383 34.7784 27.0279 34.5991 26.9075 34.4297C26.777 34.2603 26.6365 34.1109 26.4759 33.9714C26.1448 33.7025 25.7434 33.5032 25.2617 33.3936C24.6495 33.2641 23.9771 33.0649 23.3249 32.8656C22.9937 32.766 22.6625 32.6564 22.3414 32.5568C22.0203 32.4572 21.7192 32.3575 21.4282 32.2579C21.1372 32.1683 20.8662 32.0786 20.6254 32.0089C20.5049 31.969 20.3845 31.9391 20.2842 31.8993C20.1738 31.8694 20.0734 31.8295 19.9831 31.7997C19.6218 31.6801 19.4011 31.6004 19.4011 31.6004C19.4713 31.6303 19.5616 31.6701 19.672 31.7299C19.7222 31.7598 19.7824 31.7897 19.8426 31.8295C19.9028 31.8694 19.963 31.8993 20.0333 31.9491C20.1637 32.0288 20.2942 32.1184 20.4347 32.228C20.5049 32.2778 20.5752 32.3277 20.6454 32.3874C20.7157 32.4472 20.7859 32.507 20.8562 32.5667C20.9264 32.6265 20.9967 32.6963 21.0669 32.756C21.1372 32.8158 21.2074 32.8855 21.2676 32.9553C21.3981 33.0948 21.5185 33.2342 21.6389 33.3737C21.7493 33.5132 21.8497 33.6626 21.9299 33.8021C21.9701 33.8718 22.0102 33.9416 22.0403 34.0113C22.0704 34.081 22.1006 34.1508 22.1206 34.2105C22.1608 34.34 22.2109 34.4596 22.2511 34.5692C22.2912 34.6788 22.3314 34.7883 22.3815 34.8979C22.4217 34.9976 22.4719 35.0972 22.512 35.1968C22.5521 35.2964 22.5923 35.3861 22.6324 35.4757C22.6726 35.5654 22.7127 35.6551 22.7528 35.7348C22.793 35.8244 22.8231 35.9041 22.8632 35.9838C22.9335 36.1532 23.0037 36.3126 23.0539 36.4919C23.1041 36.6712 23.3249 36.8705 23.636 37.0797C23.937 37.2889 24.3183 37.5081 24.6897 37.7073C25.061 37.9065 25.4323 38.0958 25.6932 38.2253C25.9641 38.3549 26.1448 38.4445 26.1448 38.4445C26.5261 38.5043 26.8171 38.6537 27.0479 38.8729C27.2687 39.0821 27.4193 39.3511 27.5196 39.6001C27.5497 39.6699 27.5598 39.7396 27.5798 39.8093C27.4393 40.4967 27.2888 41.1742 27.1182 41.8417C26.8472 42.8678 26.5361 43.864 26.1949 44.8503C25.8437 45.8465 25.4624 46.8128 25.0409 47.7692C25.0409 47.7493 25.0409 47.7393 25.0409 47.7194C25.0409 47.5501 25.0409 47.3807 25.061 47.2014C25.081 47.0221 25.1011 46.8328 25.1513 46.6435C25.2015 46.4542 25.2516 46.255 25.3319 46.0557C25.653 45.2587 25.8136 44.2824 25.633 43.4057C25.5928 43.1866 25.5326 42.9674 25.4423 42.7682C25.352 42.5689 25.2516 42.3697 25.1212 42.1903C24.8603 41.8317 24.499 41.5229 24.0273 41.2937C23.4352 41.0148 22.803 40.6462 22.1808 40.2577C21.5586 39.8791 20.9465 39.4806 20.4046 39.1319C19.3408 38.4445 18.5179 37.9165 18.5179 37.9165C18.6484 38.0062 18.8491 38.1855 19.0599 38.4346C19.1702 38.5541 19.2806 38.6936 19.391 38.853C19.5014 39.0024 19.6118 39.1718 19.7222 39.3411C19.8326 39.5105 19.9329 39.6898 20.0333 39.8691C20.1336 40.0484 20.224 40.2377 20.2942 40.417C20.3644 40.5964 20.4347 40.7757 20.4748 40.945C20.515 41.1144 20.5451 41.2738 20.5551 41.4232C20.5652 41.5727 20.5752 41.7121 20.5852 41.8417C20.5953 41.9712 20.6153 42.1007 20.6354 42.2202C20.6655 42.4593 20.7056 42.6785 20.7458 42.8877C20.816 43.2962 20.8963 43.6648 20.9164 44.0633C20.9264 44.2625 21.1071 44.5215 21.3579 44.8104C21.4884 44.9599 21.6389 45.1093 21.7995 45.2587C21.9601 45.4082 22.1206 45.5576 22.2912 45.707C22.6224 45.9959 22.9636 46.2649 23.2044 46.4642C23.3349 46.5638 23.4352 46.6435 23.5055 46.7033C23.5757 46.763 23.6159 46.7929 23.6159 46.7929C23.9972 46.9324 24.2682 47.1615 24.4488 47.4305C24.5391 47.56 24.6094 47.7095 24.6595 47.8589C24.7097 48.0083 24.7398 48.1478 24.7599 48.2972C24.7599 48.3172 24.7599 48.3371 24.7599 48.357C24.4287 49.0843 24.0775 49.8015 23.7062 50.4889C22.7528 52.2523 21.6991 53.8861 20.5752 55.3406C20.535 55.4004 20.4949 55.4502 20.4447 55.5C20.4748 55.3705 20.5049 55.2509 20.5551 55.1214C20.6153 54.9421 20.6956 54.7528 20.7859 54.5735C20.8762 54.3842 20.9866 54.2049 21.1271 54.0156C21.659 53.2684 22.0504 52.3021 22.0805 51.3557C22.0905 50.8874 22.0203 50.4192 21.8296 49.9908C21.6389 49.5624 21.3379 49.1739 20.9064 48.8452C20.6354 48.6359 20.3544 48.4068 20.0734 48.1578C19.7924 47.9187 19.5114 47.6497 19.2305 47.3907C18.9495 47.1316 18.6785 46.8627 18.4176 46.6036C18.1567 46.3446 17.8958 46.0956 17.6549 45.8565C16.7116 44.92 15.9891 44.2027 15.9891 44.2027C16.0493 44.2625 16.1195 44.3522 16.1898 44.4617C16.26 44.5713 16.3403 44.7008 16.4306 44.8602C16.5109 45.0097 16.6012 45.179 16.6815 45.3584C16.7618 45.5377 16.8421 45.727 16.9123 45.9262C16.9926 46.1254 17.0528 46.3247 17.113 46.5339C17.1732 46.7431 17.2234 46.9523 17.2535 47.1516C17.2736 47.2512 17.2836 47.3508 17.3037 47.4504C17.3137 47.5501 17.3238 47.6397 17.3238 47.7294C17.3238 47.9087 17.3238 48.088 17.3037 48.2375C17.2736 48.3869 17.2635 48.5363 17.2435 48.6758C17.2334 48.8153 17.2134 48.9448 17.2033 49.0643C17.1933 49.1938 17.1833 49.3134 17.1833 49.423C17.1833 49.5425 17.1732 49.6521 17.1632 49.7617C17.1632 49.8713 17.1632 49.9809 17.1532 50.0805C17.1532 50.1901 17.1431 50.2797 17.1331 50.3893C17.1331 50.4889 17.1231 50.5886 17.113 50.6882C17.103 50.7878 17.0829 50.8874 17.0729 50.9871C17.0528 51.0867 17.0729 51.2162 17.1331 51.3557C17.1833 51.4951 17.2635 51.6645 17.3639 51.8339C17.4643 52.0032 17.5847 52.1925 17.7051 52.3818C17.8356 52.5711 17.966 52.7603 18.1065 52.9496C18.3775 53.3182 18.6484 53.6769 18.8592 53.9359C19.0599 54.1949 19.2003 54.3643 19.2003 54.3643C19.5616 54.5934 19.7724 54.8923 19.8827 55.2011C19.9931 55.49 20.0032 55.7988 19.9731 56.0778C19.0298 57.2235 18.0563 58.2595 17.0729 59.1362C15.979 60.1125 14.8751 60.8996 13.8315 61.5073C13.8816 61.4475 13.9318 61.3877 13.992 61.318C14.253 61.0191 14.564 60.7302 14.9554 60.4512C15.3468 60.1823 15.7181 59.8336 16.0292 59.445C16.3403 59.0466 16.5912 58.6082 16.7417 58.14C16.7818 58.0204 16.8119 57.9109 16.832 57.7913C16.8521 57.6718 16.8722 57.5522 16.8822 57.4327C16.8822 57.3131 16.8922 57.1936 16.8922 57.074C16.8922 56.9545 16.8722 56.8349 16.8521 56.7154C16.812 56.4763 16.7417 56.2471 16.6414 56.018C16.531 55.7889 16.3905 55.5598 16.2199 55.3406C15.9991 55.0616 15.7683 54.7628 15.5475 54.4539C15.3267 54.1451 15.0959 53.8163 14.8751 53.4876C14.6544 53.1688 14.4436 52.84 14.2329 52.5213C14.0221 52.2124 13.8214 51.9036 13.6308 51.6147C13.4401 51.3258 13.2595 51.0568 13.0989 50.8177C12.9383 50.5786 12.7878 50.3594 12.6674 50.1801C12.4265 49.8215 12.286 49.6123 12.286 49.6123C12.3764 49.7517 12.4968 50.0107 12.6072 50.3395C12.6573 50.4989 12.7176 50.6782 12.7577 50.8775C12.7677 50.9273 12.7778 50.9771 12.7978 51.0269C12.7978 51.0767 12.8179 51.1265 12.8279 51.1763C12.848 51.276 12.8681 51.3756 12.8882 51.4852C12.9283 51.6944 12.9484 51.9036 12.9684 52.1128C12.9885 52.322 12.9885 52.5312 12.9885 52.7305C12.9885 52.9297 12.9684 53.119 12.9383 53.2883C12.9283 53.378 12.9082 53.4577 12.8882 53.5374C12.8681 53.6071 12.838 53.6868 12.8179 53.7466C12.7878 53.8163 12.7677 53.8761 12.7376 53.9459C12.7075 54.0056 12.6875 54.0654 12.6674 54.1252C12.6272 54.2447 12.5871 54.3643 12.547 54.4739C12.4767 54.693 12.4165 54.9022 12.3663 55.0915C12.3362 55.1911 12.3161 55.2808 12.286 55.3705C12.2559 55.4601 12.2359 55.5498 12.2058 55.6395C12.1957 55.6793 12.1756 55.7291 12.1656 55.769L12.1455 55.8387L12.1154 55.8985C12.0853 55.9782 12.0452 56.0678 12.005 56.1475C11.985 56.1874 11.9749 56.2472 11.9649 56.3069C11.9649 56.3667 11.9649 56.4265 11.9649 56.5062C11.9749 56.6556 12.0151 56.8349 12.0552 57.0342C12.1455 57.4227 12.286 57.8909 12.4265 58.3392C12.567 58.7975 12.7075 59.2259 12.8079 59.5447C12.9183 59.8635 12.9785 60.0727 12.9785 60.0727C13.2294 60.4313 13.3297 60.79 13.3096 61.1386C13.3096 61.2283 13.2996 61.308 13.2795 61.3977C13.2595 61.4774 13.2394 61.5571 13.2193 61.6368C13.1892 61.7165 13.1591 61.7962 13.129 61.8659C13.129 61.8759 13.119 61.8858 13.1089 61.8958C12.7075 62.105 12.3161 62.2843 11.9549 62.4337C11.8244 62.4836 11.704 62.5334 11.5836 62.5832C11.4631 62.623 11.3427 62.6728 11.2223 62.7127C11.1019 62.7525 10.9915 62.7924 10.8711 62.8223C10.7607 62.8522 10.6503 62.892 10.5399 62.9219C9.66683 63.151 8.97439 63.2407 8.50274 63.2805C8.44252 63.2805 8.39235 63.2805 8.33213 63.2905C8.30203 63.2905 8.28196 63.2905 8.26189 63.2905C8.24182 63.2905 8.21171 63.2905 8.19164 63.2905C8.10132 63.2905 8.02104 63.2905 7.96083 63.2905C7.8404 63.2905 6.19462 63.161 6.19462 63.161C6.19462 63.161 3.11378 63.0116 2.33103 62.643C1.91958 62.4537 1.40779 62.4736 1.08666 62.7725C0.795634 63.0414 1.01641 63.5296 1.18701 64.2867C1.54828 65.9006 2.91308 66.8371 2.70234 68.2318C2.70234 68.2318 3.74601 66.6876 2.96326 65.3826C2.96326 65.3826 3.08368 64.0178 5.78317 64.2867C5.78317 64.2867 6.16451 64.3067 6.60607 64.3365C6.00395 65.0339 5.43194 66.4386 7.01751 68.8096C9.26542 72.1868 9.14499 73.8007 9.10485 74.0398C9.16506 73.6712 9.77721 69.6265 8.38231 68.2418C6.54585 66.4187 7.2985 65.1535 8.19164 64.3963C8.21171 64.3963 8.22175 64.3963 8.24182 64.3963H8.3221C8.3221 64.3963 8.38231 64.3963 8.41242 64.3963C8.47263 64.3963 8.53284 64.3963 8.60309 64.3864C9.13496 64.3465 9.91771 64.2469 10.8811 63.9879C11.0015 63.958 11.1219 63.9181 11.2524 63.8783C11.3728 63.8384 11.5033 63.8085 11.6337 63.7587C11.7642 63.7189 11.8947 63.6691 12.0352 63.6193C12.1656 63.5694 12.3061 63.5097 12.4466 63.4599C12.8681 63.2905 13.3096 63.0813 13.7512 62.8522C14.0422 62.8721 14.3533 62.9319 14.6443 63.0315C14.9956 63.171 15.3267 63.3901 15.5575 63.7687C15.5575 63.7687 15.7382 63.9082 16.0392 64.1174C16.3403 64.3166 16.7618 64.5856 17.2234 64.8247C17.4542 64.9442 17.6951 65.0638 17.9459 65.1634C18.1968 65.263 18.4377 65.3527 18.6785 65.4125C19.1502 65.532 19.6018 65.5719 19.9028 65.4523C20.0534 65.3926 20.2039 65.3427 20.3343 65.3029C20.4748 65.263 20.5953 65.2331 20.7257 65.2033C20.9766 65.1435 21.2275 65.1036 21.4884 65.0538C21.6189 65.0239 21.7594 64.9941 21.8998 64.9542C21.9701 64.9343 22.0504 64.9144 22.1206 64.8845C22.2009 64.8645 22.2711 64.8347 22.3615 64.8048C22.522 64.745 22.7027 64.6753 22.8933 64.5856C23.084 64.4959 23.2847 64.3864 23.5055 64.2569C23.7263 64.1273 23.9872 64.0178 24.2782 63.9181C24.5793 63.8185 24.9004 63.7288 25.2416 63.6491C25.5928 63.5694 25.9441 63.4997 26.3154 63.43C26.6867 63.3702 27.058 63.3005 27.4293 63.2507C28.9045 63.0315 30.2994 62.882 30.7209 62.8621C30.7209 62.8621 30.6406 62.8621 30.49 62.8522C30.3395 62.8522 30.1187 62.8322 29.8478 62.8123C29.5768 62.7924 29.2457 62.7525 28.8944 62.7127C28.5332 62.6728 28.1318 62.623 27.7203 62.5533C26.8874 62.4238 25.9742 62.2445 25.1011 62.0054C24.228 61.7762 23.4051 61.4873 22.7328 61.1685C22.2009 60.9195 21.6189 60.77 21.0167 60.6903C20.7157 60.6505 20.4146 60.6306 20.1136 60.6306C19.963 60.6306 19.8125 60.6306 19.662 60.6405C19.5115 60.6405 19.3609 60.6605 19.2204 60.6704C19.1502 60.6704 19.0699 60.6903 18.9996 60.7003C18.9294 60.7003 18.8491 60.7202 18.7789 60.7302C18.6283 60.7501 18.4878 60.78 18.3474 60.8099C18.2069 60.8398 18.0664 60.8697 17.9259 60.9095C17.7854 60.9494 17.6549 60.9892 17.5245 61.039C17.394 61.0789 17.2635 61.1287 17.1331 61.1785C17.0026 61.2283 16.8822 61.2881 16.7618 61.3479C16.5209 61.4674 16.3001 61.6069 16.0794 61.7463C15.979 61.8161 15.8686 61.8958 15.7582 61.9556C15.6479 62.0153 15.5375 62.0751 15.4271 62.1249C15.2163 62.2245 14.9956 62.3042 14.7848 62.354C14.7347 62.374 14.6845 62.3839 14.6243 62.3939C14.5841 62.3939 14.5339 62.4138 14.4938 62.4238C15.5977 61.7762 16.7417 60.9593 17.8657 59.9432C18.9294 58.9967 19.9831 57.881 20.9866 56.6357C21.1071 56.5958 21.2275 56.546 21.368 56.5261C21.5386 56.4862 21.7192 56.4663 21.8998 56.4663C22.2611 56.4663 22.6425 56.546 22.9937 56.7951C22.9937 56.7951 23.0439 56.815 23.1442 56.8349C23.2345 56.8648 23.375 56.8947 23.5456 56.9445C23.8868 57.0242 24.3485 57.1338 24.8502 57.2035C25.3419 57.2832 25.8738 57.333 26.3254 57.3131C26.4358 57.3131 26.5562 57.3032 26.6566 57.2932C26.7569 57.2832 26.8573 57.2633 26.9476 57.2434C27.1282 57.1936 27.2788 57.1338 27.3992 57.0441C27.5096 56.9545 27.62 56.8748 27.7203 56.815C27.8207 56.7453 27.9311 56.6855 28.0314 56.6257C28.1318 56.5659 28.2321 56.5161 28.3425 56.4564C28.4429 56.4065 28.5532 56.3468 28.6536 56.287C29.0851 56.0479 29.5668 55.749 30.189 55.1214C30.5001 54.8026 30.9818 54.5037 31.5337 54.2148C31.8147 54.0754 32.1057 53.9359 32.4168 53.7964C32.7179 53.657 33.039 53.5274 33.3501 53.4079C33.6612 53.2883 33.9623 53.1688 34.2633 53.0592C34.5543 52.9496 34.8353 52.86 35.0862 52.7603C35.588 52.591 35.9794 52.4615 36.1801 52.4216C36.1801 52.4216 36.0998 52.4316 35.9593 52.4515C35.8188 52.4714 35.6181 52.5013 35.3572 52.5312C35.1063 52.5611 34.8052 52.6009 34.464 52.6408C34.1228 52.6806 33.7515 52.7105 33.3601 52.7305C32.9587 52.7603 32.5473 52.7803 32.1258 52.7902C31.7043 52.7902 31.2628 52.7902 30.8413 52.7902C30.6305 52.7902 30.4198 52.7703 30.2091 52.7603C29.9983 52.7404 29.7976 52.7305 29.5869 52.7105C29.1855 52.6707 28.8041 52.6209 28.4529 52.5511C28.1719 52.4914 27.8909 52.4714 27.6099 52.4714C27.3289 52.4714 27.0479 52.4814 26.767 52.5213C26.215 52.601 25.6631 52.7504 25.1613 52.9696C24.1477 53.4079 23.2747 54.0554 22.7227 54.8524C22.5822 55.0517 22.4317 55.231 22.2812 55.3904C22.1206 55.5498 21.9601 55.6893 21.7895 55.8088C21.6991 55.8785 21.6088 55.9284 21.5185 55.9782C22.6726 54.4739 23.7564 52.8002 24.7398 50.9871C25.1613 50.21 25.5527 49.3931 25.934 48.5662C26.1849 48.3969 26.4659 48.2474 26.787 48.1677C26.9576 48.1279 27.1383 48.1079 27.3189 48.1079C27.4995 48.1079 27.6902 48.1578 27.8809 48.2275C27.8809 48.2275 28.7439 48.2773 29.6973 48.2076C30.179 48.1777 30.6707 48.1079 31.0922 47.9984C31.5137 47.8888 31.8549 47.7393 32.0154 47.5301C32.0957 47.4305 32.176 47.3409 32.2563 47.2512C32.3365 47.1615 32.4168 47.0818 32.4971 47.0121C32.6577 46.8627 32.8283 46.7132 32.9989 46.5538C33.1695 46.3944 33.3501 46.2151 33.5508 45.986C33.7415 45.7568 33.9422 45.4879 34.163 45.1292C34.2734 44.9499 34.4138 44.7706 34.5844 44.5813C34.7651 44.402 34.9558 44.2127 35.1765 44.0234C35.2869 43.9337 35.3973 43.8341 35.5177 43.7445C35.6281 43.6548 35.7485 43.5552 35.879 43.4655C36.1198 43.2762 36.3808 43.0969 36.6316 42.9176C36.8825 42.7383 37.1334 42.5689 37.3743 42.4095C37.6151 42.2501 37.8359 42.1007 38.0466 41.9712C38.2574 41.8417 38.438 41.7221 38.5986 41.6325C38.7491 41.5428 38.8796 41.4731 38.9598 41.4232C38.9598 41.4232 38.8896 41.4531 38.7692 41.5029L38.8093 41.4332Z" fill="#EFB967"/>
</svg>
