<svg width="39" height="74" viewBox="0 0 39 74" fill="none" xmlns="http://www.w3.org/2000/svg">
<path d="M36.6689 62.5637C35.8862 62.9223 32.8054 63.0817 32.8054 63.0817C32.8054 63.0817 31.1596 63.2112 31.0391 63.2112C30.9789 63.2112 30.8987 63.2112 30.8083 63.2112C30.7883 63.2112 30.7582 63.2112 30.7381 63.2112C30.718 63.2112 30.6879 63.2112 30.6678 63.2112C30.6177 63.2112 30.5575 63.2112 30.4972 63.2013C30.0256 63.1714 29.3231 63.0817 28.4601 62.8426C28.3497 62.8127 28.2393 62.7729 28.1289 62.743C28.0185 62.7131 27.8981 62.6732 27.7777 62.6334C27.6573 62.5936 27.5368 62.5537 27.4164 62.5039C27.296 62.4541 27.1655 62.4043 27.0451 62.3545C26.6738 62.205 26.2824 62.0157 25.891 61.8165C25.891 61.8065 25.881 61.7966 25.871 61.7866C25.8308 61.7069 25.8007 61.6372 25.7807 61.5575C25.7506 61.4778 25.7305 61.3981 25.7204 61.3184C25.7004 61.2387 25.7004 61.149 25.6903 61.0594C25.6803 60.7107 25.7706 60.352 26.0215 59.9934C26.0215 59.9934 26.0917 59.7842 26.1921 59.4654C26.2925 59.1466 26.4329 58.7182 26.5734 58.2599C26.7139 57.8116 26.8544 57.3434 26.9447 56.9549C26.9949 56.7556 27.025 56.5763 27.0351 56.4269C27.0351 56.3571 27.0351 56.2874 27.0351 56.2276C27.0351 56.1679 27.015 56.1181 26.9949 56.0682C26.9548 55.9786 26.9247 55.8989 26.8946 55.8192L26.8745 55.7594L26.8544 55.6897C26.8544 55.6897 26.8243 55.6 26.8143 55.5602C26.7842 55.4705 26.7641 55.3808 26.734 55.2912C26.7039 55.2015 26.6838 55.1019 26.6537 55.0122C26.6035 54.823 26.5433 54.6137 26.4631 54.3946C26.4229 54.285 26.3928 54.1654 26.3426 54.0459C26.3226 53.9861 26.2925 53.9263 26.2724 53.8666C26.2523 53.8068 26.2222 53.7371 26.1921 53.6673C26.162 53.5976 26.1419 53.5279 26.1219 53.4581C26.1018 53.3784 26.0817 53.2987 26.0717 53.2091C26.0416 53.0297 26.0215 52.8504 26.0215 52.6512C26.0215 52.4519 26.0215 52.2527 26.0416 52.0335C26.0616 51.8243 26.0817 51.6151 26.1219 51.4059C26.1419 51.3063 26.162 51.1967 26.1821 51.0971C26.1921 51.0472 26.2021 50.9974 26.2122 50.9476C26.2222 50.8978 26.2322 50.848 26.2423 50.7982C26.2925 50.5989 26.3426 50.4196 26.3928 50.2602C26.5032 49.9315 26.6136 49.6724 26.7139 49.533C26.7139 49.533 26.5734 49.7521 26.3326 50.1008C26.2122 50.2801 26.0717 50.4993 25.9011 50.7384C25.7405 50.9775 25.5599 51.2564 25.3692 51.5354C25.1785 51.8243 24.9778 52.1331 24.7671 52.442C24.5564 52.7608 24.3356 53.0895 24.1248 53.4083C23.9041 53.7371 23.6833 54.0658 23.4525 54.3747C23.2317 54.6835 23.0009 54.9824 22.7801 55.2613C22.5995 55.4805 22.459 55.6996 22.3586 55.9387C22.2482 56.1679 22.188 56.397 22.1479 56.6361C22.1278 56.7556 22.1178 56.8752 22.1077 56.9947C22.1077 57.1143 22.1077 57.2338 22.1178 57.3534C22.1278 57.4729 22.1479 57.5925 22.168 57.712C22.188 57.8316 22.2282 57.9412 22.2583 58.0607C22.4088 58.5289 22.6597 58.9673 22.9708 59.3658C23.2819 59.7543 23.6532 60.1129 24.0445 60.372C24.4259 60.6409 24.747 60.9398 25.0079 61.2387C25.0581 61.2985 25.1083 61.3682 25.1685 61.428C24.1248 60.8203 23.031 60.0332 21.9271 59.0569C20.9436 58.1802 19.9702 57.1442 19.0269 55.9985C19.0068 55.7096 19.0169 55.4107 19.1172 55.1218C19.2276 54.803 19.4484 54.5141 19.7996 54.285C19.7996 54.285 19.9401 54.1156 20.1408 53.8566C20.3516 53.5976 20.6225 53.2489 20.8935 52.8703C21.034 52.6811 21.1644 52.4918 21.2949 52.3025C21.4253 52.1132 21.5357 51.9239 21.6361 51.7546C21.7364 51.5752 21.8167 51.4158 21.8669 51.2764C21.9171 51.1369 21.9371 51.0074 21.9271 50.9078C21.907 50.8081 21.897 50.7085 21.887 50.6089C21.8769 50.5093 21.8669 50.4097 21.8669 50.31C21.8669 50.2104 21.8569 50.1108 21.8468 50.0012C21.8468 49.9016 21.8468 49.792 21.8368 49.6824C21.8368 49.5728 21.8368 49.4632 21.8167 49.3437C21.8167 49.2341 21.8067 49.1046 21.7966 48.985C21.7866 48.8555 21.7665 48.726 21.7565 48.5965C21.7364 48.457 21.7264 48.3176 21.6963 48.1582C21.6662 48.0087 21.6662 47.8394 21.6762 47.6501C21.6762 47.5604 21.6863 47.4608 21.6963 47.3712C21.7063 47.2715 21.7264 47.1719 21.7465 47.0723C21.7866 46.873 21.8268 46.6638 21.887 46.4546C21.9472 46.2454 22.0074 46.0462 22.0877 45.8469C22.1579 45.6477 22.2382 45.4484 22.3185 45.2791C22.3988 45.0997 22.4891 44.9304 22.5694 44.781C22.6496 44.6315 22.7299 44.502 22.8102 44.3825C22.8905 44.2729 22.9507 44.1832 23.0109 44.1234C23.0109 44.1234 22.2884 44.8507 21.3451 45.7772C21.1042 46.0163 20.8533 46.2653 20.5824 46.5244C20.3114 46.7834 20.0405 47.0424 19.7695 47.3114C19.4885 47.5704 19.2075 47.8294 18.9266 48.0785C18.6456 48.3275 18.3646 48.5567 18.0936 48.7659C17.6621 49.0946 17.361 49.4832 17.1704 49.9115C16.9797 50.3399 16.9095 50.8081 16.9195 51.2764C16.9496 52.2228 17.351 53.1891 17.8728 53.9363C18.0033 54.1256 18.1137 54.3049 18.214 54.4942C18.3144 54.6835 18.3846 54.8628 18.4449 55.0421C18.495 55.1716 18.5251 55.3011 18.5552 55.4207C18.5151 55.3709 18.475 55.3211 18.4248 55.2613C17.3008 53.8068 16.2471 52.173 15.2938 50.4097C14.9225 49.7223 14.5712 49.005 14.2401 48.2777C14.2401 48.2578 14.2401 48.2379 14.2401 48.2179C14.2601 48.0685 14.2903 47.929 14.3404 47.7796C14.3906 47.6302 14.4609 47.4907 14.5512 47.3512C14.7318 47.0822 14.9927 46.8531 15.3841 46.7136C15.3841 46.7136 15.4242 46.6838 15.4945 46.624C15.5647 46.5642 15.6651 46.4845 15.7955 46.3849C16.0464 46.1856 16.3776 45.9167 16.7088 45.6277C16.8794 45.4783 17.0399 45.3289 17.2005 45.1794C17.361 45.03 17.5116 44.8806 17.642 44.7311C17.903 44.4422 18.0736 44.1832 18.0836 43.984C18.1037 43.5855 18.1839 43.2169 18.2542 42.8084C18.2943 42.5992 18.3345 42.38 18.3646 42.1409C18.3846 42.0214 18.3947 41.8919 18.4148 41.7624C18.4248 41.6329 18.4348 41.4934 18.4449 41.344C18.4549 41.1945 18.485 41.0351 18.5251 40.8658C18.5753 40.6964 18.6355 40.5171 18.7058 40.3378C18.776 40.1584 18.8663 39.9692 18.9667 39.7898C19.067 39.6105 19.1674 39.4312 19.2778 39.2618C19.3882 39.0925 19.4986 38.9231 19.609 38.7737C19.7193 38.6242 19.8398 38.4848 19.9401 38.3553C20.1509 38.1062 20.3516 37.9269 20.482 37.8372C20.482 37.8372 19.6591 38.3652 18.5954 39.0526C18.0535 39.4013 17.4413 39.7998 16.8191 40.1784C16.197 40.5569 15.5647 40.9255 14.9727 41.2144C14.511 41.4436 14.1397 41.7425 13.8788 42.1111C13.7483 42.2904 13.638 42.4896 13.5476 42.6889C13.4573 42.8981 13.3971 43.1073 13.357 43.3265C13.1864 44.2131 13.3369 45.1794 13.658 45.9764C13.7383 46.1757 13.7985 46.3749 13.8387 46.5642C13.8888 46.7535 13.9189 46.9428 13.929 47.1221C13.9491 47.3014 13.949 47.4807 13.949 47.6401C13.949 47.6601 13.949 47.67 13.949 47.6899C13.5276 46.7435 13.1462 45.7672 12.795 44.771C12.4438 43.7847 12.1427 42.7785 11.8717 41.7624C11.6911 41.0849 11.5406 40.4075 11.4101 39.7301C11.4302 39.6603 11.4503 39.5906 11.4703 39.5209C11.5707 39.2618 11.7212 39.0028 11.942 38.7936C12.1628 38.5844 12.4638 38.425 12.8452 38.3652C12.8452 38.3652 13.0258 38.2855 13.2968 38.1461C13.5677 38.0165 13.929 37.8273 14.3003 37.628C14.6716 37.4288 15.0529 37.2096 15.354 37.0004C15.6551 36.7912 15.8758 36.582 15.936 36.4126C15.9862 36.2333 16.0565 36.0739 16.1267 35.9045C16.1668 35.8248 16.197 35.7352 16.2371 35.6555C16.2772 35.5758 16.3174 35.4861 16.3575 35.3965C16.3977 35.3068 16.4378 35.2171 16.4779 35.1175C16.5181 35.0179 16.5683 34.9282 16.6084 34.8186C16.6485 34.7091 16.6987 34.6094 16.7389 34.4899C16.779 34.3703 16.8292 34.2508 16.8693 34.1312C16.8894 34.0715 16.9195 34.0017 16.9496 33.932C16.9797 33.8623 17.0198 33.7925 17.06 33.7228C17.1403 33.5833 17.2406 33.4438 17.351 33.2944C17.4614 33.1549 17.5919 33.0155 17.7223 32.876C17.7825 32.8063 17.8528 32.7465 17.923 32.6768C17.9933 32.617 18.0635 32.5472 18.1338 32.4875C18.204 32.4277 18.2743 32.3679 18.3445 32.3081C18.4148 32.2484 18.485 32.1986 18.5552 32.1488C18.6957 32.0392 18.8362 31.9495 18.9567 31.8698C19.0269 31.83 19.0871 31.7901 19.1473 31.7503C19.2075 31.7104 19.2678 31.6805 19.3179 31.6506C19.4283 31.5909 19.5186 31.551 19.5889 31.5211C19.5889 31.5211 19.3681 31.5909 19.0068 31.7204C18.9165 31.7503 18.8162 31.7801 18.7058 31.82C18.5954 31.8499 18.485 31.8897 18.3646 31.9296C18.1237 32.0093 17.8427 32.089 17.5618 32.1786C17.2707 32.2683 16.9697 32.3679 16.6485 32.4775C16.3274 32.5771 15.9962 32.6867 15.6651 32.7863C15.0028 32.9955 14.3404 33.1848 13.7283 33.3143C13.2466 33.4239 12.8452 33.6232 12.514 33.8922C12.3434 34.0316 12.2029 34.1811 12.0825 34.3504C11.952 34.5198 11.8416 34.6991 11.7614 34.8884C11.671 35.0777 11.5908 35.2869 11.5406 35.4861C11.4904 35.6953 11.4503 35.9045 11.4202 36.1137C11.4001 36.323 11.3901 36.5421 11.3901 36.7513C11.3901 36.9605 11.4101 37.1598 11.4402 37.359C11.4503 37.4587 11.4603 37.5483 11.4703 37.6479C11.4703 37.7476 11.4804 37.8372 11.4703 37.9269C11.4703 38.0165 11.4703 38.1062 11.4603 38.1959C11.4603 38.2855 11.4503 38.3652 11.4302 38.4549C11.4101 38.6242 11.37 38.7836 11.3298 38.9331C11.3098 38.9929 11.2897 39.0526 11.2696 39.1124C11.2395 38.963 11.2094 38.8135 11.1793 38.6641C10.818 36.5919 10.6474 34.4899 10.7077 32.4277C10.7077 32.2982 10.7077 32.1687 10.7177 32.0392C10.7177 31.9097 10.7277 31.7801 10.7378 31.6506C10.7378 31.5211 10.7578 31.4016 10.7578 31.2721C10.7679 31.1426 10.7779 31.013 10.7879 30.8835C10.7879 30.8835 10.7879 30.8736 10.7879 30.8636C10.8481 30.754 10.9184 30.6345 11.0087 30.5149C11.1592 30.3057 11.37 30.1065 11.6309 29.967C11.8918 29.8275 12.1929 29.7578 12.5541 29.7976C12.5541 29.7976 12.7348 29.7678 13.0158 29.708C13.2968 29.6482 13.6681 29.5685 14.0695 29.4789C14.4609 29.3792 14.8623 29.2796 15.1934 29.1601C15.354 29.1003 15.5045 29.0405 15.6149 28.9708C15.7353 28.911 15.8257 28.8413 15.8658 28.7616C16.0565 28.4727 16.2672 28.2236 16.5181 27.9447C16.6385 27.8052 16.7589 27.6558 16.8894 27.4864C17.0299 27.317 17.1603 27.1377 17.3109 26.9185C17.3309 26.8986 17.351 26.8687 17.3711 26.8388C17.3912 26.809 17.4112 26.789 17.4413 26.7591C17.4915 26.6994 17.5417 26.6496 17.6019 26.5997C17.7123 26.4902 17.8427 26.3806 17.9732 26.281C18.1137 26.1813 18.2642 26.0717 18.4148 25.9821C18.5753 25.8825 18.7258 25.7928 18.8864 25.7131C19.2176 25.5437 19.5387 25.4142 19.8097 25.3146C20.0906 25.215 20.3215 25.1652 20.462 25.1552C20.462 25.1552 19.5889 25.215 18.4549 25.3046C18.1639 25.3246 17.8528 25.3445 17.5417 25.3644C17.2306 25.3843 16.8994 25.4142 16.5783 25.4242C16.2572 25.4441 15.926 25.4541 15.6049 25.464C15.4443 25.464 15.2837 25.464 15.1332 25.464C14.9827 25.464 14.8322 25.464 14.6816 25.464C14.22 25.4441 13.8086 25.5338 13.4373 25.7031C13.3469 25.743 13.2566 25.7928 13.1663 25.8426C13.076 25.8924 12.9957 25.9522 12.9255 26.012C12.7649 26.1315 12.6244 26.271 12.4839 26.4204C12.3434 26.5699 12.233 26.7392 12.1327 26.9086C12.0323 27.0779 11.932 27.2672 11.8517 27.4465C11.7814 27.6358 11.7112 27.8251 11.661 28.0144C11.6108 28.2037 11.5707 28.393 11.5406 28.5723C11.5205 28.7616 11.4804 28.9309 11.4302 29.1003C11.4101 29.18 11.38 29.2597 11.3499 29.3394C11.3198 29.4191 11.2897 29.4888 11.2596 29.5685C11.1392 29.8375 10.9886 30.0766 10.8481 30.2758C10.8481 30.226 10.8481 30.1762 10.8682 30.1164C10.8983 29.8674 10.9284 29.6084 10.9585 29.3593C11.089 28.3531 11.2696 27.3668 11.4904 26.4105C11.7112 25.4541 11.9821 24.5176 12.2832 23.621C12.3635 23.3919 12.4438 23.1727 12.514 22.9535C12.5943 22.7344 12.6846 22.5152 12.7649 22.296C12.7649 22.2761 12.7749 22.2661 12.785 22.2462C12.8853 22.1167 13.0459 21.9573 13.2466 21.8079C13.3469 21.7381 13.4573 21.6584 13.5777 21.5987C13.638 21.5688 13.6982 21.5389 13.7584 21.519C13.8186 21.499 13.8888 21.4791 13.9591 21.4592C14.23 21.3994 14.5211 21.3994 14.8422 21.5289C14.8422 21.5289 15.5346 21.5887 16.2873 21.5987C16.6686 21.6086 17.06 21.5987 17.3811 21.5787C17.7123 21.5489 17.9732 21.4891 18.0936 21.3795C18.3445 21.1603 18.6054 20.981 18.9065 20.7818C18.9767 20.7319 19.057 20.6821 19.1373 20.6224C19.2176 20.5626 19.2979 20.5028 19.3781 20.443C19.5487 20.3235 19.7193 20.1741 19.91 20.0147C20.1007 19.8453 20.3716 19.6959 20.6928 19.5464C20.8533 19.4767 21.0139 19.4169 21.1845 19.3572C21.2748 19.3273 21.3551 19.2974 21.4354 19.2775C21.5257 19.2476 21.606 19.2276 21.6963 19.1978C22.3787 19.0085 23.041 18.9188 23.312 18.9487C23.312 18.9487 23.1113 18.9288 22.7701 18.8889C22.5995 18.869 22.3988 18.8391 22.168 18.8092C21.9371 18.7793 21.6863 18.7395 21.4153 18.7096C20.8734 18.6399 20.2612 18.5502 19.6591 18.4406C19.057 18.341 18.4549 18.2115 17.923 18.062C17.5116 17.9425 17.1102 17.9325 16.7288 18.0023C16.3475 18.072 15.9962 18.2314 15.6751 18.4406C15.5948 18.5004 15.5146 18.5502 15.4443 18.61C15.3741 18.6698 15.2938 18.7295 15.2235 18.7993C15.083 18.9288 14.9526 19.0682 14.8322 19.2177C14.7117 19.3671 14.6114 19.5265 14.511 19.6859C14.4609 19.7656 14.4107 19.8453 14.3705 19.925C14.3304 20.0047 14.2903 20.0844 14.2501 20.1641C14.1799 20.3235 14.0996 20.4729 14.0093 20.6024C13.9189 20.7419 13.8286 20.8615 13.7283 20.981C13.6279 21.0906 13.5276 21.2002 13.4272 21.2998C13.3269 21.3895 13.2265 21.4791 13.1262 21.5588C13.0961 21.5887 13.0659 21.6086 13.0258 21.6286C13.0659 21.519 13.1161 21.4193 13.1563 21.3098C13.1964 21.2002 13.2466 21.1006 13.2968 21.0009C13.3469 20.8913 13.3871 20.7917 13.4373 20.6921C13.4874 20.5925 13.5276 20.4829 13.5777 20.3833C13.6781 20.184 13.7684 19.9848 13.8688 19.7855C13.9691 19.5863 14.0695 19.397 14.1698 19.1978C14.22 19.0981 14.2702 19.0085 14.3204 18.9088C14.3705 18.8192 14.4207 18.7196 14.4809 18.6299C14.5311 18.5402 14.5813 18.4406 14.6315 18.351C14.6616 18.3011 14.6816 18.2613 14.7117 18.2115C14.7418 18.1617 14.7619 18.1218 14.792 18.072C14.9024 17.8827 15.0028 17.7034 15.1131 17.5241C15.2235 17.3448 15.3339 17.1654 15.4343 16.9961C15.4845 16.9064 15.5346 16.8168 15.5948 16.7371C15.645 16.6474 15.7052 16.5677 15.7554 16.478C16.2271 15.7408 16.7088 15.0534 17.1804 14.4158L17.2005 14.4358C17.2005 14.4358 17.2707 14.366 17.4012 14.2764C17.5316 14.1768 17.7123 14.0672 17.9331 13.9675C18.1538 13.8679 18.3947 13.7982 18.6556 13.7982C18.9165 13.7982 19.1875 13.858 19.4384 14.0373C19.4384 14.0373 20.0605 14.2266 20.7429 14.386C21.0841 14.4657 21.4454 14.5354 21.7565 14.5553C22.0676 14.5852 22.3285 14.5752 22.469 14.4856C22.76 14.3162 23.0511 14.1867 23.3822 14.0373C23.7034 13.8779 24.0747 13.6986 24.5162 13.4196C24.737 13.2801 25.038 13.1506 25.3692 13.051C25.7004 12.9414 26.0616 12.8617 26.4129 12.792C27.1153 12.6625 27.7877 12.6027 28.0386 12.6525C28.0386 12.6525 27.8479 12.6226 27.5268 12.5529C27.2057 12.4931 26.7541 12.3935 26.2523 12.274C25.2388 12.0349 23.9944 11.7061 23.0711 11.2877C22.3386 10.9589 21.5759 11.0386 20.9035 11.3375C20.7329 11.4072 20.5723 11.4969 20.4118 11.5965C20.2512 11.6961 20.1007 11.8057 19.9602 11.9253C19.8197 12.0448 19.6892 12.1644 19.5588 12.2939C19.4986 12.3537 19.4384 12.4234 19.3781 12.4931C19.3179 12.5529 19.2678 12.6226 19.2176 12.6924C19.1172 12.8219 19.0068 12.9414 18.8964 13.051C18.7861 13.1606 18.6656 13.2602 18.5552 13.3399C18.4348 13.4196 18.3244 13.4993 18.204 13.5691C18.0836 13.6388 17.9732 13.6986 17.8728 13.7484C17.7725 13.7882 17.6822 13.8281 17.6019 13.858C17.8528 13.5292 18.0936 13.2104 18.3345 12.9115C18.6054 12.5728 18.8764 12.2441 19.1273 11.9452C19.5588 11.4272 21.1544 9.10594 21.6963 8.31892C22.0676 8.03997 22.5192 7.84073 23.021 7.85069C23.021 7.85069 26.0917 6.97401 26.4028 6.17702C26.7139 5.38004 27.1555 4.76237 27.5569 3.49716C27.9583 2.23195 29.7145 0.299262 30.2765 -0.0195312C30.2765 -0.0195312 26.8946 1.86334 24.4259 2.41127C22.479 2.84961 21.7866 4.93173 21.7866 6.58548C21.7866 7.19318 21.5859 7.73114 21.335 8.15952C19.8598 9.77341 17.8026 12.0448 17.6019 12.2939C17.4213 12.523 17.2105 12.7721 16.9998 13.0112C16.9998 12.9414 17.0098 12.8717 17.0198 12.792C17.06 12.5429 17.1403 12.274 17.2607 11.985C17.3209 11.8356 17.4012 11.6961 17.4915 11.5467C17.5818 11.4072 17.6922 11.2578 17.8126 11.1183C18.3144 10.5505 18.7861 9.84315 19.0169 9.08601C19.1373 8.70745 19.1875 8.31892 19.1574 7.94035C19.1273 7.56178 19.0068 7.19318 18.776 6.83453C18.1839 5.94789 17.6721 4.69264 17.3209 3.66652C17.1503 3.14848 17.0098 2.69022 16.9095 2.36146C16.8191 2.0327 16.769 1.83346 16.769 1.83346C16.8392 2.10244 16.8091 2.80976 16.6987 3.59679C16.6385 3.98531 16.5582 4.39377 16.4579 4.77234C16.3575 5.1509 16.2271 5.49959 16.0866 5.77853C15.4945 6.87438 15.3741 7.56178 15.0529 8.29899C14.8924 8.67756 15.1734 9.4347 15.5146 10.1022C15.6852 10.4309 15.8658 10.7398 15.9962 10.9589C16.1367 11.1781 16.2271 11.3176 16.2271 11.3176C16.498 11.5168 16.6385 11.7659 16.7188 12.0249C16.789 12.2839 16.779 12.5529 16.7489 12.802C16.7188 13.051 16.6485 13.2702 16.5883 13.4296C16.5883 13.4595 16.5683 13.4694 16.5683 13.4894C15.9461 14.2166 15.2938 14.9937 14.7318 15.8703C14.6716 15.96 14.6214 16.0497 14.5612 16.1294C14.501 16.219 14.4508 16.3087 14.3906 16.3983C14.2802 16.5777 14.1698 16.757 14.0594 16.9463C13.9491 17.1356 13.8387 17.3149 13.7383 17.5042C13.7082 17.554 13.6881 17.5938 13.658 17.6436C13.6279 17.6934 13.6079 17.7433 13.5777 17.7931C13.5276 17.8927 13.4774 17.9824 13.4172 18.082C13.367 18.1816 13.3068 18.2812 13.2566 18.3709C13.2064 18.4705 13.1563 18.5701 13.0961 18.6698C12.9957 18.869 12.8853 19.0682 12.785 19.2775C12.6846 19.4867 12.5843 19.6959 12.4839 19.8951C12.4337 20.0047 12.3835 20.1043 12.3434 20.2139C12.2932 20.3235 12.2431 20.4231 12.2029 20.5327C12.1929 20.5626 12.1828 20.5925 12.1628 20.6124C12.1628 20.4231 12.1628 20.2239 12.1929 20.0047C12.2029 19.925 12.223 19.8453 12.2431 19.7556C12.2631 19.6759 12.2832 19.5863 12.3133 19.5066C12.3735 19.3372 12.4438 19.1579 12.5341 18.9885C12.7247 18.6399 12.8753 18.2513 12.9957 17.8528C13.0258 17.7532 13.0559 17.6536 13.076 17.554C13.0961 17.4444 13.1161 17.3448 13.1362 17.2451C13.1763 17.0359 13.1964 16.8267 13.2064 16.6175C13.2064 16.4083 13.2064 16.1991 13.1864 15.9899C13.1663 15.7807 13.1161 15.5814 13.0559 15.3822C12.9355 14.9837 12.7247 14.6151 12.4137 14.2863C12.2129 14.0771 12.0223 13.848 11.8316 13.5989C11.6409 13.3499 11.4603 13.0809 11.2797 12.8119C11.099 12.533 10.9284 12.254 10.7779 11.9751C10.6173 11.6961 10.4768 11.4172 10.3363 11.1482C10.0754 10.6102 9.85465 10.1221 9.71416 9.77341C9.57367 9.42473 9.49338 9.20556 9.49338 9.20556C9.54356 9.355 9.59374 9.63394 9.62384 9.99258C9.66398 10.3512 9.69409 10.7896 9.70412 11.2478C9.73423 12.1743 9.70412 13.1706 9.48335 13.848C9.43317 14.0174 9.38299 14.1668 9.34285 14.3162C9.30271 14.4657 9.27261 14.6051 9.25254 14.7346C9.20236 15.0036 9.16222 15.2328 9.14215 15.4619C9.12208 15.691 9.10201 15.9002 9.08194 16.0995C9.0719 16.1991 9.06187 16.3087 9.04179 16.4083C9.03176 16.5079 9.01169 16.6175 8.99162 16.7271C8.95148 16.9463 9.05183 17.2451 9.22243 17.554C9.40306 17.8728 9.65395 18.2015 9.91486 18.5104C10.1758 18.8192 10.4367 19.0882 10.6374 19.2874C10.8381 19.4767 10.9786 19.6062 10.9786 19.6062C11.3098 19.7457 11.5305 19.9649 11.671 20.2139C11.8216 20.463 11.8818 20.7419 11.9219 21.0009C11.9219 21.0707 11.9219 21.1205 11.932 21.1902C11.8416 21.4094 11.7413 21.6286 11.661 21.8577C11.5707 22.0868 11.4904 22.306 11.4001 22.5351C11.3198 22.7643 11.2395 22.9934 11.1592 23.2225C10.8481 24.159 10.5772 25.1253 10.3363 26.1116C10.1156 27.1078 9.93494 28.124 9.79444 29.1601C9.77437 29.2995 9.76434 29.439 9.74426 29.5785C9.69409 29.4191 9.64391 29.2398 9.61381 29.0505C9.59374 28.8811 9.57367 28.7018 9.5837 28.5125C9.5837 28.4228 9.5837 28.3232 9.59374 28.2236C9.59374 28.124 9.61381 28.0244 9.63388 27.9247C9.67402 27.7255 9.70412 27.5163 9.71416 27.2971C9.71416 27.1875 9.71416 27.0779 9.71416 26.9783C9.71416 26.8687 9.71416 26.7591 9.71416 26.6496C9.70412 26.4304 9.67402 26.2112 9.63388 25.992C9.59374 25.7729 9.54356 25.5537 9.47331 25.3445C9.33282 24.9161 9.14215 24.5077 8.88123 24.1391C8.75077 23.9498 8.60024 23.7804 8.42964 23.621C8.25904 23.4616 8.07841 23.3221 7.86767 23.1926C7.34583 22.8738 6.78385 22.4554 6.25198 21.9772C5.72011 21.509 5.21835 20.991 4.78683 20.5028C4.56606 20.2538 4.37539 20.0246 4.19475 19.8055C4.01412 19.5863 3.86359 19.387 3.74316 19.2276C3.49228 18.8889 3.34175 18.6797 3.34175 18.6797C3.43207 18.8192 3.56253 19.1181 3.72309 19.4966C3.80337 19.6859 3.88366 19.8951 3.96394 20.1242C4.05426 20.3534 4.13454 20.5925 4.22486 20.8316C4.265 20.9511 4.30514 21.0806 4.34528 21.2002C4.38542 21.3197 4.42556 21.4492 4.4657 21.5688C4.54599 21.8178 4.61623 22.0769 4.67644 22.316C4.70655 22.4355 4.73666 22.555 4.75673 22.6746C4.78683 22.7941 4.8069 22.9037 4.81694 23.0133C4.84704 23.2325 4.86711 23.4417 4.86711 23.631C4.86711 23.8203 4.86711 23.9896 4.86711 24.159C4.86711 24.3184 4.88719 24.4678 4.90726 24.6073C4.92733 24.7468 4.93736 24.8763 4.95743 25.0058C4.9775 25.1253 5.00761 25.2449 5.02768 25.3644C5.12803 25.8127 5.22839 26.1813 5.29863 26.6595C5.32874 26.8887 5.51941 27.1676 5.8004 27.4366C6.08139 27.7056 6.44266 27.9646 6.80393 28.2037C7.1652 28.4328 7.51643 28.6321 7.78738 28.7715C7.91784 28.8413 8.02823 28.901 8.10851 28.9309C8.1888 28.9708 8.22894 28.9907 8.22894 28.9907C8.61028 29.0305 8.9013 29.1899 9.12208 29.3992C9.35289 29.6084 9.51345 29.8674 9.62384 30.1164C9.64391 30.1463 9.64391 30.1762 9.66398 30.2061C9.66398 30.2459 9.66398 30.2858 9.65395 30.3256C9.65395 30.4552 9.63388 30.5847 9.62384 30.7241C9.61381 30.8537 9.60377 30.9931 9.59374 31.1226C9.59374 31.2521 9.57366 31.3817 9.57366 31.5211C9.57366 31.6506 9.55359 31.7901 9.55359 31.9196C9.55359 32.0491 9.55359 32.1886 9.54356 32.3181C9.48335 34.45 9.65395 36.6218 10.0253 38.7637C10.0253 38.7836 10.0253 38.8036 10.0353 38.8235C9.95501 38.694 9.86469 38.5545 9.79444 38.4051C9.63388 38.0763 9.51345 37.6878 9.46328 37.2594C9.36292 36.4027 9.00165 35.506 8.42964 34.729C8.14865 34.3405 7.79742 33.9918 7.40604 33.7029C7.20534 33.5534 6.9946 33.4239 6.77382 33.3143C6.55304 33.2048 6.32223 33.1051 6.07135 33.0454C5.76026 32.9557 5.42909 32.8461 5.08789 32.7166C4.91729 32.6469 4.74669 32.5771 4.57609 32.5074C4.40549 32.4277 4.23489 32.348 4.06429 32.2683C3.37186 31.9395 2.68946 31.551 2.09738 31.1724C1.79632 30.9832 1.52536 30.7939 1.27448 30.6146C1.0236 30.4452 0.812858 30.2958 0.632223 30.1563C0.270953 29.8873 0.0501764 29.7179 0.0501764 29.7179C0.180635 29.8375 0.421482 30.0965 0.712505 30.4352C0.853 30.6046 1.01356 30.8038 1.18416 31.013C1.26445 31.1127 1.35476 31.2223 1.43505 31.3418C1.51533 31.4514 1.60565 31.5709 1.69596 31.6805C1.86656 31.9097 2.0472 32.1487 2.20776 32.3878C2.37836 32.6269 2.53893 32.8561 2.67942 33.0952C2.81992 33.3243 2.96041 33.5534 3.0708 33.7626C3.18119 33.9818 3.26147 34.1811 3.32168 34.3703C3.38189 34.5596 3.43207 34.7389 3.49228 34.8983C3.55249 35.0577 3.6127 35.1972 3.67292 35.3367C3.79334 35.5957 3.91376 35.8149 4.03419 36.0141C4.15461 36.2134 4.27503 36.3927 4.38542 36.582C4.49581 36.7713 4.6062 36.9605 4.70655 37.1897C4.8069 37.4188 5.08789 37.638 5.4592 37.8273C5.63983 37.9269 5.84054 38.0165 6.05128 38.0962C6.26202 38.1759 6.4828 38.2457 6.70357 38.3154C7.13509 38.4449 7.55657 38.5445 7.86767 38.6143C8.17876 38.684 8.3895 38.7139 8.3895 38.7139C8.78088 38.6541 9.13211 38.7338 9.42314 38.8833C9.57367 38.953 9.70412 39.0526 9.82455 39.1522C9.94497 39.2519 10.0554 39.3615 10.1557 39.471C10.1557 39.471 10.1557 39.481 10.1758 39.491C10.3363 40.3079 10.517 41.1347 10.7277 41.9417C10.9987 42.9877 11.3198 44.0238 11.6811 45.04C12.0022 45.9565 12.3534 46.8432 12.7348 47.7198C12.3835 47.3712 12.0323 46.9129 11.8115 46.3251C11.4904 45.4683 10.8582 44.6614 10.0353 44.0437C9.62384 43.7349 9.17225 43.4759 8.67049 43.2866C8.17876 43.0973 7.65693 42.9778 7.11502 42.9678C6.42258 42.9579 5.63983 42.8582 4.84704 42.7088C4.64634 42.6689 4.44563 42.6291 4.24493 42.5892C4.04422 42.5494 3.85355 42.4996 3.65285 42.4498C3.26147 42.3502 2.88013 42.2505 2.51886 42.1509C1.79632 41.9417 1.17413 41.7225 0.722541 41.5532C0.491729 41.4735 0.321129 41.4037 0.19067 41.3539C0.070247 41.3041 0 41.2742 0 41.2742C0.0802823 41.3141 0.210741 41.3838 0.36127 41.4834C0.5118 41.5731 0.70247 41.6926 0.913211 41.8221C1.12395 41.9517 1.34473 42.1011 1.58558 42.2605C1.82642 42.4199 2.0773 42.5892 2.32819 42.7686C2.57907 42.9479 2.82995 43.1272 3.08083 43.3165C3.20126 43.4062 3.32168 43.5058 3.4421 43.5954C3.56253 43.6951 3.67292 43.7847 3.7833 43.8744C4.00408 44.0637 4.20479 44.2529 4.37539 44.4323C4.54599 44.6216 4.69652 44.8009 4.79687 44.9802C5.01764 45.3289 5.21835 45.6078 5.40902 45.837C5.59969 46.0661 5.78033 46.2355 5.96096 46.4048C6.13156 46.5642 6.30216 46.7037 6.46273 46.8631C6.54301 46.9428 6.62329 47.0225 6.70357 47.1022C6.78385 47.1918 6.86414 47.2815 6.94442 47.3811C7.10498 47.5804 7.44618 47.7398 7.86767 47.8493C8.28915 47.9589 8.78088 48.0187 9.26257 48.0586C10.2159 48.1283 11.079 48.0785 11.079 48.0785C11.2696 47.9988 11.4603 47.9589 11.6409 47.9589C11.8216 47.9589 12.0022 47.9689 12.1728 48.0187C12.4939 48.0984 12.7749 48.2478 13.0258 48.4172C13.3971 49.2441 13.7985 50.051 14.22 50.838C15.1934 52.6512 16.2772 54.3248 17.4413 55.8291C17.351 55.7694 17.2607 55.7196 17.1704 55.6598C17.0098 55.5402 16.8392 55.4008 16.6786 55.2414C16.5181 55.082 16.3776 54.9027 16.2371 54.7034C15.6852 53.9064 14.8121 53.2589 13.7985 52.8205C13.2968 52.6113 12.7448 52.4519 12.1929 52.3722C11.9119 52.3324 11.6309 52.3125 11.3499 52.3224C11.0689 52.3224 10.7879 52.3523 10.5069 52.4021C10.1557 52.4718 9.77437 52.5217 9.37296 52.5615C9.17225 52.5814 8.96151 52.6014 8.75077 52.6113C8.54003 52.6213 8.32929 52.6312 8.11855 52.6412C7.69707 52.6512 7.25551 52.6512 6.83403 52.6412C6.40251 52.6412 5.99107 52.6113 5.59969 52.5814C5.20831 52.5615 4.82697 52.5217 4.49581 52.4918C4.15461 52.4619 3.85355 52.422 3.60267 52.3822C3.35179 52.3523 3.15108 52.3224 3.00055 52.3025C2.86006 52.2826 2.77977 52.2726 2.77977 52.2726C2.97045 52.3224 3.37186 52.442 3.87362 52.6113C4.1245 52.701 4.40549 52.8006 4.69651 52.9102C4.98754 53.0198 5.2886 53.1393 5.60973 53.2589C5.92082 53.3784 6.23191 53.5079 6.54301 53.6474C6.8541 53.7769 7.14513 53.9164 7.42611 54.0658C7.98809 54.3547 8.45975 54.6536 8.77084 54.9724C9.39303 55.61 9.87472 55.9088 10.3062 56.138C10.4166 56.1978 10.517 56.2476 10.6173 56.3073C10.7177 56.3671 10.818 56.4169 10.9284 56.4767C11.0288 56.5365 11.1291 56.5962 11.2395 56.666C11.3399 56.7357 11.4503 56.8154 11.5607 56.8951C11.671 56.9848 11.8216 57.0445 12.0122 57.0944C12.1026 57.1143 12.2029 57.1342 12.3033 57.1442C12.4036 57.1541 12.524 57.1641 12.6344 57.1641C13.0961 57.184 13.6179 57.1342 14.1096 57.0545C14.6013 56.9748 15.073 56.8752 15.4142 56.7955C15.5848 56.7556 15.7253 56.7158 15.8156 56.6859C15.916 56.656 15.9661 56.6461 15.9661 56.6461C16.3174 56.397 16.6987 56.3073 17.06 56.3173C17.2406 56.3173 17.4213 56.3372 17.5919 56.3771C17.7223 56.407 17.8427 56.4468 17.9732 56.4867C18.9767 57.722 20.0304 58.8378 21.0942 59.7941C22.2282 60.8103 23.3722 61.6272 24.466 62.2748C24.4259 62.2748 24.3757 62.2548 24.3356 62.2449C24.2854 62.2349 24.2352 62.215 24.175 62.205C23.9643 62.1452 23.7435 62.0755 23.5328 61.9759C23.4224 61.9261 23.312 61.8663 23.2116 61.8065C23.1012 61.7468 23.0009 61.677 22.8905 61.5973C22.6798 61.4479 22.459 61.3084 22.2081 61.1988C22.0877 61.1391 21.9672 61.0793 21.8368 61.0295C21.7063 60.9797 21.5759 60.9298 21.4454 60.89C21.315 60.8402 21.1845 60.8003 21.044 60.7605C20.9035 60.7206 20.763 60.6908 20.6225 60.6609C20.482 60.631 20.3415 60.6011 20.191 60.5812C20.1208 60.5712 20.0505 60.5612 19.9702 60.5513C19.9 60.5513 19.8297 60.5314 19.7494 60.5214C19.5989 60.5015 19.4584 60.4915 19.3079 60.4915C19.1574 60.4915 19.0068 60.4815 18.8563 60.4815C18.5552 60.4815 18.2542 60.5015 17.9531 60.5413C17.361 60.6111 16.779 60.7705 16.2471 61.0195C15.5748 61.3383 14.7519 61.6272 13.8788 61.8563C13.0158 62.0954 12.0925 62.2748 11.2596 62.4043C10.8481 62.464 10.4467 62.5238 10.0855 62.5637C9.72419 62.6035 9.40307 62.6334 9.13211 62.6633C8.86116 62.6832 8.64038 62.7031 8.48985 62.7031C8.33932 62.7031 8.25904 62.7131 8.25904 62.7131C8.69056 62.733 10.0754 62.8825 11.5506 63.1016C11.9219 63.1614 12.2932 63.2212 12.6645 63.281C13.0358 63.3507 13.3971 63.4204 13.7383 63.5001C14.0895 63.5798 14.4006 63.6695 14.7017 63.7691C15.0028 63.8687 15.2536 63.9883 15.4744 64.1078C15.6952 64.2373 15.8959 64.3469 16.0866 64.4366C16.2772 64.5262 16.4579 64.596 16.6184 64.6557C16.6987 64.6856 16.779 64.7155 16.8593 64.7354C16.9396 64.7554 17.0098 64.7853 17.0801 64.8052C17.2206 64.845 17.361 64.8749 17.4915 64.9048C17.7524 64.9646 18.0033 65.0044 18.2542 65.0542C18.3846 65.0841 18.5051 65.114 18.6456 65.1539C18.7861 65.1937 18.9266 65.2435 19.0771 65.3033C19.3781 65.4228 19.8297 65.393 20.3014 65.2635C20.5422 65.2037 20.7831 65.114 21.034 65.0144C21.2748 64.9148 21.5257 64.7952 21.7565 64.6757C22.2181 64.4366 22.6396 64.1676 22.9407 63.9683C23.2417 63.7691 23.4224 63.6197 23.4224 63.6197C23.6532 63.2511 23.9843 63.0219 24.3356 62.8825C24.6266 62.7729 24.9277 62.7231 25.2287 62.7031C25.6803 62.9323 26.1219 63.1415 26.5333 63.3108C26.6738 63.3706 26.8043 63.4204 26.9447 63.4702C27.0852 63.52 27.2157 63.5699 27.3462 63.6097C27.4766 63.6595 27.6071 63.6894 27.7275 63.7293C27.858 63.7691 27.9784 63.809 28.0988 63.8388C29.0622 64.0979 29.8449 64.1975 30.3768 64.2373C30.4471 64.2373 30.5073 64.2373 30.5675 64.2473C30.5976 64.2473 30.6277 64.2473 30.6578 64.2473H30.7381C30.7381 64.2473 30.7682 64.2473 30.7883 64.2473C31.6814 65.0044 32.4341 66.2696 30.5976 68.0927C29.2027 69.4775 29.8148 73.5222 29.8751 73.8908C29.8449 73.6517 29.7145 72.0378 31.9624 68.6606C33.548 66.2896 32.976 64.8849 32.3738 64.1875C32.8154 64.1676 33.1967 64.1377 33.1967 64.1377C35.8962 63.8687 36.0166 65.2336 36.0166 65.2336C35.2339 66.5287 36.2776 68.0828 36.2776 68.0828C36.0668 66.688 37.4216 65.7516 37.7929 64.1377C37.9635 63.3806 38.1742 62.8924 37.8932 62.6234C37.5621 62.3146 37.0603 62.2947 36.6489 62.4939L36.6689 62.5637Z" fill="#EFB967"/>
</svg>
