<svg width="50" height="50" viewBox="0 0 50 50" fill="none" xmlns="http://www.w3.org/2000/svg">
<rect width="50" height="50" rx="12" fill="#F6F8FA"/>
<path fill-rule="evenodd" clip-rule="evenodd" d="M15.951 23.8534C21.2957 21.5248 24.8597 19.9896 26.643 19.2479C31.7345 17.1302 32.7925 16.7623 33.482 16.7501C33.6337 16.7475 33.9728 16.785 34.1925 16.9633C34.378 17.1138 34.429 17.3171 34.4534 17.4598C34.4778 17.6025 34.5082 17.9275 34.4841 18.1815C34.2082 21.0806 33.0143 28.1157 32.4069 31.3627C32.1499 32.7366 31.6439 33.1972 31.154 33.2423C30.0893 33.3403 29.2808 32.5387 28.2496 31.8627C26.636 30.805 25.7244 30.1465 24.1581 29.1144C22.348 27.9215 23.5214 27.2659 24.553 26.1945C24.823 25.9141 29.514 21.6472 29.6048 21.2602C29.6161 21.2117 29.6267 21.0313 29.5195 20.936C29.4123 20.8407 29.254 20.8733 29.1399 20.8992C28.978 20.936 26.4002 22.6398 21.4065 26.0107C20.6748 26.5131 20.0121 26.7579 19.4183 26.7451C18.7637 26.7309 17.5044 26.375 16.5683 26.0707C15.4202 25.6975 14.5076 25.5001 14.5871 24.8663C14.6285 24.5361 15.0831 24.1985 15.951 23.8534Z" fill="#0C0C0C"/>
</svg>
