<svg width="50" height="50" viewBox="0 0 50 50" fill="none" xmlns="http://www.w3.org/2000/svg">
<rect width="50" height="50" rx="12" fill="white"/>
<path fill-rule="evenodd" clip-rule="evenodd" d="M15.9508 23.8534C21.2955 21.5248 24.8595 19.9896 26.6427 19.2479C31.7342 17.1302 32.7922 16.7623 33.4818 16.7501C33.6335 16.7475 33.9726 16.785 34.1922 16.9633C34.3777 17.1138 34.4287 17.3171 34.4532 17.4598C34.4776 17.6025 34.508 17.9275 34.4838 18.1815C34.2079 21.0806 33.014 28.1157 32.4067 31.3627C32.1497 32.7366 31.6436 33.1972 31.1537 33.2423C30.089 33.3403 29.2806 32.5387 28.2494 31.8627C26.6357 30.805 25.7241 30.1465 24.1578 29.1144C22.3477 27.9215 23.5211 27.2659 24.5527 26.1945C24.8227 25.9141 29.5137 21.6472 29.6045 21.2602C29.6159 21.2117 29.6264 21.0313 29.5192 20.936C29.412 20.8407 29.2538 20.8733 29.1396 20.8992C28.9778 20.936 26.4 22.6398 21.4063 26.0107C20.6746 26.5131 20.0118 26.7579 19.418 26.7451C18.7634 26.7309 17.5042 26.375 16.5681 26.0707C15.4199 25.6975 14.5074 25.5001 14.5869 24.8663C14.6282 24.5361 15.0829 24.1985 15.9508 23.8534Z" fill="#0C0C0C"/>
</svg>
