<svg width="50" height="50" viewBox="0 0 50 50" fill="none" xmlns="http://www.w3.org/2000/svg">
<rect width="50" height="50" rx="12" fill="#F6F8FA"/>
<path fill-rule="evenodd" clip-rule="evenodd" d="M30.1274 26.8243C29.8739 26.6982 28.6313 26.0904 28.3999 26.0058C28.1686 25.922 28.0002 25.8805 27.8309 26.1327C27.6625 26.3833 27.1785 26.9504 27.0314 27.118C26.8834 27.2865 26.7363 27.3068 26.4836 27.1815C26.231 27.0545 25.4162 26.7896 24.4509 25.933C23.6998 25.266 23.1921 24.4424 23.0449 24.1901C22.8978 23.9387 23.0287 23.8024 23.1555 23.6771C23.2695 23.5646 23.4081 23.3834 23.5348 23.237C23.6615 23.0897 23.7032 22.9847 23.7874 22.8163C23.8725 22.6487 23.83 22.5023 23.7662 22.3761C23.7032 22.25 23.198 21.0116 22.9871 20.508C22.7821 20.0179 22.5737 20.0847 22.4189 20.0763C22.2709 20.0695 22.1025 20.0678 21.9341 20.0678C21.7657 20.0678 21.4918 20.1305 21.2605 20.3827C21.0283 20.6341 20.3759 21.2427 20.3759 22.4811C20.3759 23.7186 21.2809 24.9147 21.4076 25.0831C21.5343 25.2507 23.1895 27.7918 25.725 28.8812C26.3288 29.1402 26.7992 29.2951 27.1658 29.4103C27.7714 29.6024 28.3225 29.5753 28.758 29.5101C29.2428 29.4382 30.2532 28.9015 30.4642 28.3141C30.6743 27.7266 30.6743 27.223 30.6113 27.118C30.5484 27.0131 30.38 26.9504 30.1265 26.8243H30.1274ZM25.5157 33.0907H25.5123C24.0064 33.091 22.5281 32.6881 21.2324 31.9243L20.9262 31.7431L17.7435 32.5744L18.5932 29.4864L18.3933 29.1699C17.5514 27.8361 17.1058 26.2925 17.1081 24.7175C17.1098 20.1042 20.8811 16.351 25.5191 16.351C27.7646 16.351 29.8756 17.2228 31.4627 18.804C32.2455 19.5799 32.866 20.5025 33.2882 21.5186C33.7104 22.5346 33.926 23.6239 33.9225 24.7234C33.9208 29.3366 30.1495 33.0907 25.5157 33.0907ZM32.6705 17.6029C31.7334 16.6641 30.6183 15.9197 29.39 15.4129C28.1617 14.9061 26.8446 14.6469 25.5149 14.6504C19.9404 14.6504 15.4019 19.1663 15.4002 24.7166C15.3994 26.4908 15.8646 28.2227 16.75 29.7489L15.3152 34.9656L20.677 33.5656C22.1602 34.3698 23.8224 34.7912 25.5115 34.7913H25.5157C31.0902 34.7913 35.6287 30.2754 35.6304 24.7242C35.6345 23.4014 35.375 22.091 34.8669 20.8686C34.3589 19.6462 33.6123 18.5363 32.6705 17.6029Z" fill="#0C0C0C"/>
</svg>
