<svg width="50" height="50" viewBox="0 0 50 50" fill="none" xmlns="http://www.w3.org/2000/svg">
<rect width="50" height="50" rx="12" fill="white"/>
<path fill-rule="evenodd" clip-rule="evenodd" d="M30.1276 26.8243C29.8742 26.6982 28.6315 26.0904 28.4002 26.0058C28.1688 25.922 28.0004 25.8805 27.8311 26.1327C27.6627 26.3833 27.1788 26.9504 27.0316 27.118C26.8836 27.2865 26.7365 27.3068 26.4839 27.1815C26.2313 27.0545 25.4165 26.7896 24.4511 25.933C23.7001 25.266 23.1923 24.4424 23.0452 24.1901C22.898 23.9387 23.029 23.8024 23.1557 23.6771C23.2697 23.5646 23.4083 23.3834 23.5351 23.237C23.6618 23.0897 23.7035 22.9847 23.7877 22.8163C23.8727 22.6487 23.8302 22.5023 23.7664 22.3761C23.7035 22.25 23.1982 21.0116 22.9873 20.508C22.7823 20.0179 22.574 20.0847 22.4192 20.0763C22.2712 20.0695 22.1028 20.0678 21.9343 20.0678C21.7659 20.0678 21.4921 20.1305 21.2607 20.3827C21.0285 20.6341 20.3762 21.2427 20.3762 22.4811C20.3762 23.7186 21.2811 24.9147 21.4079 25.0831C21.5346 25.2507 23.1897 27.7918 25.7252 28.8812C26.3291 29.1402 26.7994 29.2951 27.166 29.4103C27.7716 29.6024 28.3228 29.5753 28.7582 29.5101C29.243 29.4382 30.2535 28.9015 30.4644 28.3141C30.6745 27.7266 30.6745 27.223 30.6116 27.118C30.5486 27.0131 30.3802 26.9504 30.1268 26.8243H30.1276ZM25.516 33.0907H25.5126C24.0066 33.091 22.5283 32.6881 21.2326 31.9243L20.9265 31.7431L17.7437 32.5744L18.5934 29.4864L18.3935 29.1699C17.5516 27.8361 17.1061 26.2925 17.1084 24.7175C17.1101 20.1042 20.8814 16.351 25.5194 16.351C27.7648 16.351 29.8759 17.2228 31.463 18.804C32.2458 19.5799 32.8662 20.5025 33.2885 21.5186C33.7107 22.5346 33.9263 23.6239 33.9227 24.7234C33.921 29.3366 30.1497 33.0907 25.516 33.0907ZM32.6707 17.6029C31.7336 16.6641 30.6186 15.9197 29.3903 15.4129C28.162 14.9061 26.8448 14.6469 25.5151 14.6504C19.9407 14.6504 15.4022 19.1663 15.4005 24.7166C15.3996 26.4908 15.8649 28.2227 16.7503 29.7489L15.3154 34.9656L20.6772 33.5656C22.1605 34.3698 23.8226 34.7912 25.5117 34.7913H25.516C31.0904 34.7913 35.6289 30.2754 35.6306 24.7242C35.6347 23.4014 35.3752 22.091 34.8672 20.8686C34.3591 19.6462 33.6126 18.5363 32.6707 17.6029Z" fill="#0C0C0C"/>
</svg>
