<svg width="24" height="24" viewBox="0 0 24 24" fill="none" xmlns="http://www.w3.org/2000/svg">
<path d="M12.0001 22.9256C18.0342 22.9256 22.9258 18.034 22.9258 11.9999C22.9258 5.96581 18.0342 1.07422 12.0001 1.07422C5.966 1.07422 1.0744 5.96581 1.0744 11.9999C1.0744 18.034 5.966 22.9256 12.0001 22.9256Z" fill="#FC3F1D"/>
<path d="M15.9554 18.8581H13.557V6.99577H12.4885C10.5301 6.99577 9.50418 7.97501 9.50418 9.43677C9.50418 11.0952 10.2118 11.8636 11.6755 12.8428L12.8818 13.6558L9.41498 18.8561H6.83612L9.9563 14.2133C8.16204 12.932 7.1524 11.6811 7.1524 9.57058C7.1524 6.93292 8.99125 5.13867 12.4723 5.13867H15.9392V18.8541H15.9554V18.8581Z" fill="white"/>
</svg>
